G75*
%MOIN*%
%OFA0B0*%
%FSLAX25Y25*%
%IPPOS*%
%LPD*%
%AMOC8*
5,1,8,0,0,1.08239X$1,22.5*
%
%ADD10C,0.00600*%
D10*
X0164543Y0264900D02*
X0164543Y0271305D01*
X0167746Y0268103D01*
X0163475Y0268103D01*
X0169921Y0269170D02*
X0169921Y0270238D01*
X0170988Y0271305D01*
X0173124Y0271305D01*
X0174191Y0270238D01*
X0176366Y0268103D02*
X0180637Y0268103D01*
X0182812Y0269170D02*
X0183879Y0268103D01*
X0186015Y0268103D01*
X0187082Y0269170D01*
X0187082Y0270238D01*
X0186015Y0271305D01*
X0183879Y0271305D01*
X0182812Y0270238D01*
X0182812Y0269170D01*
X0183879Y0268103D02*
X0182812Y0267035D01*
X0182812Y0265968D01*
X0183879Y0264900D01*
X0186015Y0264900D01*
X0187082Y0265968D01*
X0187082Y0267035D01*
X0186015Y0268103D01*
X0189257Y0270238D02*
X0189257Y0265968D01*
X0190325Y0264900D01*
X0192460Y0264900D01*
X0193528Y0265968D01*
X0189257Y0270238D01*
X0190325Y0271305D01*
X0192460Y0271305D01*
X0193528Y0270238D01*
X0193528Y0265968D01*
X0195703Y0268103D02*
X0199973Y0268103D01*
X0202148Y0267035D02*
X0203216Y0268103D01*
X0206419Y0268103D01*
X0206419Y0265968D01*
X0205351Y0264900D01*
X0203216Y0264900D01*
X0202148Y0265968D01*
X0202148Y0267035D01*
X0204284Y0270238D02*
X0202148Y0271305D01*
X0204284Y0270238D02*
X0206419Y0268103D01*
X0208594Y0264900D02*
X0212864Y0264900D01*
X0210729Y0264900D02*
X0210729Y0271305D01*
X0212864Y0269170D01*
X0215039Y0270238D02*
X0219310Y0265968D01*
X0218242Y0264900D01*
X0216107Y0264900D01*
X0215039Y0265968D01*
X0215039Y0270238D01*
X0216107Y0271305D01*
X0218242Y0271305D01*
X0219310Y0270238D01*
X0219310Y0265968D01*
X0221485Y0264900D02*
X0225755Y0264900D01*
X0221485Y0269170D01*
X0221485Y0270238D01*
X0222552Y0271305D01*
X0224688Y0271305D01*
X0225755Y0270238D01*
X0234376Y0270238D02*
X0234376Y0265968D01*
X0235443Y0264900D01*
X0237579Y0264900D01*
X0238646Y0265968D01*
X0234376Y0270238D01*
X0235443Y0271305D01*
X0237579Y0271305D01*
X0238646Y0270238D01*
X0238646Y0265968D01*
X0247267Y0269170D02*
X0249402Y0264900D01*
X0251537Y0269170D01*
X0253712Y0268103D02*
X0253712Y0267035D01*
X0257983Y0267035D01*
X0257983Y0265968D02*
X0257983Y0268103D01*
X0256915Y0269170D01*
X0254780Y0269170D01*
X0253712Y0268103D01*
X0254780Y0264900D02*
X0256915Y0264900D01*
X0257983Y0265968D01*
X0260151Y0269170D02*
X0261219Y0269170D01*
X0263354Y0267035D01*
X0263354Y0264900D02*
X0263354Y0269170D01*
X0174191Y0264900D02*
X0169921Y0269170D01*
X0169921Y0264900D02*
X0174191Y0264900D01*
M02*
