G75*
%MOIN*%
%OFA0B0*%
%FSLAX25Y25*%
%IPPOS*%
%LPD*%
%AMOC8*
5,1,8,0,0,1.08239X$1,22.5*
%
%ADD10C,0.13261*%
%ADD11C,0.06112*%
%ADD12C,0.03300*%
D10*
X0151600Y0056600D03*
X0151600Y0266600D03*
X0391600Y0266600D03*
X0391600Y0056600D03*
D11*
X0351600Y0266600D03*
X0291600Y0266600D03*
D12*
X0292100Y0251100D03*
X0282100Y0251100D03*
X0276600Y0242100D03*
X0282600Y0238100D03*
X0293100Y0233600D03*
X0303100Y0233600D03*
X0313100Y0233600D03*
X0323100Y0233600D03*
X0333100Y0233600D03*
X0326100Y0221100D03*
X0331100Y0215600D03*
X0329100Y0211100D03*
X0331013Y0206013D03*
X0331600Y0201600D03*
X0320600Y0186600D03*
X0307600Y0190100D03*
X0289100Y0169100D03*
X0302600Y0163600D03*
X0309600Y0159100D03*
X0319100Y0143100D03*
X0315600Y0141100D03*
X0317600Y0138100D03*
X0319600Y0135100D03*
X0301600Y0141100D03*
X0289600Y0127100D03*
X0271600Y0141100D03*
X0270100Y0145100D03*
X0259600Y0137600D03*
X0242600Y0142600D03*
X0242100Y0146600D03*
X0242100Y0157100D03*
X0241600Y0160600D03*
X0247100Y0166600D03*
X0249600Y0164100D03*
X0259600Y0171100D03*
X0263100Y0173100D03*
X0262100Y0177100D03*
X0254100Y0182100D03*
X0245600Y0186100D03*
X0241100Y0193100D03*
X0232600Y0181600D03*
X0228600Y0174600D03*
X0226100Y0171600D03*
X0222600Y0169100D03*
X0218600Y0169100D03*
X0217100Y0172100D03*
X0215100Y0169100D03*
X0212600Y0166100D03*
X0205600Y0167100D03*
X0205600Y0172100D03*
X0207100Y0175100D03*
X0202100Y0174600D03*
X0198600Y0174600D03*
X0195600Y0173100D03*
X0192100Y0173600D03*
X0188600Y0173600D03*
X0185600Y0175100D03*
X0184100Y0168600D03*
X0186600Y0166100D03*
X0184100Y0163600D03*
X0181600Y0161100D03*
X0180100Y0158100D03*
X0167100Y0161600D03*
X0154600Y0161600D03*
X0154600Y0158100D03*
X0154600Y0165100D03*
X0156600Y0176600D03*
X0165600Y0191100D03*
X0166600Y0194600D03*
X0167600Y0198100D03*
X0169600Y0201100D03*
X0171600Y0204100D03*
X0161100Y0194600D03*
X0158100Y0192600D03*
X0166600Y0219600D03*
X0172100Y0227600D03*
X0175100Y0226100D03*
X0178100Y0224600D03*
X0181100Y0223100D03*
X0184100Y0221600D03*
X0196100Y0224600D03*
X0197100Y0220100D03*
X0200600Y0222100D03*
X0196100Y0211600D03*
X0198100Y0202600D03*
X0200600Y0200100D03*
X0200600Y0196100D03*
X0208600Y0192600D03*
X0202100Y0185600D03*
X0192100Y0185600D03*
X0190600Y0190600D03*
X0187100Y0190600D03*
X0185600Y0185600D03*
X0196600Y0164100D03*
X0200600Y0143100D03*
X0198100Y0140600D03*
X0195600Y0138100D03*
X0193100Y0135600D03*
X0190600Y0133100D03*
X0183100Y0128600D03*
X0180600Y0131100D03*
X0185600Y0126100D03*
X0194100Y0124600D03*
X0189100Y0113600D03*
X0186100Y0112100D03*
X0182600Y0112100D03*
X0178100Y0112600D03*
X0192600Y0104600D03*
X0198600Y0104600D03*
X0200600Y0112600D03*
X0210100Y0113600D03*
X0213600Y0113600D03*
X0217100Y0113600D03*
X0218600Y0110600D03*
X0222600Y0110600D03*
X0228100Y0113100D03*
X0232600Y0113100D03*
X0233100Y0119600D03*
X0215600Y0124100D03*
X0228100Y0138600D03*
X0213100Y0143600D03*
X0227600Y0155100D03*
X0223100Y0163600D03*
X0219100Y0200600D03*
X0216100Y0202600D03*
X0213600Y0205100D03*
X0219100Y0208100D03*
X0212100Y0211600D03*
X0220600Y0221600D03*
X0221100Y0226600D03*
X0215600Y0227100D03*
X0212100Y0227100D03*
X0212100Y0234600D03*
X0211600Y0252600D03*
X0208600Y0254100D03*
X0204100Y0253100D03*
X0200100Y0254600D03*
X0197100Y0252600D03*
X0194100Y0254600D03*
X0191100Y0252600D03*
X0186600Y0250600D03*
X0184600Y0254600D03*
X0181100Y0252100D03*
X0178600Y0254600D03*
X0215100Y0254100D03*
X0218600Y0254100D03*
X0222100Y0254600D03*
X0246100Y0239600D03*
X0249600Y0225600D03*
X0238100Y0211600D03*
X0235100Y0210100D03*
X0232100Y0211600D03*
X0226100Y0220600D03*
X0259100Y0209100D03*
X0260600Y0206100D03*
X0265100Y0215100D03*
X0276600Y0204600D03*
X0280600Y0189600D03*
X0284100Y0224100D03*
X0306600Y0223600D03*
X0302100Y0251100D03*
X0312100Y0251100D03*
X0322100Y0251100D03*
X0332100Y0251100D03*
X0357100Y0229100D03*
X0365600Y0211100D03*
X0365600Y0201600D03*
X0376100Y0221100D03*
X0377600Y0242600D03*
X0395600Y0230600D03*
X0352600Y0183100D03*
X0342600Y0166100D03*
X0343600Y0161100D03*
X0339600Y0159600D03*
X0348600Y0158100D03*
X0352600Y0155100D03*
X0352600Y0161600D03*
X0356100Y0144100D03*
X0360100Y0136600D03*
X0363100Y0133600D03*
X0358100Y0127100D03*
X0355600Y0130100D03*
X0351600Y0122600D03*
X0341600Y0116600D03*
X0331100Y0111100D03*
X0327600Y0116100D03*
X0313600Y0104600D03*
X0301600Y0100100D03*
X0263100Y0096600D03*
X0258100Y0120100D03*
X0238600Y0094100D03*
X0230600Y0096100D03*
X0229100Y0089600D03*
X0217100Y0100100D03*
X0212100Y0104100D03*
X0205600Y0096100D03*
X0201600Y0095600D03*
X0191100Y0097100D03*
X0189600Y0094100D03*
X0183600Y0096600D03*
X0170100Y0094100D03*
X0169100Y0130100D03*
X0161600Y0143100D03*
X0165100Y0145600D03*
X0153100Y0138600D03*
X0215600Y0093100D03*
X0229100Y0078600D03*
X0232600Y0078600D03*
X0328100Y0159100D03*
X0373600Y0140100D03*
X0373100Y0118100D03*
X0352600Y0110600D03*
X0357100Y0098100D03*
X0361100Y0089600D03*
X0363100Y0086100D03*
X0367100Y0086100D03*
X0367100Y0082600D03*
X0370100Y0090100D03*
X0366100Y0092600D03*
X0367600Y0095600D03*
X0372100Y0098100D03*
X0375600Y0095100D03*
X0380600Y0090600D03*
X0387100Y0091100D03*
X0385100Y0072100D03*
X0374600Y0060100D03*
X0374100Y0056100D03*
X0368100Y0058600D03*
X0342100Y0078600D03*
M02*
