%
M48
M72
T01C0.0130
T02C0.0551
T03C0.0866
%
T01
X15310Y13860
X16160Y14310
X16510Y14560
X15460Y15810
X15460Y16160
X15460Y16510
X15660Y17660
X16560Y19110
X16660Y19460
X16760Y19810
X16960Y20110
X17160Y20410
X16110Y19460
X15810Y19260
X16660Y21960
X17210Y22760
X17510Y22610
X17810Y22460
X18110Y22310
X18410Y22160
X19610Y22460
X19710Y22010
X20060Y22210
X19610Y21160
X19810Y20260
X20060Y20010
X20060Y19610
X20860Y19260
X20210Y18560
X19210Y18560
X19060Y19060
X18710Y19060
X18560Y18560
X18560Y17510
X18860Y17360
X19210Y17360
X19560Y17310
X19860Y17460
X20210Y17460
X20560Y17210
X20710Y17510
X20560Y16710
X21260Y16610
X21510Y16910
X21860Y16910
X21710Y17210
X22260Y16910
X22610Y17160
X22860Y17460
X23260Y18160
X24560Y18610
X24110Y19310
X25410Y18210
X26210Y17710
X26310Y17310
X25960Y17110
X24960Y16410
X24710Y16660
X24160Y16060
X24210Y15710
X24210Y14660
X24260Y14260
X22810Y13860
X21310Y14360
X20060Y14310
X19810Y14060
X19560Y13810
X19310Y13560
X19060Y13310
X18310Y12860
X18060Y13110
X18560Y12610
X19410Y12460
X18910Y11360
X18610Y11210
X18260Y11210
X17810Y11260
X19260Y10460
X19860Y10460
X20060Y11260
X21010Y11360
X21360Y11360
X21710Y11360
X21860Y11060
X22260Y11060
X22810Y11310
X23260Y11310
X23310Y11960
X21560Y12410
X21210Y10410
X21710Y10010
X21560Y9310
X20560Y9610
X20160Y9560
X19110Y9710
X18960Y9410
X18360Y9660
X17010Y9410
X16910Y13010
X18010Y15810
X18160Y16110
X18410Y16360
X18660Y16610
X18410Y16860
X19660Y16410
X22310Y16360
X22760Y15510
X25960Y13760
X27010Y14510
X27160Y14110
X28960Y12710
X30160Y14110
X31560Y14110
X31760Y13810
X31960Y13510
X31910Y14310
X33194Y14232
X33194Y14626
X33588Y14626
X33982Y14626
X34376Y14626
X34376Y14232
X34376Y13838
X34376Y13444
X33982Y13444
X33588Y13444
X33194Y13444
X33194Y13838
X33588Y13838
X33982Y13838
X33982Y14232
X33588Y14232
X32810Y15910
X33960Y15960
X34360Y16110
X34260Y16610
X34860Y15810
X35260Y15510
X35260Y16160
X35610Y14410
X36010Y13660
X36310Y13360
X35810Y12710
X35560Y13010
X35160Y12260
X34160Y11660
X33110Y11110
X32760Y11610
X31360Y10460
X30160Y10010
X26310Y9660
X25810Y12010
X23860Y9410
X23060Y9610
X22910Y8960
X22910Y7860
X23260Y7860
X30960Y15910
X30260Y16360
X28910Y16910
X28060Y18960
X27660Y20460
X26510Y21510
X25910Y20910
X26060Y20610
X24960Y22560
X24610Y23960
X22610Y22060
X22060Y22160
X22110Y22660
X21560Y22710
X21210Y22710
X21210Y23460
X21160Y25260
X20860Y25410
X20410Y25310
X20010Y25460
X19710Y25260
X19410Y25460
X19110Y25260
X18660Y25060
X18460Y25460
X18110Y25210
X17860Y25460
X21510Y25410
X21860Y25410
X22210Y25460
X21210Y21160
X21910Y20810
X21610Y20260
X21360Y20510
X21910Y20060
X23210Y21160
X23510Y21010
X23810Y21160
X27660Y24210
X28260Y23810
X29310Y23360
X30310Y23360
X31310Y23360
X32310Y23360
X33310Y23360
X32610Y22110
X33110Y21560
X32910Y21110
X33101Y20601
X33160Y20160
X32060Y18660
X30760Y19010
X30660Y22360
X28410Y22410
X28210Y25110
X29210Y25110
X30210Y25110
X31210Y25110
X32210Y25110
X33210Y25110
X35710Y22910
X36560Y21110
X36560Y20160
X37610Y22110
X37760Y24260
X39560Y23060
X35260Y18310
X37360Y14010
X37310Y11810
X35260Y11060
X35710Y9810
X36110Y8960
X36310Y8610
X36710Y8610
X36710Y8260
X37010Y9010
X36610Y9260
X36760Y9560
X37210Y9810
X37560Y9510
X38060Y9060
X38710Y9110
X38510Y7210
X37460Y6010
X37410Y5610
X36810Y5860
X34210Y7860
X16710Y16160
T02
X29160Y26660
X35160Y26660
T03
X15160Y5660
X15160Y26660
X39160Y26660
X39160Y5660
M30
