G75*
%MOIN*%
%OFA0B0*%
%FSLAX25Y25*%
%IPPOS*%
%LPD*%
%AMOC8*
5,1,8,0,0,1.08239X$1,22.5*
%
%ADD10C,0.02000*%
%ADD11C,0.00600*%
%ADD12C,0.00300*%
%ADD13C,0.00600*%
%ADD14C,0.00500*%
%ADD15C,0.00800*%
%ADD16C,0.00787*%
%ADD17C,0.00984*%
%ADD18C,0.01600*%
%ADD19C,0.01969*%
%ADD20C,0.00400*%
D10*
X0165100Y0052100D02*
X0166100Y0051100D01*
X0194100Y0051100D01*
X0195100Y0052100D01*
X0195100Y0054100D01*
X0193100Y0056100D01*
X0167100Y0056100D01*
X0165100Y0054100D01*
X0165100Y0087100D01*
X0166100Y0088100D01*
X0194100Y0088100D01*
X0195100Y0087100D01*
X0195100Y0054100D01*
X0194100Y0053100D02*
X0166100Y0053100D01*
X0167100Y0054100D01*
X0193100Y0054100D01*
X0189100Y0065100D02*
X0188100Y0066100D01*
X0182100Y0066100D01*
X0181100Y0065100D01*
X0179100Y0065100D01*
X0178100Y0066100D01*
X0172100Y0066100D01*
X0171100Y0065100D01*
X0171100Y0067100D01*
X0178100Y0067100D01*
X0179100Y0066100D01*
X0180100Y0066100D02*
X0180100Y0079100D01*
X0181100Y0079100D01*
X0182100Y0080100D01*
X0188100Y0080100D01*
X0189100Y0079100D01*
X0189100Y0065100D01*
X0188100Y0067100D02*
X0182100Y0067100D01*
X0181100Y0066100D01*
X0171100Y0067100D02*
X0171100Y0079100D01*
X0172100Y0080100D01*
X0178100Y0080100D01*
X0179100Y0079100D01*
X0180100Y0079100D01*
X0165100Y0054100D02*
X0165100Y0052100D01*
D11*
X0201900Y0052968D02*
X0201900Y0055103D01*
X0202968Y0056170D01*
X0205103Y0056170D01*
X0206170Y0055103D01*
X0206170Y0054035D01*
X0201900Y0054035D01*
X0201900Y0052968D02*
X0202968Y0051900D01*
X0205103Y0051900D01*
X0208345Y0051900D02*
X0210481Y0051900D01*
X0209413Y0051900D02*
X0209413Y0056170D01*
X0208345Y0056170D01*
X0209413Y0058305D02*
X0209413Y0059373D01*
X0212642Y0056170D02*
X0215845Y0056170D01*
X0216913Y0055103D01*
X0216913Y0051900D01*
X0219088Y0051900D02*
X0219088Y0058305D01*
X0222291Y0056170D02*
X0219088Y0054035D01*
X0222291Y0051900D01*
X0230905Y0052968D02*
X0231972Y0051900D01*
X0235175Y0051900D01*
X0237350Y0052968D02*
X0238418Y0051900D01*
X0240553Y0051900D01*
X0241621Y0052968D01*
X0241621Y0055103D01*
X0240553Y0056170D01*
X0238418Y0056170D01*
X0237350Y0055103D01*
X0237350Y0052968D01*
X0235175Y0056170D02*
X0231972Y0056170D01*
X0230905Y0055103D01*
X0230905Y0052968D01*
X0243796Y0051900D02*
X0243796Y0056170D01*
X0246998Y0056170D01*
X0248066Y0055103D01*
X0248066Y0051900D01*
X0251309Y0052968D02*
X0252376Y0051900D01*
X0251309Y0052968D02*
X0251309Y0057238D01*
X0252376Y0056170D02*
X0250241Y0056170D01*
X0254538Y0056170D02*
X0254538Y0051900D01*
X0254538Y0054035D02*
X0256673Y0056170D01*
X0257741Y0056170D01*
X0259909Y0055103D02*
X0259909Y0052968D01*
X0260977Y0051900D01*
X0263112Y0051900D01*
X0264180Y0052968D01*
X0264180Y0055103D01*
X0263112Y0056170D01*
X0260977Y0056170D01*
X0259909Y0055103D01*
X0266355Y0058305D02*
X0267423Y0058305D01*
X0267423Y0051900D01*
X0268490Y0051900D02*
X0266355Y0051900D01*
X0270652Y0051900D02*
X0272787Y0051900D01*
X0271720Y0051900D02*
X0271720Y0058305D01*
X0270652Y0058305D01*
X0274949Y0055103D02*
X0276017Y0056170D01*
X0278152Y0056170D01*
X0279219Y0055103D01*
X0279219Y0054035D01*
X0274949Y0054035D01*
X0274949Y0052968D02*
X0274949Y0055103D01*
X0274949Y0052968D02*
X0276017Y0051900D01*
X0278152Y0051900D01*
X0281394Y0051900D02*
X0281394Y0056170D01*
X0281394Y0054035D02*
X0283530Y0056170D01*
X0284597Y0056170D01*
X0313000Y0104000D02*
X0313000Y0106200D01*
X0313000Y0104000D02*
X0316200Y0104000D01*
X0313000Y0113000D02*
X0313000Y0115200D01*
X0316200Y0115200D01*
X0362500Y0118200D02*
X0365700Y0118200D01*
X0365700Y0116000D01*
X0365700Y0109200D02*
X0365700Y0107000D01*
X0362500Y0107000D01*
X0266688Y0109700D02*
X0264953Y0109700D01*
X0265821Y0109700D02*
X0265821Y0112302D01*
X0264953Y0111435D01*
X0263742Y0111869D02*
X0263308Y0112302D01*
X0262441Y0112302D01*
X0262007Y0111869D01*
X0262007Y0110134D01*
X0262441Y0109700D01*
X0263308Y0109700D01*
X0263742Y0110134D01*
X0260795Y0110134D02*
X0260362Y0109700D01*
X0259494Y0109700D01*
X0259060Y0110134D01*
X0259494Y0111001D02*
X0260362Y0111001D01*
X0260795Y0110567D01*
X0260795Y0110134D01*
X0259494Y0111001D02*
X0259060Y0111435D01*
X0259060Y0111869D01*
X0259494Y0112302D01*
X0260362Y0112302D01*
X0260795Y0111869D01*
X0257849Y0111869D02*
X0257415Y0112302D01*
X0256548Y0112302D01*
X0256114Y0111869D01*
X0256114Y0110134D01*
X0256548Y0109700D01*
X0257415Y0109700D01*
X0257849Y0110134D01*
X0257849Y0111869D01*
X0212642Y0056170D02*
X0212642Y0051900D01*
X0244941Y0198700D02*
X0245808Y0198700D01*
X0246242Y0199134D01*
X0246242Y0201302D01*
X0247453Y0201302D02*
X0247453Y0200001D01*
X0248321Y0200435D01*
X0248755Y0200435D01*
X0249188Y0200001D01*
X0249188Y0199134D01*
X0248755Y0198700D01*
X0247887Y0198700D01*
X0247453Y0199134D01*
X0247453Y0201302D02*
X0249188Y0201302D01*
X0244507Y0201302D02*
X0244507Y0199134D01*
X0244941Y0198700D01*
X0280616Y0260694D02*
X0280616Y0294159D01*
X0362584Y0294159D01*
X0362584Y0260694D01*
X0280616Y0260694D01*
D12*
X0274666Y0240238D02*
X0275150Y0239755D01*
X0275150Y0238787D01*
X0274666Y0238303D01*
X0273699Y0238303D02*
X0273215Y0239271D01*
X0273215Y0239755D01*
X0273699Y0240238D01*
X0274666Y0240238D01*
X0273699Y0238303D02*
X0272248Y0238303D01*
X0272248Y0240238D01*
X0272731Y0237292D02*
X0273699Y0237292D01*
X0274183Y0236808D01*
X0274183Y0235357D01*
X0275150Y0235357D02*
X0272248Y0235357D01*
X0272248Y0236808D01*
X0272731Y0237292D01*
X0274183Y0236324D02*
X0275150Y0237292D01*
X0278748Y0226755D02*
X0280199Y0225303D01*
X0280199Y0227238D01*
X0281650Y0226755D02*
X0278748Y0226755D01*
X0279231Y0224292D02*
X0280199Y0224292D01*
X0280683Y0223808D01*
X0280683Y0222357D01*
X0281650Y0222357D02*
X0278748Y0222357D01*
X0278748Y0223808D01*
X0279231Y0224292D01*
X0280683Y0223324D02*
X0281650Y0224292D01*
X0255950Y0236250D02*
X0253048Y0236250D01*
X0253048Y0237701D01*
X0253531Y0238185D01*
X0254499Y0238185D01*
X0254983Y0237701D01*
X0254983Y0236250D01*
X0254983Y0237217D02*
X0255950Y0238185D01*
X0255466Y0239197D02*
X0255950Y0239680D01*
X0255950Y0240648D01*
X0255466Y0241131D01*
X0254983Y0241131D01*
X0254499Y0240648D01*
X0254499Y0240164D01*
X0254499Y0240648D02*
X0254015Y0241131D01*
X0253531Y0241131D01*
X0253048Y0240648D01*
X0253048Y0239680D01*
X0253531Y0239197D01*
X0251725Y0242060D02*
X0252209Y0242544D01*
X0252209Y0243511D01*
X0251725Y0243995D01*
X0250758Y0245007D02*
X0250758Y0246942D01*
X0251725Y0247953D02*
X0249790Y0247953D01*
X0249307Y0248437D01*
X0249307Y0249404D01*
X0249790Y0249888D01*
X0251725Y0247953D01*
X0252209Y0248437D01*
X0252209Y0249404D01*
X0251725Y0249888D01*
X0249790Y0249888D01*
X0249307Y0246458D02*
X0250758Y0245007D01*
X0249790Y0243995D02*
X0249307Y0243511D01*
X0249307Y0242544D01*
X0249790Y0242060D01*
X0251725Y0242060D01*
X0252209Y0246458D02*
X0249307Y0246458D01*
X0207728Y0205410D02*
X0207244Y0205893D01*
X0206276Y0205893D01*
X0205793Y0205410D01*
X0205793Y0204926D01*
X0206276Y0204442D01*
X0207728Y0204442D01*
X0207728Y0203475D02*
X0207728Y0205410D01*
X0207728Y0203475D02*
X0207244Y0202991D01*
X0206276Y0202991D01*
X0205793Y0203475D01*
X0204781Y0203475D02*
X0204297Y0202991D01*
X0203330Y0202991D01*
X0202846Y0203475D01*
X0201835Y0203475D02*
X0201351Y0202991D01*
X0200383Y0202991D01*
X0199900Y0203475D01*
X0199900Y0205410D01*
X0200383Y0205893D01*
X0201351Y0205893D01*
X0201835Y0205410D01*
X0202846Y0205410D02*
X0203330Y0205893D01*
X0204297Y0205893D01*
X0204781Y0205410D01*
X0204781Y0204926D01*
X0204297Y0204442D01*
X0204781Y0203958D01*
X0204781Y0203475D01*
X0204297Y0204442D02*
X0203814Y0204442D01*
X0203011Y0197893D02*
X0202044Y0197893D01*
X0201560Y0197410D01*
X0201560Y0195475D01*
X0202044Y0194991D01*
X0203011Y0194991D01*
X0203495Y0195475D01*
X0204507Y0195475D02*
X0204990Y0194991D01*
X0205958Y0194991D01*
X0206442Y0195475D01*
X0206442Y0195958D01*
X0205958Y0196442D01*
X0205474Y0196442D01*
X0205958Y0196442D02*
X0206442Y0196926D01*
X0206442Y0197410D01*
X0205958Y0197893D01*
X0204990Y0197893D01*
X0204507Y0197410D01*
X0203495Y0197410D02*
X0203011Y0197893D01*
X0207453Y0196926D02*
X0208421Y0197893D01*
X0208421Y0194991D01*
X0209388Y0194991D02*
X0207453Y0194991D01*
X0221807Y0194904D02*
X0221807Y0193937D01*
X0222290Y0193453D01*
X0222290Y0192442D02*
X0222774Y0192442D01*
X0223258Y0191958D01*
X0223742Y0192442D01*
X0224225Y0192442D01*
X0224709Y0191958D01*
X0224709Y0190990D01*
X0224225Y0190507D01*
X0224225Y0189495D02*
X0224709Y0189011D01*
X0224709Y0188044D01*
X0224225Y0187560D01*
X0222290Y0187560D01*
X0221807Y0188044D01*
X0221807Y0189011D01*
X0222290Y0189495D01*
X0222290Y0190507D02*
X0221807Y0190990D01*
X0221807Y0191958D01*
X0222290Y0192442D01*
X0223258Y0191958D02*
X0223258Y0191474D01*
X0224709Y0193453D02*
X0222774Y0195388D01*
X0222290Y0195388D01*
X0221807Y0194904D01*
X0224709Y0195388D02*
X0224709Y0193453D01*
X0245060Y0174410D02*
X0245060Y0172475D01*
X0245544Y0171991D01*
X0246511Y0171991D01*
X0246995Y0172475D01*
X0248007Y0173442D02*
X0249942Y0173442D01*
X0250953Y0173926D02*
X0251921Y0174893D01*
X0251921Y0171991D01*
X0252888Y0171991D02*
X0250953Y0171991D01*
X0249458Y0171991D02*
X0249458Y0174893D01*
X0248007Y0173442D01*
X0246995Y0174410D02*
X0246511Y0174893D01*
X0245544Y0174893D01*
X0245060Y0174410D01*
X0259250Y0169152D02*
X0259250Y0166250D01*
X0259250Y0167217D02*
X0260701Y0167217D01*
X0261185Y0167701D01*
X0261185Y0168669D01*
X0260701Y0169152D01*
X0259250Y0169152D01*
X0260217Y0167217D02*
X0261185Y0166250D01*
X0262197Y0166734D02*
X0262680Y0166250D01*
X0263648Y0166250D01*
X0264131Y0166734D01*
X0264131Y0167217D01*
X0263648Y0167701D01*
X0262197Y0167701D01*
X0262197Y0166734D01*
X0262197Y0167701D02*
X0263164Y0168669D01*
X0264131Y0169152D01*
X0267748Y0158738D02*
X0268231Y0158738D01*
X0270166Y0156803D01*
X0270650Y0156803D01*
X0270650Y0155792D02*
X0269683Y0154824D01*
X0269683Y0155308D02*
X0269683Y0153857D01*
X0270650Y0153857D02*
X0267748Y0153857D01*
X0267748Y0155308D01*
X0268231Y0155792D01*
X0269199Y0155792D01*
X0269683Y0155308D01*
X0267748Y0156803D02*
X0267748Y0158738D01*
X0264445Y0150712D02*
X0264928Y0150228D01*
X0262993Y0148293D01*
X0263477Y0147809D01*
X0264445Y0147809D01*
X0264928Y0148293D01*
X0264928Y0150228D01*
X0264445Y0150712D02*
X0263477Y0150712D01*
X0262993Y0150228D01*
X0262993Y0148293D01*
X0261982Y0148293D02*
X0261498Y0147809D01*
X0260531Y0147809D01*
X0260047Y0148293D01*
X0259035Y0148293D02*
X0258552Y0147809D01*
X0257584Y0147809D01*
X0257100Y0148293D01*
X0257100Y0150228D01*
X0257584Y0150712D01*
X0258552Y0150712D01*
X0259035Y0150228D01*
X0260047Y0150228D02*
X0260531Y0150712D01*
X0261498Y0150712D01*
X0261982Y0150228D01*
X0261982Y0149744D01*
X0261498Y0149260D01*
X0261982Y0148777D01*
X0261982Y0148293D01*
X0261498Y0149260D02*
X0261014Y0149260D01*
X0260531Y0143712D02*
X0260047Y0143228D01*
X0260531Y0143712D02*
X0261498Y0143712D01*
X0261982Y0143228D01*
X0261982Y0142744D01*
X0260047Y0140809D01*
X0261982Y0140809D01*
X0262993Y0141293D02*
X0262993Y0141777D01*
X0263477Y0142260D01*
X0264445Y0142260D01*
X0264928Y0141777D01*
X0264928Y0141293D01*
X0264445Y0140809D01*
X0263477Y0140809D01*
X0262993Y0141293D01*
X0263477Y0142260D02*
X0262993Y0142744D01*
X0262993Y0143228D01*
X0263477Y0143712D01*
X0264445Y0143712D01*
X0264928Y0143228D01*
X0264928Y0142744D01*
X0264445Y0142260D01*
X0259035Y0141293D02*
X0258552Y0140809D01*
X0257584Y0140809D01*
X0257100Y0141293D01*
X0257100Y0143228D01*
X0257584Y0143712D01*
X0258552Y0143712D01*
X0259035Y0143228D01*
X0253404Y0133393D02*
X0252437Y0133393D01*
X0251953Y0132910D01*
X0251953Y0132426D01*
X0252437Y0131942D01*
X0253888Y0131942D01*
X0253888Y0130975D02*
X0253888Y0132910D01*
X0253404Y0133393D01*
X0253888Y0130975D02*
X0253404Y0130491D01*
X0252437Y0130491D01*
X0251953Y0130975D01*
X0250942Y0130491D02*
X0249007Y0130491D01*
X0250942Y0132426D01*
X0250942Y0132910D01*
X0250458Y0133393D01*
X0249490Y0133393D01*
X0249007Y0132910D01*
X0247995Y0132910D02*
X0247511Y0133393D01*
X0246544Y0133393D01*
X0246060Y0132910D01*
X0246060Y0130975D01*
X0246544Y0130491D01*
X0247511Y0130491D01*
X0247995Y0130975D01*
X0238466Y0118078D02*
X0238950Y0117594D01*
X0238950Y0116627D01*
X0238466Y0116143D01*
X0238950Y0115131D02*
X0238950Y0113197D01*
X0238950Y0114164D02*
X0236048Y0114164D01*
X0237015Y0113197D01*
X0236531Y0112185D02*
X0237499Y0112185D01*
X0237983Y0111701D01*
X0237983Y0110250D01*
X0238950Y0110250D02*
X0236048Y0110250D01*
X0236048Y0111701D01*
X0236531Y0112185D01*
X0237983Y0111217D02*
X0238950Y0112185D01*
X0236531Y0116143D02*
X0236048Y0116627D01*
X0236048Y0117594D01*
X0236531Y0118078D01*
X0237015Y0118078D01*
X0237499Y0117594D01*
X0237983Y0118078D01*
X0238466Y0118078D01*
X0237499Y0117594D02*
X0237499Y0117111D01*
X0229790Y0107388D02*
X0231725Y0105453D01*
X0232209Y0105453D01*
X0232209Y0104442D02*
X0232209Y0102507D01*
X0230274Y0104442D01*
X0229790Y0104442D01*
X0229307Y0103958D01*
X0229307Y0102990D01*
X0229790Y0102507D01*
X0229790Y0101495D02*
X0229307Y0101011D01*
X0229307Y0100044D01*
X0229790Y0099560D01*
X0231725Y0099560D01*
X0232209Y0100044D01*
X0232209Y0101011D01*
X0231725Y0101495D01*
X0229307Y0105453D02*
X0229307Y0107388D01*
X0229790Y0107388D01*
X0210209Y0097404D02*
X0209725Y0097888D01*
X0209242Y0097888D01*
X0208758Y0097404D01*
X0208758Y0095953D01*
X0209725Y0095953D01*
X0210209Y0096437D01*
X0210209Y0097404D01*
X0208758Y0095953D02*
X0207790Y0096921D01*
X0207307Y0097888D01*
X0207790Y0094942D02*
X0207307Y0094458D01*
X0207307Y0093490D01*
X0207790Y0093007D01*
X0207790Y0091995D02*
X0207307Y0091511D01*
X0207307Y0090544D01*
X0207790Y0090060D01*
X0209725Y0090060D01*
X0210209Y0090544D01*
X0210209Y0091511D01*
X0209725Y0091995D01*
X0210209Y0093007D02*
X0208274Y0094942D01*
X0207790Y0094942D01*
X0210209Y0094942D02*
X0210209Y0093007D01*
X0199891Y0097691D02*
X0199891Y0098659D01*
X0199407Y0099142D01*
X0199407Y0100154D02*
X0199891Y0100638D01*
X0199891Y0101605D01*
X0199407Y0102089D01*
X0198440Y0102089D01*
X0197956Y0101605D01*
X0197956Y0101121D01*
X0198440Y0100154D01*
X0196988Y0100154D01*
X0196988Y0102089D01*
X0197472Y0099142D02*
X0196988Y0098659D01*
X0196988Y0097691D01*
X0197472Y0097207D01*
X0199407Y0097207D01*
X0199891Y0097691D01*
X0185391Y0101745D02*
X0185391Y0102712D01*
X0184907Y0103196D01*
X0185391Y0104207D02*
X0183456Y0106142D01*
X0182972Y0106142D01*
X0182488Y0105659D01*
X0182488Y0104691D01*
X0182972Y0104207D01*
X0182972Y0103196D02*
X0182488Y0102712D01*
X0182488Y0101745D01*
X0182972Y0101261D01*
X0184907Y0101261D01*
X0185391Y0101745D01*
X0185391Y0104207D02*
X0185391Y0106142D01*
X0184907Y0107154D02*
X0185391Y0107638D01*
X0185391Y0108605D01*
X0184907Y0109089D01*
X0183940Y0109089D01*
X0183456Y0108605D01*
X0183456Y0108121D01*
X0183940Y0107154D01*
X0182488Y0107154D01*
X0182488Y0109089D01*
X0175755Y0118550D02*
X0176238Y0119034D01*
X0176238Y0119517D01*
X0175755Y0120001D01*
X0174303Y0120001D01*
X0174303Y0119034D01*
X0174787Y0118550D01*
X0175755Y0118550D01*
X0174303Y0120001D02*
X0175271Y0120969D01*
X0176238Y0121452D01*
X0173292Y0121452D02*
X0173292Y0119034D01*
X0172808Y0118550D01*
X0171841Y0118550D01*
X0171357Y0119034D01*
X0171357Y0121452D01*
X0161993Y0131309D02*
X0161993Y0131793D01*
X0163928Y0133728D01*
X0163928Y0134212D01*
X0161993Y0134212D01*
X0160982Y0133728D02*
X0160982Y0133244D01*
X0160498Y0132760D01*
X0160982Y0132277D01*
X0160982Y0131793D01*
X0160498Y0131309D01*
X0159531Y0131309D01*
X0159047Y0131793D01*
X0158035Y0131793D02*
X0157552Y0131309D01*
X0156584Y0131309D01*
X0156100Y0131793D01*
X0156100Y0133728D01*
X0156584Y0134212D01*
X0157552Y0134212D01*
X0158035Y0133728D01*
X0159047Y0133728D02*
X0159531Y0134212D01*
X0160498Y0134212D01*
X0160982Y0133728D01*
X0160498Y0132760D02*
X0160014Y0132760D01*
X0158605Y0141809D02*
X0157638Y0141809D01*
X0157154Y0142293D01*
X0157154Y0143260D01*
X0158605Y0143260D01*
X0159089Y0142777D01*
X0159089Y0142293D01*
X0158605Y0141809D01*
X0157154Y0143260D02*
X0158121Y0144228D01*
X0159089Y0144712D01*
X0156142Y0144228D02*
X0156142Y0143744D01*
X0155659Y0143260D01*
X0156142Y0142777D01*
X0156142Y0142293D01*
X0155659Y0141809D01*
X0154691Y0141809D01*
X0154207Y0142293D01*
X0153196Y0142293D02*
X0152712Y0141809D01*
X0151745Y0141809D01*
X0151261Y0142293D01*
X0151261Y0144228D01*
X0151745Y0144712D01*
X0152712Y0144712D01*
X0153196Y0144228D01*
X0154207Y0144228D02*
X0154691Y0144712D01*
X0155659Y0144712D01*
X0156142Y0144228D01*
X0155659Y0143260D02*
X0155175Y0143260D01*
X0156084Y0152809D02*
X0157052Y0152809D01*
X0157535Y0153293D01*
X0158547Y0153293D02*
X0159031Y0152809D01*
X0159998Y0152809D01*
X0160482Y0153293D01*
X0160482Y0153777D01*
X0159998Y0154260D01*
X0159514Y0154260D01*
X0159998Y0154260D02*
X0160482Y0154744D01*
X0160482Y0155228D01*
X0159998Y0155712D01*
X0159031Y0155712D01*
X0158547Y0155228D01*
X0157535Y0155228D02*
X0157052Y0155712D01*
X0156084Y0155712D01*
X0155600Y0155228D01*
X0155600Y0153293D01*
X0156084Y0152809D01*
X0161493Y0153293D02*
X0161977Y0152809D01*
X0162945Y0152809D01*
X0163428Y0153293D01*
X0163428Y0154260D01*
X0162945Y0154744D01*
X0162461Y0154744D01*
X0161493Y0154260D01*
X0161493Y0155712D01*
X0163428Y0155712D01*
X0152904Y0169991D02*
X0152904Y0172893D01*
X0151453Y0171442D01*
X0153388Y0171442D01*
X0150442Y0170958D02*
X0150442Y0170475D01*
X0149958Y0169991D01*
X0148990Y0169991D01*
X0148507Y0170475D01*
X0147495Y0170475D02*
X0147011Y0169991D01*
X0146044Y0169991D01*
X0145560Y0170475D01*
X0145560Y0172410D01*
X0146044Y0172893D01*
X0147011Y0172893D01*
X0147495Y0172410D01*
X0148507Y0172410D02*
X0148990Y0172893D01*
X0149958Y0172893D01*
X0150442Y0172410D01*
X0150442Y0171926D01*
X0149958Y0171442D01*
X0150442Y0170958D01*
X0149958Y0171442D02*
X0149474Y0171442D01*
X0150688Y0180613D02*
X0152139Y0180613D01*
X0152623Y0181097D01*
X0152623Y0183032D01*
X0152139Y0183515D01*
X0150688Y0183515D01*
X0150688Y0180613D01*
X0153634Y0180613D02*
X0155569Y0180613D01*
X0154602Y0180613D02*
X0154602Y0183515D01*
X0153634Y0182548D01*
X0192988Y0200084D02*
X0193472Y0199600D01*
X0195407Y0199600D01*
X0195891Y0200084D01*
X0195891Y0201052D01*
X0195407Y0201535D01*
X0195407Y0202547D02*
X0195891Y0203031D01*
X0195891Y0203998D01*
X0195407Y0204482D01*
X0194923Y0204482D01*
X0194440Y0203998D01*
X0194440Y0203514D01*
X0194440Y0203998D02*
X0193956Y0204482D01*
X0193472Y0204482D01*
X0192988Y0203998D01*
X0192988Y0203031D01*
X0193472Y0202547D01*
X0193472Y0201535D02*
X0192988Y0201052D01*
X0192988Y0200084D01*
X0193472Y0205493D02*
X0192988Y0205977D01*
X0192988Y0206945D01*
X0193472Y0207428D01*
X0193956Y0207428D01*
X0194440Y0206945D01*
X0194923Y0207428D01*
X0195407Y0207428D01*
X0195891Y0206945D01*
X0195891Y0205977D01*
X0195407Y0205493D01*
X0194440Y0206461D02*
X0194440Y0206945D01*
X0164803Y0257750D02*
X0164803Y0258234D01*
X0166738Y0260169D01*
X0166738Y0260652D01*
X0164803Y0260652D01*
X0163792Y0260652D02*
X0163792Y0258234D01*
X0163308Y0257750D01*
X0162341Y0257750D01*
X0161857Y0258234D01*
X0161857Y0260652D01*
X0264850Y0186277D02*
X0264850Y0183808D01*
X0265467Y0183191D01*
X0266702Y0183191D01*
X0267319Y0183808D01*
X0268533Y0185043D02*
X0271002Y0185043D01*
X0272216Y0186277D02*
X0272834Y0186894D01*
X0274068Y0186894D01*
X0274685Y0186277D01*
X0274685Y0185660D01*
X0272216Y0183191D01*
X0274685Y0183191D01*
X0270385Y0183191D02*
X0270385Y0186894D01*
X0268533Y0185043D01*
X0267319Y0186277D02*
X0266702Y0186894D01*
X0265467Y0186894D01*
X0264850Y0186277D01*
X0294394Y0155552D02*
X0293910Y0155069D01*
X0293910Y0153134D01*
X0294394Y0152650D01*
X0295362Y0152650D01*
X0295845Y0153134D01*
X0296857Y0152650D02*
X0298792Y0154585D01*
X0298792Y0155069D01*
X0298308Y0155552D01*
X0297341Y0155552D01*
X0296857Y0155069D01*
X0295845Y0155069D02*
X0295362Y0155552D01*
X0294394Y0155552D01*
X0296857Y0152650D02*
X0298792Y0152650D01*
X0299803Y0154101D02*
X0301738Y0154101D01*
X0301255Y0152650D02*
X0301255Y0155552D01*
X0299803Y0154101D01*
X0301738Y0148052D02*
X0300771Y0147569D01*
X0299803Y0146601D01*
X0301255Y0146601D01*
X0301738Y0146117D01*
X0301738Y0145634D01*
X0301255Y0145150D01*
X0300287Y0145150D01*
X0299803Y0145634D01*
X0299803Y0146601D01*
X0298792Y0145150D02*
X0296857Y0145150D01*
X0297824Y0145150D02*
X0297824Y0148052D01*
X0296857Y0147085D01*
X0295845Y0147569D02*
X0295362Y0148052D01*
X0294394Y0148052D01*
X0293910Y0147569D01*
X0293910Y0145634D01*
X0294394Y0145150D01*
X0295362Y0145150D01*
X0295845Y0145634D01*
X0289999Y0140738D02*
X0289999Y0138803D01*
X0288548Y0140255D01*
X0291450Y0140255D01*
X0291450Y0137792D02*
X0291450Y0135857D01*
X0291450Y0136824D02*
X0288548Y0136824D01*
X0289515Y0135857D01*
X0289031Y0134845D02*
X0288548Y0134362D01*
X0288548Y0133394D01*
X0289031Y0132910D01*
X0290966Y0132910D01*
X0291450Y0133394D01*
X0291450Y0134362D01*
X0290966Y0134845D01*
X0290271Y0124952D02*
X0290271Y0122050D01*
X0291238Y0122050D02*
X0289303Y0122050D01*
X0288292Y0122050D02*
X0286357Y0122050D01*
X0286357Y0124952D01*
X0289303Y0123985D02*
X0290271Y0124952D01*
X0286738Y0115452D02*
X0284803Y0115452D01*
X0283792Y0114969D02*
X0283308Y0115452D01*
X0281857Y0115452D01*
X0281857Y0112550D01*
X0283308Y0112550D01*
X0283792Y0113034D01*
X0283792Y0114969D01*
X0284803Y0113034D02*
X0284803Y0112550D01*
X0284803Y0113034D02*
X0286738Y0114969D01*
X0286738Y0115452D01*
X0287238Y0106452D02*
X0285303Y0106452D01*
X0285303Y0105001D01*
X0286271Y0105485D01*
X0286755Y0105485D01*
X0287238Y0105001D01*
X0287238Y0104034D01*
X0286755Y0103550D01*
X0285787Y0103550D01*
X0285303Y0104034D01*
X0284292Y0103550D02*
X0282357Y0103550D01*
X0283324Y0103550D02*
X0283324Y0106452D01*
X0282357Y0105485D01*
X0281345Y0105969D02*
X0280862Y0106452D01*
X0279894Y0106452D01*
X0279410Y0105969D01*
X0279410Y0104034D01*
X0279894Y0103550D01*
X0280862Y0103550D01*
X0281345Y0104034D01*
X0272725Y0118060D02*
X0270790Y0118060D01*
X0270307Y0118544D01*
X0270307Y0119511D01*
X0270790Y0119995D01*
X0271758Y0121007D02*
X0270307Y0122458D01*
X0273209Y0122458D01*
X0271758Y0122942D02*
X0271758Y0121007D01*
X0272725Y0119995D02*
X0273209Y0119511D01*
X0273209Y0118544D01*
X0272725Y0118060D01*
X0272725Y0123953D02*
X0273209Y0124437D01*
X0273209Y0125404D01*
X0272725Y0125888D01*
X0272242Y0125888D01*
X0271758Y0125404D01*
X0271758Y0124921D01*
X0271758Y0125404D02*
X0271274Y0125888D01*
X0270790Y0125888D01*
X0270307Y0125404D01*
X0270307Y0124437D01*
X0270790Y0123953D01*
X0298317Y0100821D02*
X0298317Y0097919D01*
X0298317Y0098886D02*
X0299768Y0098886D01*
X0300252Y0099370D01*
X0300252Y0100338D01*
X0299768Y0100821D01*
X0298317Y0100821D01*
X0299284Y0098886D02*
X0300252Y0097919D01*
X0301263Y0097919D02*
X0301263Y0100821D01*
X0302715Y0100821D01*
X0303198Y0100338D01*
X0303198Y0098403D01*
X0302715Y0097919D01*
X0301263Y0097919D01*
X0304210Y0097919D02*
X0306145Y0097919D01*
X0305177Y0097919D02*
X0305177Y0100821D01*
X0304210Y0099854D01*
X0314148Y0106803D02*
X0314148Y0108255D01*
X0314631Y0108738D01*
X0316566Y0108738D01*
X0317050Y0108255D01*
X0317050Y0106803D01*
X0314148Y0106803D01*
X0314631Y0109750D02*
X0315115Y0109750D01*
X0315599Y0110234D01*
X0315599Y0111201D01*
X0316083Y0111685D01*
X0316566Y0111685D01*
X0317050Y0111201D01*
X0317050Y0110234D01*
X0316566Y0109750D01*
X0316083Y0109750D01*
X0315599Y0110234D01*
X0315599Y0111201D02*
X0315115Y0111685D01*
X0314631Y0111685D01*
X0314148Y0111201D01*
X0314148Y0110234D01*
X0314631Y0109750D01*
X0321319Y0102738D02*
X0320835Y0102255D01*
X0320835Y0101287D01*
X0321319Y0100803D01*
X0321319Y0099792D02*
X0320835Y0099308D01*
X0320835Y0098341D01*
X0321319Y0097857D01*
X0321319Y0096845D02*
X0320835Y0096362D01*
X0320835Y0095394D01*
X0321319Y0094910D01*
X0323254Y0094910D01*
X0323738Y0095394D01*
X0323738Y0096362D01*
X0323254Y0096845D01*
X0323738Y0097857D02*
X0321803Y0099792D01*
X0321319Y0099792D01*
X0323738Y0099792D02*
X0323738Y0097857D01*
X0323738Y0100803D02*
X0321803Y0102738D01*
X0321319Y0102738D01*
X0323738Y0102738D02*
X0323738Y0100803D01*
X0330248Y0095771D02*
X0333150Y0095771D01*
X0333150Y0096738D02*
X0333150Y0094803D01*
X0333150Y0093792D02*
X0333150Y0091857D01*
X0333150Y0092824D02*
X0330248Y0092824D01*
X0331215Y0091857D01*
X0330731Y0090845D02*
X0331699Y0090845D01*
X0332183Y0090362D01*
X0332183Y0088910D01*
X0333150Y0088910D02*
X0330248Y0088910D01*
X0330248Y0090362D01*
X0330731Y0090845D01*
X0332183Y0089878D02*
X0333150Y0090845D01*
X0335748Y0090362D02*
X0335748Y0088910D01*
X0338650Y0088910D01*
X0337683Y0088910D02*
X0337683Y0090362D01*
X0337199Y0090845D01*
X0336231Y0090845D01*
X0335748Y0090362D01*
X0336715Y0091857D02*
X0335748Y0092824D01*
X0338650Y0092824D01*
X0338650Y0091857D02*
X0338650Y0093792D01*
X0338650Y0094803D02*
X0336715Y0096738D01*
X0336231Y0096738D01*
X0335748Y0096255D01*
X0335748Y0095287D01*
X0336231Y0094803D01*
X0338650Y0094803D02*
X0338650Y0096738D01*
X0343748Y0096255D02*
X0344231Y0096738D01*
X0346166Y0094803D01*
X0346650Y0095287D01*
X0346650Y0096255D01*
X0346166Y0096738D01*
X0344231Y0096738D01*
X0343748Y0096255D02*
X0343748Y0095287D01*
X0344231Y0094803D01*
X0346166Y0094803D01*
X0346650Y0093792D02*
X0346650Y0091857D01*
X0346650Y0092824D02*
X0343748Y0092824D01*
X0344715Y0091857D01*
X0344231Y0090845D02*
X0345199Y0090845D01*
X0345683Y0090362D01*
X0345683Y0088910D01*
X0346650Y0088910D02*
X0343748Y0088910D01*
X0343748Y0090362D01*
X0344231Y0090845D01*
X0345683Y0089878D02*
X0346650Y0090845D01*
X0349498Y0091857D02*
X0349498Y0093308D01*
X0349981Y0093792D01*
X0350949Y0093792D01*
X0351433Y0093308D01*
X0351433Y0091857D01*
X0352400Y0091857D02*
X0349498Y0091857D01*
X0351433Y0092824D02*
X0352400Y0093792D01*
X0351916Y0094803D02*
X0352400Y0095287D01*
X0352400Y0096255D01*
X0351916Y0096738D01*
X0349981Y0096738D01*
X0349498Y0096255D01*
X0349498Y0095287D01*
X0349981Y0094803D01*
X0350465Y0094803D01*
X0350949Y0095287D01*
X0350949Y0096738D01*
X0338650Y0090845D02*
X0337683Y0089878D01*
X0331215Y0094803D02*
X0330248Y0095771D01*
X0330531Y0116910D02*
X0332466Y0116910D01*
X0332950Y0117394D01*
X0332950Y0118362D01*
X0332466Y0118845D01*
X0332950Y0119857D02*
X0331015Y0121792D01*
X0330531Y0121792D01*
X0330048Y0121308D01*
X0330048Y0120341D01*
X0330531Y0119857D01*
X0330531Y0118845D02*
X0330048Y0118362D01*
X0330048Y0117394D01*
X0330531Y0116910D01*
X0332950Y0119857D02*
X0332950Y0121792D01*
X0332950Y0122803D02*
X0332950Y0124738D01*
X0332950Y0123771D02*
X0330048Y0123771D01*
X0331015Y0122803D01*
X0322578Y0122234D02*
X0322094Y0121750D01*
X0321127Y0121750D01*
X0320643Y0122234D01*
X0322578Y0124169D01*
X0322578Y0122234D01*
X0322578Y0124169D02*
X0322094Y0124652D01*
X0321127Y0124652D01*
X0320643Y0124169D01*
X0320643Y0122234D01*
X0319631Y0121750D02*
X0317697Y0121750D01*
X0319631Y0123685D01*
X0319631Y0124169D01*
X0319148Y0124652D01*
X0318180Y0124652D01*
X0317697Y0124169D01*
X0316685Y0124169D02*
X0316201Y0124652D01*
X0315234Y0124652D01*
X0314750Y0124169D01*
X0314750Y0122234D01*
X0315234Y0121750D01*
X0316201Y0121750D01*
X0316685Y0122234D01*
X0314643Y0129050D02*
X0314643Y0129534D01*
X0316578Y0131469D01*
X0316578Y0131952D01*
X0314643Y0131952D01*
X0312664Y0131952D02*
X0312664Y0129050D01*
X0311697Y0129050D02*
X0313631Y0129050D01*
X0311697Y0130985D02*
X0312664Y0131952D01*
X0310685Y0131469D02*
X0310201Y0131952D01*
X0309234Y0131952D01*
X0308750Y0131469D01*
X0308750Y0129534D01*
X0309234Y0129050D01*
X0310201Y0129050D01*
X0310685Y0129534D01*
X0318716Y0155500D02*
X0319683Y0155500D01*
X0320167Y0155984D01*
X0320167Y0158402D01*
X0321178Y0157435D02*
X0322146Y0158402D01*
X0322146Y0155500D01*
X0323113Y0155500D02*
X0321178Y0155500D01*
X0318716Y0155500D02*
X0318232Y0155984D01*
X0318232Y0158402D01*
X0313738Y0158534D02*
X0313738Y0159501D01*
X0313255Y0159985D01*
X0312771Y0159985D01*
X0311803Y0159501D01*
X0311803Y0160952D01*
X0313738Y0160952D01*
X0313738Y0158534D02*
X0313255Y0158050D01*
X0312287Y0158050D01*
X0311803Y0158534D01*
X0310792Y0158534D02*
X0310792Y0160469D01*
X0310308Y0160952D01*
X0308857Y0160952D01*
X0308857Y0158050D01*
X0310308Y0158050D01*
X0310792Y0158534D01*
X0307845Y0158050D02*
X0306878Y0159017D01*
X0307362Y0159017D02*
X0305910Y0159017D01*
X0305910Y0158050D02*
X0305910Y0160952D01*
X0307362Y0160952D01*
X0307845Y0160469D01*
X0307845Y0159501D01*
X0307362Y0159017D01*
X0325585Y0177109D02*
X0326069Y0176625D01*
X0328004Y0176625D01*
X0328488Y0177109D01*
X0328488Y0178076D01*
X0328004Y0178560D01*
X0328488Y0179572D02*
X0328488Y0181506D01*
X0328488Y0180539D02*
X0325585Y0180539D01*
X0326553Y0179572D01*
X0326069Y0178560D02*
X0325585Y0178076D01*
X0325585Y0177109D01*
X0326069Y0182518D02*
X0325585Y0183002D01*
X0325585Y0183969D01*
X0326069Y0184453D01*
X0326553Y0184453D01*
X0327036Y0183969D01*
X0327520Y0184453D01*
X0328004Y0184453D01*
X0328488Y0183969D01*
X0328488Y0183002D01*
X0328004Y0182518D01*
X0327036Y0183486D02*
X0327036Y0183969D01*
X0330580Y0187937D02*
X0330580Y0190840D01*
X0332031Y0190840D01*
X0332515Y0190356D01*
X0332515Y0189389D01*
X0332031Y0188905D01*
X0330580Y0188905D01*
X0331548Y0188905D02*
X0332515Y0187937D01*
X0333527Y0187937D02*
X0334978Y0187937D01*
X0335462Y0188421D01*
X0335462Y0190356D01*
X0334978Y0190840D01*
X0333527Y0190840D01*
X0333527Y0187937D01*
X0336473Y0188421D02*
X0336957Y0187937D01*
X0337924Y0187937D01*
X0338408Y0188421D01*
X0338408Y0188905D01*
X0337924Y0189389D01*
X0337441Y0189389D01*
X0337924Y0189389D02*
X0338408Y0189872D01*
X0338408Y0190356D01*
X0337924Y0190840D01*
X0336957Y0190840D01*
X0336473Y0190356D01*
X0335449Y0180152D02*
X0334482Y0179185D01*
X0333470Y0179669D02*
X0332987Y0180152D01*
X0332019Y0180152D01*
X0331535Y0179669D01*
X0331535Y0177734D01*
X0332019Y0177250D01*
X0332987Y0177250D01*
X0333470Y0177734D01*
X0334482Y0177250D02*
X0336417Y0177250D01*
X0335449Y0177250D02*
X0335449Y0180152D01*
X0337428Y0179669D02*
X0337428Y0179185D01*
X0337912Y0178701D01*
X0338880Y0178701D01*
X0339363Y0178217D01*
X0339363Y0177734D01*
X0338880Y0177250D01*
X0337912Y0177250D01*
X0337428Y0177734D01*
X0337428Y0178217D01*
X0337912Y0178701D01*
X0338880Y0178701D02*
X0339363Y0179185D01*
X0339363Y0179669D01*
X0338880Y0180152D01*
X0337912Y0180152D01*
X0337428Y0179669D01*
X0347148Y0178889D02*
X0347148Y0177921D01*
X0347631Y0177437D01*
X0349566Y0177437D01*
X0350050Y0177921D01*
X0350050Y0178889D01*
X0349566Y0179372D01*
X0350050Y0180384D02*
X0348115Y0182319D01*
X0347631Y0182319D01*
X0347148Y0181835D01*
X0347148Y0180868D01*
X0347631Y0180384D01*
X0347631Y0179372D02*
X0347148Y0178889D01*
X0350050Y0180384D02*
X0350050Y0182319D01*
X0349566Y0183331D02*
X0350050Y0183814D01*
X0350050Y0184782D01*
X0349566Y0185266D01*
X0349083Y0185266D01*
X0348599Y0184782D01*
X0348599Y0184298D01*
X0348599Y0184782D02*
X0348115Y0185266D01*
X0347631Y0185266D01*
X0347148Y0184782D01*
X0347148Y0183814D01*
X0347631Y0183331D01*
X0355148Y0183814D02*
X0355631Y0183331D01*
X0356115Y0183331D01*
X0356599Y0183814D01*
X0356599Y0185266D01*
X0357566Y0185266D02*
X0355631Y0185266D01*
X0355148Y0184782D01*
X0355148Y0183814D01*
X0355148Y0181352D02*
X0358050Y0181352D01*
X0358050Y0182319D02*
X0358050Y0180384D01*
X0357566Y0179372D02*
X0358050Y0178889D01*
X0358050Y0177921D01*
X0357566Y0177437D01*
X0355631Y0177437D01*
X0355148Y0177921D01*
X0355148Y0178889D01*
X0355631Y0179372D01*
X0356115Y0180384D02*
X0355148Y0181352D01*
X0357566Y0183331D02*
X0358050Y0183814D01*
X0358050Y0184782D01*
X0357566Y0185266D01*
X0362031Y0177738D02*
X0362515Y0177738D01*
X0362999Y0177255D01*
X0363483Y0177738D01*
X0363966Y0177738D01*
X0364450Y0177255D01*
X0364450Y0176287D01*
X0363966Y0175803D01*
X0364450Y0174792D02*
X0364450Y0172857D01*
X0362515Y0174792D01*
X0362031Y0174792D01*
X0361548Y0174308D01*
X0361548Y0173341D01*
X0362031Y0172857D01*
X0362031Y0171845D02*
X0362999Y0171845D01*
X0363483Y0171362D01*
X0363483Y0169910D01*
X0364450Y0169910D02*
X0361548Y0169910D01*
X0361548Y0171362D01*
X0362031Y0171845D01*
X0363483Y0170878D02*
X0364450Y0171845D01*
X0367235Y0171362D02*
X0367719Y0171845D01*
X0368686Y0171845D01*
X0369170Y0171362D01*
X0369170Y0169910D01*
X0370137Y0169910D02*
X0367235Y0169910D01*
X0367235Y0171362D01*
X0367719Y0172857D02*
X0367235Y0173341D01*
X0367235Y0174308D01*
X0367719Y0174792D01*
X0368203Y0174792D01*
X0370137Y0172857D01*
X0370137Y0174792D01*
X0370137Y0175803D02*
X0369654Y0175803D01*
X0367719Y0177738D01*
X0367235Y0177738D01*
X0367235Y0175803D01*
X0362999Y0176771D02*
X0362999Y0177255D01*
X0362031Y0177738D02*
X0361548Y0177255D01*
X0361548Y0176287D01*
X0362031Y0175803D01*
X0369170Y0170878D02*
X0370137Y0171845D01*
X0377734Y0163052D02*
X0377250Y0162569D01*
X0377250Y0160634D01*
X0377734Y0160150D01*
X0378701Y0160150D01*
X0379185Y0160634D01*
X0380197Y0160150D02*
X0382131Y0160150D01*
X0381164Y0160150D02*
X0381164Y0163052D01*
X0380197Y0162085D01*
X0379185Y0162569D02*
X0378701Y0163052D01*
X0377734Y0163052D01*
X0383143Y0162569D02*
X0383627Y0163052D01*
X0384594Y0163052D01*
X0385078Y0162569D01*
X0385078Y0162085D01*
X0383143Y0160150D01*
X0385078Y0160150D01*
X0381648Y0155052D02*
X0382131Y0154569D01*
X0382131Y0154085D01*
X0381648Y0153601D01*
X0380680Y0153601D01*
X0380197Y0154085D01*
X0380197Y0154569D01*
X0380680Y0155052D01*
X0381648Y0155052D01*
X0381648Y0153601D02*
X0382131Y0153117D01*
X0382131Y0152634D01*
X0381648Y0152150D01*
X0380680Y0152150D01*
X0380197Y0152634D01*
X0380197Y0153117D01*
X0380680Y0153601D01*
X0379185Y0152634D02*
X0378701Y0152150D01*
X0377734Y0152150D01*
X0377250Y0152634D01*
X0377250Y0154569D01*
X0377734Y0155052D01*
X0378701Y0155052D01*
X0379185Y0154569D01*
X0378701Y0147052D02*
X0377734Y0147052D01*
X0377250Y0146569D01*
X0377250Y0144634D01*
X0377734Y0144150D01*
X0378701Y0144150D01*
X0379185Y0144634D01*
X0380197Y0144634D02*
X0382131Y0146569D01*
X0382131Y0147052D01*
X0380197Y0147052D01*
X0379185Y0146569D02*
X0378701Y0147052D01*
X0380197Y0144634D02*
X0380197Y0144150D01*
X0382750Y0139052D02*
X0384201Y0139052D01*
X0384685Y0138569D01*
X0384685Y0136634D01*
X0384201Y0136150D01*
X0382750Y0136150D01*
X0382750Y0139052D01*
X0385697Y0137601D02*
X0387631Y0137601D01*
X0387148Y0136150D02*
X0387148Y0139052D01*
X0385697Y0137601D01*
X0390748Y0126131D02*
X0391231Y0125164D01*
X0392199Y0124197D01*
X0392199Y0125648D01*
X0392683Y0126131D01*
X0393166Y0126131D01*
X0393650Y0125648D01*
X0393650Y0124680D01*
X0393166Y0124197D01*
X0392199Y0124197D01*
X0393166Y0123185D02*
X0393650Y0122701D01*
X0393650Y0121734D01*
X0393166Y0121250D01*
X0391231Y0121250D01*
X0390748Y0121734D01*
X0390748Y0122701D01*
X0391231Y0123185D01*
X0384650Y0119238D02*
X0384650Y0117303D01*
X0382715Y0119238D01*
X0382231Y0119238D01*
X0381748Y0118755D01*
X0381748Y0117787D01*
X0382231Y0117303D01*
X0382231Y0116292D02*
X0381748Y0115808D01*
X0381748Y0114357D01*
X0384650Y0114357D01*
X0384650Y0115808D01*
X0384166Y0116292D01*
X0382231Y0116292D01*
X0382231Y0113345D02*
X0383199Y0113345D01*
X0383683Y0112862D01*
X0383683Y0111410D01*
X0384650Y0111410D02*
X0381748Y0111410D01*
X0381748Y0112862D01*
X0382231Y0113345D01*
X0383683Y0112378D02*
X0384650Y0113345D01*
X0374736Y0109302D02*
X0374736Y0106400D01*
X0375703Y0106400D02*
X0373768Y0106400D01*
X0372756Y0106400D02*
X0370822Y0106400D01*
X0371789Y0106400D02*
X0371789Y0109302D01*
X0370822Y0108335D01*
X0369810Y0108819D02*
X0369326Y0109302D01*
X0368359Y0109302D01*
X0367875Y0108819D01*
X0367875Y0106884D01*
X0368359Y0106400D01*
X0369326Y0106400D01*
X0369810Y0106884D01*
X0373768Y0108335D02*
X0374736Y0109302D01*
X0364487Y0110000D02*
X0364487Y0111451D01*
X0364004Y0111935D01*
X0362069Y0111935D01*
X0361585Y0111451D01*
X0361585Y0110000D01*
X0364487Y0110000D01*
X0364004Y0112947D02*
X0364487Y0113430D01*
X0364487Y0114398D01*
X0364004Y0114881D01*
X0363520Y0114881D01*
X0363036Y0114398D01*
X0363036Y0112947D01*
X0364004Y0112947D01*
X0363036Y0112947D02*
X0362069Y0113914D01*
X0361585Y0114881D01*
X0366234Y0119050D02*
X0367201Y0119050D01*
X0367685Y0119534D01*
X0368697Y0119534D02*
X0369180Y0119050D01*
X0370148Y0119050D01*
X0370631Y0119534D01*
X0370631Y0121469D01*
X0370148Y0121952D01*
X0369180Y0121952D01*
X0368697Y0121469D01*
X0368697Y0120985D01*
X0369180Y0120501D01*
X0370631Y0120501D01*
X0367685Y0121469D02*
X0367201Y0121952D01*
X0366234Y0121952D01*
X0365750Y0121469D01*
X0365750Y0119534D01*
X0366234Y0119050D01*
X0365755Y0126550D02*
X0364787Y0126550D01*
X0364303Y0127034D01*
X0363292Y0126550D02*
X0361357Y0126550D01*
X0361357Y0129452D01*
X0364303Y0128969D02*
X0364787Y0129452D01*
X0365755Y0129452D01*
X0366238Y0128969D01*
X0366238Y0128485D01*
X0365755Y0128001D01*
X0366238Y0127517D01*
X0366238Y0127034D01*
X0365755Y0126550D01*
X0365755Y0128001D02*
X0365271Y0128001D01*
X0345450Y0124255D02*
X0345450Y0123287D01*
X0344966Y0122803D01*
X0343031Y0124738D01*
X0344966Y0124738D01*
X0345450Y0124255D01*
X0344966Y0122803D02*
X0343031Y0122803D01*
X0342548Y0123287D01*
X0342548Y0124255D01*
X0343031Y0124738D01*
X0345450Y0121792D02*
X0345450Y0119857D01*
X0345450Y0120824D02*
X0342548Y0120824D01*
X0343515Y0119857D01*
X0343031Y0118845D02*
X0342548Y0118362D01*
X0342548Y0117394D01*
X0343031Y0116910D01*
X0344966Y0116910D01*
X0345450Y0117394D01*
X0345450Y0118362D01*
X0344966Y0118845D01*
X0374830Y0099015D02*
X0374830Y0096112D01*
X0374830Y0097080D02*
X0376281Y0097080D01*
X0376765Y0097564D01*
X0376765Y0098531D01*
X0376281Y0099015D01*
X0374830Y0099015D01*
X0375798Y0097080D02*
X0376765Y0096112D01*
X0377777Y0096112D02*
X0379228Y0096112D01*
X0379712Y0096596D01*
X0379712Y0098531D01*
X0379228Y0099015D01*
X0377777Y0099015D01*
X0377777Y0096112D01*
X0380723Y0097564D02*
X0382174Y0099015D01*
X0382174Y0096112D01*
X0382658Y0097564D02*
X0380723Y0097564D01*
X0380857Y0193550D02*
X0382792Y0193550D01*
X0383803Y0193550D02*
X0385738Y0195485D01*
X0385738Y0195969D01*
X0385255Y0196452D01*
X0384287Y0196452D01*
X0383803Y0195969D01*
X0383803Y0193550D02*
X0385738Y0193550D01*
X0380857Y0193550D02*
X0380857Y0196452D01*
X0392734Y0214250D02*
X0393701Y0214250D01*
X0394185Y0214734D01*
X0394185Y0217152D01*
X0395197Y0216669D02*
X0395680Y0217152D01*
X0396648Y0217152D01*
X0397131Y0216669D01*
X0397131Y0216185D01*
X0395197Y0214250D01*
X0397131Y0214250D01*
X0392734Y0214250D02*
X0392250Y0214734D01*
X0392250Y0217152D01*
X0392454Y0235687D02*
X0390519Y0235687D01*
X0391487Y0235687D02*
X0391487Y0238589D01*
X0390519Y0237622D01*
X0389508Y0238106D02*
X0389024Y0238589D01*
X0388057Y0238589D01*
X0387573Y0238106D01*
X0387573Y0236171D01*
X0388057Y0235687D01*
X0389024Y0235687D01*
X0389508Y0236171D01*
X0372013Y0220454D02*
X0372013Y0218519D01*
X0370078Y0220454D01*
X0369594Y0220454D01*
X0369111Y0219971D01*
X0369111Y0219003D01*
X0369594Y0218519D01*
X0369594Y0217508D02*
X0369111Y0217024D01*
X0369111Y0216057D01*
X0369594Y0215573D01*
X0371529Y0215573D01*
X0372013Y0216057D01*
X0372013Y0217024D01*
X0371529Y0217508D01*
X0363131Y0216669D02*
X0363131Y0216185D01*
X0362648Y0215701D01*
X0363131Y0215217D01*
X0363131Y0214734D01*
X0362648Y0214250D01*
X0361680Y0214250D01*
X0361197Y0214734D01*
X0360185Y0214734D02*
X0360185Y0217152D01*
X0361197Y0216669D02*
X0361680Y0217152D01*
X0362648Y0217152D01*
X0363131Y0216669D01*
X0362648Y0215701D02*
X0362164Y0215701D01*
X0360185Y0214734D02*
X0359701Y0214250D01*
X0358734Y0214250D01*
X0358250Y0214734D01*
X0358250Y0217152D01*
X0338013Y0217024D02*
X0337529Y0217508D01*
X0338013Y0217024D02*
X0338013Y0216057D01*
X0337529Y0215573D01*
X0335594Y0215573D01*
X0335111Y0216057D01*
X0335111Y0217024D01*
X0335594Y0217508D01*
X0336562Y0218519D02*
X0336562Y0220454D01*
X0338013Y0219971D02*
X0335111Y0219971D01*
X0336562Y0218519D01*
X0346857Y0196452D02*
X0346857Y0193550D01*
X0348792Y0193550D01*
X0349803Y0195001D02*
X0351738Y0195001D01*
X0351255Y0193550D02*
X0351255Y0196452D01*
X0349803Y0195001D01*
X0360094Y0239573D02*
X0359611Y0240057D01*
X0359611Y0241024D01*
X0360094Y0241508D01*
X0360094Y0242519D02*
X0359611Y0243003D01*
X0359611Y0243971D01*
X0360094Y0244454D01*
X0360578Y0244454D01*
X0361062Y0243971D01*
X0361546Y0244454D01*
X0362029Y0244454D01*
X0362513Y0243971D01*
X0362513Y0243003D01*
X0362029Y0242519D01*
X0362029Y0241508D02*
X0362513Y0241024D01*
X0362513Y0240057D01*
X0362029Y0239573D01*
X0360094Y0239573D01*
X0361062Y0243487D02*
X0361062Y0243971D01*
D13*
X0350448Y0152948D03*
D14*
X0351630Y0154130D02*
X0324070Y0154130D01*
X0324070Y0126570D01*
X0351630Y0126570D01*
X0351630Y0154130D01*
X0344324Y0076663D02*
X0381726Y0076663D01*
X0381726Y0064852D01*
X0344324Y0064852D01*
X0344324Y0076663D01*
X0361600Y0057600D02*
X0363600Y0059600D01*
X0365600Y0057600D01*
X0363600Y0059600D02*
X0363600Y0054600D01*
X0173600Y0178600D02*
X0173600Y0184600D01*
X0159600Y0184600D01*
X0159600Y0178600D01*
X0173600Y0178600D01*
D15*
X0144710Y0056600D02*
X0144712Y0056769D01*
X0144718Y0056938D01*
X0144729Y0057107D01*
X0144743Y0057275D01*
X0144762Y0057443D01*
X0144785Y0057611D01*
X0144811Y0057778D01*
X0144842Y0057944D01*
X0144877Y0058110D01*
X0144916Y0058274D01*
X0144960Y0058438D01*
X0145007Y0058600D01*
X0145058Y0058761D01*
X0145113Y0058921D01*
X0145172Y0059080D01*
X0145234Y0059237D01*
X0145301Y0059392D01*
X0145372Y0059546D01*
X0145446Y0059698D01*
X0145524Y0059848D01*
X0145605Y0059996D01*
X0145690Y0060142D01*
X0145779Y0060286D01*
X0145871Y0060428D01*
X0145967Y0060567D01*
X0146066Y0060704D01*
X0146168Y0060839D01*
X0146274Y0060971D01*
X0146383Y0061100D01*
X0146495Y0061227D01*
X0146610Y0061351D01*
X0146728Y0061472D01*
X0146849Y0061590D01*
X0146973Y0061705D01*
X0147100Y0061817D01*
X0147229Y0061926D01*
X0147361Y0062032D01*
X0147496Y0062134D01*
X0147633Y0062233D01*
X0147772Y0062329D01*
X0147914Y0062421D01*
X0148058Y0062510D01*
X0148204Y0062595D01*
X0148352Y0062676D01*
X0148502Y0062754D01*
X0148654Y0062828D01*
X0148808Y0062899D01*
X0148963Y0062966D01*
X0149120Y0063028D01*
X0149279Y0063087D01*
X0149439Y0063142D01*
X0149600Y0063193D01*
X0149762Y0063240D01*
X0149926Y0063284D01*
X0150090Y0063323D01*
X0150256Y0063358D01*
X0150422Y0063389D01*
X0150589Y0063415D01*
X0150757Y0063438D01*
X0150925Y0063457D01*
X0151093Y0063471D01*
X0151262Y0063482D01*
X0151431Y0063488D01*
X0151600Y0063490D01*
X0151769Y0063488D01*
X0151938Y0063482D01*
X0152107Y0063471D01*
X0152275Y0063457D01*
X0152443Y0063438D01*
X0152611Y0063415D01*
X0152778Y0063389D01*
X0152944Y0063358D01*
X0153110Y0063323D01*
X0153274Y0063284D01*
X0153438Y0063240D01*
X0153600Y0063193D01*
X0153761Y0063142D01*
X0153921Y0063087D01*
X0154080Y0063028D01*
X0154237Y0062966D01*
X0154392Y0062899D01*
X0154546Y0062828D01*
X0154698Y0062754D01*
X0154848Y0062676D01*
X0154996Y0062595D01*
X0155142Y0062510D01*
X0155286Y0062421D01*
X0155428Y0062329D01*
X0155567Y0062233D01*
X0155704Y0062134D01*
X0155839Y0062032D01*
X0155971Y0061926D01*
X0156100Y0061817D01*
X0156227Y0061705D01*
X0156351Y0061590D01*
X0156472Y0061472D01*
X0156590Y0061351D01*
X0156705Y0061227D01*
X0156817Y0061100D01*
X0156926Y0060971D01*
X0157032Y0060839D01*
X0157134Y0060704D01*
X0157233Y0060567D01*
X0157329Y0060428D01*
X0157421Y0060286D01*
X0157510Y0060142D01*
X0157595Y0059996D01*
X0157676Y0059848D01*
X0157754Y0059698D01*
X0157828Y0059546D01*
X0157899Y0059392D01*
X0157966Y0059237D01*
X0158028Y0059080D01*
X0158087Y0058921D01*
X0158142Y0058761D01*
X0158193Y0058600D01*
X0158240Y0058438D01*
X0158284Y0058274D01*
X0158323Y0058110D01*
X0158358Y0057944D01*
X0158389Y0057778D01*
X0158415Y0057611D01*
X0158438Y0057443D01*
X0158457Y0057275D01*
X0158471Y0057107D01*
X0158482Y0056938D01*
X0158488Y0056769D01*
X0158490Y0056600D01*
X0158488Y0056431D01*
X0158482Y0056262D01*
X0158471Y0056093D01*
X0158457Y0055925D01*
X0158438Y0055757D01*
X0158415Y0055589D01*
X0158389Y0055422D01*
X0158358Y0055256D01*
X0158323Y0055090D01*
X0158284Y0054926D01*
X0158240Y0054762D01*
X0158193Y0054600D01*
X0158142Y0054439D01*
X0158087Y0054279D01*
X0158028Y0054120D01*
X0157966Y0053963D01*
X0157899Y0053808D01*
X0157828Y0053654D01*
X0157754Y0053502D01*
X0157676Y0053352D01*
X0157595Y0053204D01*
X0157510Y0053058D01*
X0157421Y0052914D01*
X0157329Y0052772D01*
X0157233Y0052633D01*
X0157134Y0052496D01*
X0157032Y0052361D01*
X0156926Y0052229D01*
X0156817Y0052100D01*
X0156705Y0051973D01*
X0156590Y0051849D01*
X0156472Y0051728D01*
X0156351Y0051610D01*
X0156227Y0051495D01*
X0156100Y0051383D01*
X0155971Y0051274D01*
X0155839Y0051168D01*
X0155704Y0051066D01*
X0155567Y0050967D01*
X0155428Y0050871D01*
X0155286Y0050779D01*
X0155142Y0050690D01*
X0154996Y0050605D01*
X0154848Y0050524D01*
X0154698Y0050446D01*
X0154546Y0050372D01*
X0154392Y0050301D01*
X0154237Y0050234D01*
X0154080Y0050172D01*
X0153921Y0050113D01*
X0153761Y0050058D01*
X0153600Y0050007D01*
X0153438Y0049960D01*
X0153274Y0049916D01*
X0153110Y0049877D01*
X0152944Y0049842D01*
X0152778Y0049811D01*
X0152611Y0049785D01*
X0152443Y0049762D01*
X0152275Y0049743D01*
X0152107Y0049729D01*
X0151938Y0049718D01*
X0151769Y0049712D01*
X0151600Y0049710D01*
X0151431Y0049712D01*
X0151262Y0049718D01*
X0151093Y0049729D01*
X0150925Y0049743D01*
X0150757Y0049762D01*
X0150589Y0049785D01*
X0150422Y0049811D01*
X0150256Y0049842D01*
X0150090Y0049877D01*
X0149926Y0049916D01*
X0149762Y0049960D01*
X0149600Y0050007D01*
X0149439Y0050058D01*
X0149279Y0050113D01*
X0149120Y0050172D01*
X0148963Y0050234D01*
X0148808Y0050301D01*
X0148654Y0050372D01*
X0148502Y0050446D01*
X0148352Y0050524D01*
X0148204Y0050605D01*
X0148058Y0050690D01*
X0147914Y0050779D01*
X0147772Y0050871D01*
X0147633Y0050967D01*
X0147496Y0051066D01*
X0147361Y0051168D01*
X0147229Y0051274D01*
X0147100Y0051383D01*
X0146973Y0051495D01*
X0146849Y0051610D01*
X0146728Y0051728D01*
X0146610Y0051849D01*
X0146495Y0051973D01*
X0146383Y0052100D01*
X0146274Y0052229D01*
X0146168Y0052361D01*
X0146066Y0052496D01*
X0145967Y0052633D01*
X0145871Y0052772D01*
X0145779Y0052914D01*
X0145690Y0053058D01*
X0145605Y0053204D01*
X0145524Y0053352D01*
X0145446Y0053502D01*
X0145372Y0053654D01*
X0145301Y0053808D01*
X0145234Y0053963D01*
X0145172Y0054120D01*
X0145113Y0054279D01*
X0145058Y0054439D01*
X0145007Y0054600D01*
X0144960Y0054762D01*
X0144916Y0054926D01*
X0144877Y0055090D01*
X0144842Y0055256D01*
X0144811Y0055422D01*
X0144785Y0055589D01*
X0144762Y0055757D01*
X0144743Y0055925D01*
X0144729Y0056093D01*
X0144718Y0056262D01*
X0144712Y0056431D01*
X0144710Y0056600D01*
X0247033Y0108950D02*
X0247033Y0115643D01*
X0256482Y0122336D02*
X0266718Y0122336D01*
X0276167Y0115643D02*
X0276167Y0108557D01*
X0266718Y0101864D02*
X0256482Y0101864D01*
X0252151Y0205120D02*
X0252151Y0220080D01*
X0240427Y0218013D02*
X0240427Y0255612D01*
X0168773Y0255612D01*
X0168773Y0218013D01*
X0240427Y0218013D01*
X0268200Y0216100D02*
X0268202Y0216163D01*
X0268208Y0216225D01*
X0268218Y0216287D01*
X0268231Y0216349D01*
X0268249Y0216409D01*
X0268270Y0216468D01*
X0268295Y0216526D01*
X0268324Y0216582D01*
X0268356Y0216636D01*
X0268391Y0216688D01*
X0268429Y0216737D01*
X0268471Y0216785D01*
X0268515Y0216829D01*
X0268563Y0216871D01*
X0268612Y0216909D01*
X0268664Y0216944D01*
X0268718Y0216976D01*
X0268774Y0217005D01*
X0268832Y0217030D01*
X0268891Y0217051D01*
X0268951Y0217069D01*
X0269013Y0217082D01*
X0269075Y0217092D01*
X0269137Y0217098D01*
X0269200Y0217100D01*
X0269263Y0217098D01*
X0269325Y0217092D01*
X0269387Y0217082D01*
X0269449Y0217069D01*
X0269509Y0217051D01*
X0269568Y0217030D01*
X0269626Y0217005D01*
X0269682Y0216976D01*
X0269736Y0216944D01*
X0269788Y0216909D01*
X0269837Y0216871D01*
X0269885Y0216829D01*
X0269929Y0216785D01*
X0269971Y0216737D01*
X0270009Y0216688D01*
X0270044Y0216636D01*
X0270076Y0216582D01*
X0270105Y0216526D01*
X0270130Y0216468D01*
X0270151Y0216409D01*
X0270169Y0216349D01*
X0270182Y0216287D01*
X0270192Y0216225D01*
X0270198Y0216163D01*
X0270200Y0216100D01*
X0270198Y0216037D01*
X0270192Y0215975D01*
X0270182Y0215913D01*
X0270169Y0215851D01*
X0270151Y0215791D01*
X0270130Y0215732D01*
X0270105Y0215674D01*
X0270076Y0215618D01*
X0270044Y0215564D01*
X0270009Y0215512D01*
X0269971Y0215463D01*
X0269929Y0215415D01*
X0269885Y0215371D01*
X0269837Y0215329D01*
X0269788Y0215291D01*
X0269736Y0215256D01*
X0269682Y0215224D01*
X0269626Y0215195D01*
X0269568Y0215170D01*
X0269509Y0215149D01*
X0269449Y0215131D01*
X0269387Y0215118D01*
X0269325Y0215108D01*
X0269263Y0215102D01*
X0269200Y0215100D01*
X0269137Y0215102D01*
X0269075Y0215108D01*
X0269013Y0215118D01*
X0268951Y0215131D01*
X0268891Y0215149D01*
X0268832Y0215170D01*
X0268774Y0215195D01*
X0268718Y0215224D01*
X0268664Y0215256D01*
X0268612Y0215291D01*
X0268563Y0215329D01*
X0268515Y0215371D01*
X0268471Y0215415D01*
X0268429Y0215463D01*
X0268391Y0215512D01*
X0268356Y0215564D01*
X0268324Y0215618D01*
X0268295Y0215674D01*
X0268270Y0215732D01*
X0268249Y0215791D01*
X0268231Y0215851D01*
X0268218Y0215913D01*
X0268208Y0215975D01*
X0268202Y0216037D01*
X0268200Y0216100D01*
X0271049Y0220080D02*
X0271049Y0205120D01*
X0235210Y0252167D02*
X0235212Y0252248D01*
X0235218Y0252330D01*
X0235228Y0252411D01*
X0235242Y0252491D01*
X0235259Y0252570D01*
X0235281Y0252649D01*
X0235306Y0252726D01*
X0235335Y0252803D01*
X0235368Y0252877D01*
X0235405Y0252950D01*
X0235444Y0253021D01*
X0235488Y0253090D01*
X0235534Y0253157D01*
X0235584Y0253221D01*
X0235637Y0253283D01*
X0235693Y0253343D01*
X0235751Y0253399D01*
X0235813Y0253453D01*
X0235877Y0253504D01*
X0235943Y0253551D01*
X0236011Y0253595D01*
X0236082Y0253636D01*
X0236154Y0253673D01*
X0236229Y0253707D01*
X0236304Y0253737D01*
X0236382Y0253763D01*
X0236460Y0253786D01*
X0236539Y0253804D01*
X0236619Y0253819D01*
X0236700Y0253830D01*
X0236781Y0253837D01*
X0236863Y0253840D01*
X0236944Y0253839D01*
X0237025Y0253834D01*
X0237106Y0253825D01*
X0237187Y0253812D01*
X0237267Y0253795D01*
X0237345Y0253775D01*
X0237423Y0253750D01*
X0237500Y0253722D01*
X0237575Y0253690D01*
X0237648Y0253655D01*
X0237719Y0253616D01*
X0237789Y0253573D01*
X0237856Y0253528D01*
X0237922Y0253479D01*
X0237984Y0253427D01*
X0238044Y0253371D01*
X0238101Y0253313D01*
X0238156Y0253253D01*
X0238207Y0253189D01*
X0238255Y0253124D01*
X0238300Y0253056D01*
X0238342Y0252986D01*
X0238380Y0252914D01*
X0238415Y0252840D01*
X0238446Y0252765D01*
X0238473Y0252688D01*
X0238496Y0252610D01*
X0238516Y0252531D01*
X0238532Y0252451D01*
X0238544Y0252370D01*
X0238552Y0252289D01*
X0238556Y0252208D01*
X0238556Y0252126D01*
X0238552Y0252045D01*
X0238544Y0251964D01*
X0238532Y0251883D01*
X0238516Y0251803D01*
X0238496Y0251724D01*
X0238473Y0251646D01*
X0238446Y0251569D01*
X0238415Y0251494D01*
X0238380Y0251420D01*
X0238342Y0251348D01*
X0238300Y0251278D01*
X0238255Y0251210D01*
X0238207Y0251145D01*
X0238156Y0251081D01*
X0238101Y0251021D01*
X0238044Y0250963D01*
X0237984Y0250907D01*
X0237922Y0250855D01*
X0237856Y0250806D01*
X0237789Y0250761D01*
X0237720Y0250718D01*
X0237648Y0250679D01*
X0237575Y0250644D01*
X0237500Y0250612D01*
X0237423Y0250584D01*
X0237345Y0250559D01*
X0237267Y0250539D01*
X0237187Y0250522D01*
X0237106Y0250509D01*
X0237025Y0250500D01*
X0236944Y0250495D01*
X0236863Y0250494D01*
X0236781Y0250497D01*
X0236700Y0250504D01*
X0236619Y0250515D01*
X0236539Y0250530D01*
X0236460Y0250548D01*
X0236382Y0250571D01*
X0236304Y0250597D01*
X0236229Y0250627D01*
X0236154Y0250661D01*
X0236082Y0250698D01*
X0236011Y0250739D01*
X0235943Y0250783D01*
X0235877Y0250830D01*
X0235813Y0250881D01*
X0235751Y0250935D01*
X0235693Y0250991D01*
X0235637Y0251051D01*
X0235584Y0251113D01*
X0235534Y0251177D01*
X0235488Y0251244D01*
X0235444Y0251313D01*
X0235405Y0251384D01*
X0235368Y0251457D01*
X0235335Y0251531D01*
X0235306Y0251608D01*
X0235281Y0251685D01*
X0235259Y0251764D01*
X0235242Y0251843D01*
X0235228Y0251923D01*
X0235218Y0252004D01*
X0235212Y0252086D01*
X0235210Y0252167D01*
X0240427Y0255612D02*
X0240427Y0257187D01*
X0168773Y0257187D01*
X0168773Y0255612D01*
X0144710Y0266600D02*
X0144712Y0266769D01*
X0144718Y0266938D01*
X0144729Y0267107D01*
X0144743Y0267275D01*
X0144762Y0267443D01*
X0144785Y0267611D01*
X0144811Y0267778D01*
X0144842Y0267944D01*
X0144877Y0268110D01*
X0144916Y0268274D01*
X0144960Y0268438D01*
X0145007Y0268600D01*
X0145058Y0268761D01*
X0145113Y0268921D01*
X0145172Y0269080D01*
X0145234Y0269237D01*
X0145301Y0269392D01*
X0145372Y0269546D01*
X0145446Y0269698D01*
X0145524Y0269848D01*
X0145605Y0269996D01*
X0145690Y0270142D01*
X0145779Y0270286D01*
X0145871Y0270428D01*
X0145967Y0270567D01*
X0146066Y0270704D01*
X0146168Y0270839D01*
X0146274Y0270971D01*
X0146383Y0271100D01*
X0146495Y0271227D01*
X0146610Y0271351D01*
X0146728Y0271472D01*
X0146849Y0271590D01*
X0146973Y0271705D01*
X0147100Y0271817D01*
X0147229Y0271926D01*
X0147361Y0272032D01*
X0147496Y0272134D01*
X0147633Y0272233D01*
X0147772Y0272329D01*
X0147914Y0272421D01*
X0148058Y0272510D01*
X0148204Y0272595D01*
X0148352Y0272676D01*
X0148502Y0272754D01*
X0148654Y0272828D01*
X0148808Y0272899D01*
X0148963Y0272966D01*
X0149120Y0273028D01*
X0149279Y0273087D01*
X0149439Y0273142D01*
X0149600Y0273193D01*
X0149762Y0273240D01*
X0149926Y0273284D01*
X0150090Y0273323D01*
X0150256Y0273358D01*
X0150422Y0273389D01*
X0150589Y0273415D01*
X0150757Y0273438D01*
X0150925Y0273457D01*
X0151093Y0273471D01*
X0151262Y0273482D01*
X0151431Y0273488D01*
X0151600Y0273490D01*
X0151769Y0273488D01*
X0151938Y0273482D01*
X0152107Y0273471D01*
X0152275Y0273457D01*
X0152443Y0273438D01*
X0152611Y0273415D01*
X0152778Y0273389D01*
X0152944Y0273358D01*
X0153110Y0273323D01*
X0153274Y0273284D01*
X0153438Y0273240D01*
X0153600Y0273193D01*
X0153761Y0273142D01*
X0153921Y0273087D01*
X0154080Y0273028D01*
X0154237Y0272966D01*
X0154392Y0272899D01*
X0154546Y0272828D01*
X0154698Y0272754D01*
X0154848Y0272676D01*
X0154996Y0272595D01*
X0155142Y0272510D01*
X0155286Y0272421D01*
X0155428Y0272329D01*
X0155567Y0272233D01*
X0155704Y0272134D01*
X0155839Y0272032D01*
X0155971Y0271926D01*
X0156100Y0271817D01*
X0156227Y0271705D01*
X0156351Y0271590D01*
X0156472Y0271472D01*
X0156590Y0271351D01*
X0156705Y0271227D01*
X0156817Y0271100D01*
X0156926Y0270971D01*
X0157032Y0270839D01*
X0157134Y0270704D01*
X0157233Y0270567D01*
X0157329Y0270428D01*
X0157421Y0270286D01*
X0157510Y0270142D01*
X0157595Y0269996D01*
X0157676Y0269848D01*
X0157754Y0269698D01*
X0157828Y0269546D01*
X0157899Y0269392D01*
X0157966Y0269237D01*
X0158028Y0269080D01*
X0158087Y0268921D01*
X0158142Y0268761D01*
X0158193Y0268600D01*
X0158240Y0268438D01*
X0158284Y0268274D01*
X0158323Y0268110D01*
X0158358Y0267944D01*
X0158389Y0267778D01*
X0158415Y0267611D01*
X0158438Y0267443D01*
X0158457Y0267275D01*
X0158471Y0267107D01*
X0158482Y0266938D01*
X0158488Y0266769D01*
X0158490Y0266600D01*
X0158488Y0266431D01*
X0158482Y0266262D01*
X0158471Y0266093D01*
X0158457Y0265925D01*
X0158438Y0265757D01*
X0158415Y0265589D01*
X0158389Y0265422D01*
X0158358Y0265256D01*
X0158323Y0265090D01*
X0158284Y0264926D01*
X0158240Y0264762D01*
X0158193Y0264600D01*
X0158142Y0264439D01*
X0158087Y0264279D01*
X0158028Y0264120D01*
X0157966Y0263963D01*
X0157899Y0263808D01*
X0157828Y0263654D01*
X0157754Y0263502D01*
X0157676Y0263352D01*
X0157595Y0263204D01*
X0157510Y0263058D01*
X0157421Y0262914D01*
X0157329Y0262772D01*
X0157233Y0262633D01*
X0157134Y0262496D01*
X0157032Y0262361D01*
X0156926Y0262229D01*
X0156817Y0262100D01*
X0156705Y0261973D01*
X0156590Y0261849D01*
X0156472Y0261728D01*
X0156351Y0261610D01*
X0156227Y0261495D01*
X0156100Y0261383D01*
X0155971Y0261274D01*
X0155839Y0261168D01*
X0155704Y0261066D01*
X0155567Y0260967D01*
X0155428Y0260871D01*
X0155286Y0260779D01*
X0155142Y0260690D01*
X0154996Y0260605D01*
X0154848Y0260524D01*
X0154698Y0260446D01*
X0154546Y0260372D01*
X0154392Y0260301D01*
X0154237Y0260234D01*
X0154080Y0260172D01*
X0153921Y0260113D01*
X0153761Y0260058D01*
X0153600Y0260007D01*
X0153438Y0259960D01*
X0153274Y0259916D01*
X0153110Y0259877D01*
X0152944Y0259842D01*
X0152778Y0259811D01*
X0152611Y0259785D01*
X0152443Y0259762D01*
X0152275Y0259743D01*
X0152107Y0259729D01*
X0151938Y0259718D01*
X0151769Y0259712D01*
X0151600Y0259710D01*
X0151431Y0259712D01*
X0151262Y0259718D01*
X0151093Y0259729D01*
X0150925Y0259743D01*
X0150757Y0259762D01*
X0150589Y0259785D01*
X0150422Y0259811D01*
X0150256Y0259842D01*
X0150090Y0259877D01*
X0149926Y0259916D01*
X0149762Y0259960D01*
X0149600Y0260007D01*
X0149439Y0260058D01*
X0149279Y0260113D01*
X0149120Y0260172D01*
X0148963Y0260234D01*
X0148808Y0260301D01*
X0148654Y0260372D01*
X0148502Y0260446D01*
X0148352Y0260524D01*
X0148204Y0260605D01*
X0148058Y0260690D01*
X0147914Y0260779D01*
X0147772Y0260871D01*
X0147633Y0260967D01*
X0147496Y0261066D01*
X0147361Y0261168D01*
X0147229Y0261274D01*
X0147100Y0261383D01*
X0146973Y0261495D01*
X0146849Y0261610D01*
X0146728Y0261728D01*
X0146610Y0261849D01*
X0146495Y0261973D01*
X0146383Y0262100D01*
X0146274Y0262229D01*
X0146168Y0262361D01*
X0146066Y0262496D01*
X0145967Y0262633D01*
X0145871Y0262772D01*
X0145779Y0262914D01*
X0145690Y0263058D01*
X0145605Y0263204D01*
X0145524Y0263352D01*
X0145446Y0263502D01*
X0145372Y0263654D01*
X0145301Y0263808D01*
X0145234Y0263963D01*
X0145172Y0264120D01*
X0145113Y0264279D01*
X0145058Y0264439D01*
X0145007Y0264600D01*
X0144960Y0264762D01*
X0144916Y0264926D01*
X0144877Y0265090D01*
X0144842Y0265256D01*
X0144811Y0265422D01*
X0144785Y0265589D01*
X0144762Y0265757D01*
X0144743Y0265925D01*
X0144729Y0266093D01*
X0144718Y0266262D01*
X0144712Y0266431D01*
X0144710Y0266600D01*
X0345000Y0217291D02*
X0345000Y0213909D01*
X0349543Y0212409D02*
X0351657Y0212409D01*
X0356200Y0213909D02*
X0356200Y0217291D01*
X0379000Y0217291D02*
X0379000Y0213909D01*
X0383543Y0212409D02*
X0385657Y0212409D01*
X0390200Y0213909D02*
X0390200Y0217291D01*
X0384710Y0266600D02*
X0384712Y0266769D01*
X0384718Y0266938D01*
X0384729Y0267107D01*
X0384743Y0267275D01*
X0384762Y0267443D01*
X0384785Y0267611D01*
X0384811Y0267778D01*
X0384842Y0267944D01*
X0384877Y0268110D01*
X0384916Y0268274D01*
X0384960Y0268438D01*
X0385007Y0268600D01*
X0385058Y0268761D01*
X0385113Y0268921D01*
X0385172Y0269080D01*
X0385234Y0269237D01*
X0385301Y0269392D01*
X0385372Y0269546D01*
X0385446Y0269698D01*
X0385524Y0269848D01*
X0385605Y0269996D01*
X0385690Y0270142D01*
X0385779Y0270286D01*
X0385871Y0270428D01*
X0385967Y0270567D01*
X0386066Y0270704D01*
X0386168Y0270839D01*
X0386274Y0270971D01*
X0386383Y0271100D01*
X0386495Y0271227D01*
X0386610Y0271351D01*
X0386728Y0271472D01*
X0386849Y0271590D01*
X0386973Y0271705D01*
X0387100Y0271817D01*
X0387229Y0271926D01*
X0387361Y0272032D01*
X0387496Y0272134D01*
X0387633Y0272233D01*
X0387772Y0272329D01*
X0387914Y0272421D01*
X0388058Y0272510D01*
X0388204Y0272595D01*
X0388352Y0272676D01*
X0388502Y0272754D01*
X0388654Y0272828D01*
X0388808Y0272899D01*
X0388963Y0272966D01*
X0389120Y0273028D01*
X0389279Y0273087D01*
X0389439Y0273142D01*
X0389600Y0273193D01*
X0389762Y0273240D01*
X0389926Y0273284D01*
X0390090Y0273323D01*
X0390256Y0273358D01*
X0390422Y0273389D01*
X0390589Y0273415D01*
X0390757Y0273438D01*
X0390925Y0273457D01*
X0391093Y0273471D01*
X0391262Y0273482D01*
X0391431Y0273488D01*
X0391600Y0273490D01*
X0391769Y0273488D01*
X0391938Y0273482D01*
X0392107Y0273471D01*
X0392275Y0273457D01*
X0392443Y0273438D01*
X0392611Y0273415D01*
X0392778Y0273389D01*
X0392944Y0273358D01*
X0393110Y0273323D01*
X0393274Y0273284D01*
X0393438Y0273240D01*
X0393600Y0273193D01*
X0393761Y0273142D01*
X0393921Y0273087D01*
X0394080Y0273028D01*
X0394237Y0272966D01*
X0394392Y0272899D01*
X0394546Y0272828D01*
X0394698Y0272754D01*
X0394848Y0272676D01*
X0394996Y0272595D01*
X0395142Y0272510D01*
X0395286Y0272421D01*
X0395428Y0272329D01*
X0395567Y0272233D01*
X0395704Y0272134D01*
X0395839Y0272032D01*
X0395971Y0271926D01*
X0396100Y0271817D01*
X0396227Y0271705D01*
X0396351Y0271590D01*
X0396472Y0271472D01*
X0396590Y0271351D01*
X0396705Y0271227D01*
X0396817Y0271100D01*
X0396926Y0270971D01*
X0397032Y0270839D01*
X0397134Y0270704D01*
X0397233Y0270567D01*
X0397329Y0270428D01*
X0397421Y0270286D01*
X0397510Y0270142D01*
X0397595Y0269996D01*
X0397676Y0269848D01*
X0397754Y0269698D01*
X0397828Y0269546D01*
X0397899Y0269392D01*
X0397966Y0269237D01*
X0398028Y0269080D01*
X0398087Y0268921D01*
X0398142Y0268761D01*
X0398193Y0268600D01*
X0398240Y0268438D01*
X0398284Y0268274D01*
X0398323Y0268110D01*
X0398358Y0267944D01*
X0398389Y0267778D01*
X0398415Y0267611D01*
X0398438Y0267443D01*
X0398457Y0267275D01*
X0398471Y0267107D01*
X0398482Y0266938D01*
X0398488Y0266769D01*
X0398490Y0266600D01*
X0398488Y0266431D01*
X0398482Y0266262D01*
X0398471Y0266093D01*
X0398457Y0265925D01*
X0398438Y0265757D01*
X0398415Y0265589D01*
X0398389Y0265422D01*
X0398358Y0265256D01*
X0398323Y0265090D01*
X0398284Y0264926D01*
X0398240Y0264762D01*
X0398193Y0264600D01*
X0398142Y0264439D01*
X0398087Y0264279D01*
X0398028Y0264120D01*
X0397966Y0263963D01*
X0397899Y0263808D01*
X0397828Y0263654D01*
X0397754Y0263502D01*
X0397676Y0263352D01*
X0397595Y0263204D01*
X0397510Y0263058D01*
X0397421Y0262914D01*
X0397329Y0262772D01*
X0397233Y0262633D01*
X0397134Y0262496D01*
X0397032Y0262361D01*
X0396926Y0262229D01*
X0396817Y0262100D01*
X0396705Y0261973D01*
X0396590Y0261849D01*
X0396472Y0261728D01*
X0396351Y0261610D01*
X0396227Y0261495D01*
X0396100Y0261383D01*
X0395971Y0261274D01*
X0395839Y0261168D01*
X0395704Y0261066D01*
X0395567Y0260967D01*
X0395428Y0260871D01*
X0395286Y0260779D01*
X0395142Y0260690D01*
X0394996Y0260605D01*
X0394848Y0260524D01*
X0394698Y0260446D01*
X0394546Y0260372D01*
X0394392Y0260301D01*
X0394237Y0260234D01*
X0394080Y0260172D01*
X0393921Y0260113D01*
X0393761Y0260058D01*
X0393600Y0260007D01*
X0393438Y0259960D01*
X0393274Y0259916D01*
X0393110Y0259877D01*
X0392944Y0259842D01*
X0392778Y0259811D01*
X0392611Y0259785D01*
X0392443Y0259762D01*
X0392275Y0259743D01*
X0392107Y0259729D01*
X0391938Y0259718D01*
X0391769Y0259712D01*
X0391600Y0259710D01*
X0391431Y0259712D01*
X0391262Y0259718D01*
X0391093Y0259729D01*
X0390925Y0259743D01*
X0390757Y0259762D01*
X0390589Y0259785D01*
X0390422Y0259811D01*
X0390256Y0259842D01*
X0390090Y0259877D01*
X0389926Y0259916D01*
X0389762Y0259960D01*
X0389600Y0260007D01*
X0389439Y0260058D01*
X0389279Y0260113D01*
X0389120Y0260172D01*
X0388963Y0260234D01*
X0388808Y0260301D01*
X0388654Y0260372D01*
X0388502Y0260446D01*
X0388352Y0260524D01*
X0388204Y0260605D01*
X0388058Y0260690D01*
X0387914Y0260779D01*
X0387772Y0260871D01*
X0387633Y0260967D01*
X0387496Y0261066D01*
X0387361Y0261168D01*
X0387229Y0261274D01*
X0387100Y0261383D01*
X0386973Y0261495D01*
X0386849Y0261610D01*
X0386728Y0261728D01*
X0386610Y0261849D01*
X0386495Y0261973D01*
X0386383Y0262100D01*
X0386274Y0262229D01*
X0386168Y0262361D01*
X0386066Y0262496D01*
X0385967Y0262633D01*
X0385871Y0262772D01*
X0385779Y0262914D01*
X0385690Y0263058D01*
X0385605Y0263204D01*
X0385524Y0263352D01*
X0385446Y0263502D01*
X0385372Y0263654D01*
X0385301Y0263808D01*
X0385234Y0263963D01*
X0385172Y0264120D01*
X0385113Y0264279D01*
X0385058Y0264439D01*
X0385007Y0264600D01*
X0384960Y0264762D01*
X0384916Y0264926D01*
X0384877Y0265090D01*
X0384842Y0265256D01*
X0384811Y0265422D01*
X0384785Y0265589D01*
X0384762Y0265757D01*
X0384743Y0265925D01*
X0384729Y0266093D01*
X0384718Y0266262D01*
X0384712Y0266431D01*
X0384710Y0266600D01*
X0384710Y0056600D02*
X0384712Y0056769D01*
X0384718Y0056938D01*
X0384729Y0057107D01*
X0384743Y0057275D01*
X0384762Y0057443D01*
X0384785Y0057611D01*
X0384811Y0057778D01*
X0384842Y0057944D01*
X0384877Y0058110D01*
X0384916Y0058274D01*
X0384960Y0058438D01*
X0385007Y0058600D01*
X0385058Y0058761D01*
X0385113Y0058921D01*
X0385172Y0059080D01*
X0385234Y0059237D01*
X0385301Y0059392D01*
X0385372Y0059546D01*
X0385446Y0059698D01*
X0385524Y0059848D01*
X0385605Y0059996D01*
X0385690Y0060142D01*
X0385779Y0060286D01*
X0385871Y0060428D01*
X0385967Y0060567D01*
X0386066Y0060704D01*
X0386168Y0060839D01*
X0386274Y0060971D01*
X0386383Y0061100D01*
X0386495Y0061227D01*
X0386610Y0061351D01*
X0386728Y0061472D01*
X0386849Y0061590D01*
X0386973Y0061705D01*
X0387100Y0061817D01*
X0387229Y0061926D01*
X0387361Y0062032D01*
X0387496Y0062134D01*
X0387633Y0062233D01*
X0387772Y0062329D01*
X0387914Y0062421D01*
X0388058Y0062510D01*
X0388204Y0062595D01*
X0388352Y0062676D01*
X0388502Y0062754D01*
X0388654Y0062828D01*
X0388808Y0062899D01*
X0388963Y0062966D01*
X0389120Y0063028D01*
X0389279Y0063087D01*
X0389439Y0063142D01*
X0389600Y0063193D01*
X0389762Y0063240D01*
X0389926Y0063284D01*
X0390090Y0063323D01*
X0390256Y0063358D01*
X0390422Y0063389D01*
X0390589Y0063415D01*
X0390757Y0063438D01*
X0390925Y0063457D01*
X0391093Y0063471D01*
X0391262Y0063482D01*
X0391431Y0063488D01*
X0391600Y0063490D01*
X0391769Y0063488D01*
X0391938Y0063482D01*
X0392107Y0063471D01*
X0392275Y0063457D01*
X0392443Y0063438D01*
X0392611Y0063415D01*
X0392778Y0063389D01*
X0392944Y0063358D01*
X0393110Y0063323D01*
X0393274Y0063284D01*
X0393438Y0063240D01*
X0393600Y0063193D01*
X0393761Y0063142D01*
X0393921Y0063087D01*
X0394080Y0063028D01*
X0394237Y0062966D01*
X0394392Y0062899D01*
X0394546Y0062828D01*
X0394698Y0062754D01*
X0394848Y0062676D01*
X0394996Y0062595D01*
X0395142Y0062510D01*
X0395286Y0062421D01*
X0395428Y0062329D01*
X0395567Y0062233D01*
X0395704Y0062134D01*
X0395839Y0062032D01*
X0395971Y0061926D01*
X0396100Y0061817D01*
X0396227Y0061705D01*
X0396351Y0061590D01*
X0396472Y0061472D01*
X0396590Y0061351D01*
X0396705Y0061227D01*
X0396817Y0061100D01*
X0396926Y0060971D01*
X0397032Y0060839D01*
X0397134Y0060704D01*
X0397233Y0060567D01*
X0397329Y0060428D01*
X0397421Y0060286D01*
X0397510Y0060142D01*
X0397595Y0059996D01*
X0397676Y0059848D01*
X0397754Y0059698D01*
X0397828Y0059546D01*
X0397899Y0059392D01*
X0397966Y0059237D01*
X0398028Y0059080D01*
X0398087Y0058921D01*
X0398142Y0058761D01*
X0398193Y0058600D01*
X0398240Y0058438D01*
X0398284Y0058274D01*
X0398323Y0058110D01*
X0398358Y0057944D01*
X0398389Y0057778D01*
X0398415Y0057611D01*
X0398438Y0057443D01*
X0398457Y0057275D01*
X0398471Y0057107D01*
X0398482Y0056938D01*
X0398488Y0056769D01*
X0398490Y0056600D01*
X0398488Y0056431D01*
X0398482Y0056262D01*
X0398471Y0056093D01*
X0398457Y0055925D01*
X0398438Y0055757D01*
X0398415Y0055589D01*
X0398389Y0055422D01*
X0398358Y0055256D01*
X0398323Y0055090D01*
X0398284Y0054926D01*
X0398240Y0054762D01*
X0398193Y0054600D01*
X0398142Y0054439D01*
X0398087Y0054279D01*
X0398028Y0054120D01*
X0397966Y0053963D01*
X0397899Y0053808D01*
X0397828Y0053654D01*
X0397754Y0053502D01*
X0397676Y0053352D01*
X0397595Y0053204D01*
X0397510Y0053058D01*
X0397421Y0052914D01*
X0397329Y0052772D01*
X0397233Y0052633D01*
X0397134Y0052496D01*
X0397032Y0052361D01*
X0396926Y0052229D01*
X0396817Y0052100D01*
X0396705Y0051973D01*
X0396590Y0051849D01*
X0396472Y0051728D01*
X0396351Y0051610D01*
X0396227Y0051495D01*
X0396100Y0051383D01*
X0395971Y0051274D01*
X0395839Y0051168D01*
X0395704Y0051066D01*
X0395567Y0050967D01*
X0395428Y0050871D01*
X0395286Y0050779D01*
X0395142Y0050690D01*
X0394996Y0050605D01*
X0394848Y0050524D01*
X0394698Y0050446D01*
X0394546Y0050372D01*
X0394392Y0050301D01*
X0394237Y0050234D01*
X0394080Y0050172D01*
X0393921Y0050113D01*
X0393761Y0050058D01*
X0393600Y0050007D01*
X0393438Y0049960D01*
X0393274Y0049916D01*
X0393110Y0049877D01*
X0392944Y0049842D01*
X0392778Y0049811D01*
X0392611Y0049785D01*
X0392443Y0049762D01*
X0392275Y0049743D01*
X0392107Y0049729D01*
X0391938Y0049718D01*
X0391769Y0049712D01*
X0391600Y0049710D01*
X0391431Y0049712D01*
X0391262Y0049718D01*
X0391093Y0049729D01*
X0390925Y0049743D01*
X0390757Y0049762D01*
X0390589Y0049785D01*
X0390422Y0049811D01*
X0390256Y0049842D01*
X0390090Y0049877D01*
X0389926Y0049916D01*
X0389762Y0049960D01*
X0389600Y0050007D01*
X0389439Y0050058D01*
X0389279Y0050113D01*
X0389120Y0050172D01*
X0388963Y0050234D01*
X0388808Y0050301D01*
X0388654Y0050372D01*
X0388502Y0050446D01*
X0388352Y0050524D01*
X0388204Y0050605D01*
X0388058Y0050690D01*
X0387914Y0050779D01*
X0387772Y0050871D01*
X0387633Y0050967D01*
X0387496Y0051066D01*
X0387361Y0051168D01*
X0387229Y0051274D01*
X0387100Y0051383D01*
X0386973Y0051495D01*
X0386849Y0051610D01*
X0386728Y0051728D01*
X0386610Y0051849D01*
X0386495Y0051973D01*
X0386383Y0052100D01*
X0386274Y0052229D01*
X0386168Y0052361D01*
X0386066Y0052496D01*
X0385967Y0052633D01*
X0385871Y0052772D01*
X0385779Y0052914D01*
X0385690Y0053058D01*
X0385605Y0053204D01*
X0385524Y0053352D01*
X0385446Y0053502D01*
X0385372Y0053654D01*
X0385301Y0053808D01*
X0385234Y0053963D01*
X0385172Y0054120D01*
X0385113Y0054279D01*
X0385058Y0054439D01*
X0385007Y0054600D01*
X0384960Y0054762D01*
X0384916Y0054926D01*
X0384877Y0055090D01*
X0384842Y0055256D01*
X0384811Y0055422D01*
X0384785Y0055589D01*
X0384762Y0055757D01*
X0384743Y0055925D01*
X0384729Y0056093D01*
X0384718Y0056262D01*
X0384712Y0056431D01*
X0384710Y0056600D01*
D16*
X0232765Y0122828D02*
X0232372Y0122435D01*
X0178828Y0122435D01*
X0178435Y0122828D01*
X0178435Y0176372D01*
X0178828Y0176765D01*
X0232372Y0176765D01*
X0232765Y0176372D01*
X0232765Y0122828D01*
D17*
X0180994Y0125978D02*
X0180996Y0126040D01*
X0181002Y0126103D01*
X0181012Y0126164D01*
X0181026Y0126225D01*
X0181043Y0126285D01*
X0181064Y0126344D01*
X0181090Y0126401D01*
X0181118Y0126456D01*
X0181150Y0126510D01*
X0181186Y0126561D01*
X0181224Y0126611D01*
X0181266Y0126657D01*
X0181310Y0126701D01*
X0181358Y0126742D01*
X0181407Y0126780D01*
X0181459Y0126814D01*
X0181513Y0126845D01*
X0181569Y0126873D01*
X0181627Y0126897D01*
X0181686Y0126918D01*
X0181746Y0126934D01*
X0181807Y0126947D01*
X0181869Y0126956D01*
X0181931Y0126961D01*
X0181994Y0126962D01*
X0182056Y0126959D01*
X0182118Y0126952D01*
X0182180Y0126941D01*
X0182240Y0126926D01*
X0182300Y0126908D01*
X0182358Y0126886D01*
X0182415Y0126860D01*
X0182470Y0126830D01*
X0182523Y0126797D01*
X0182574Y0126761D01*
X0182622Y0126722D01*
X0182668Y0126679D01*
X0182711Y0126634D01*
X0182751Y0126586D01*
X0182788Y0126536D01*
X0182822Y0126483D01*
X0182853Y0126429D01*
X0182879Y0126373D01*
X0182903Y0126315D01*
X0182922Y0126255D01*
X0182938Y0126195D01*
X0182950Y0126133D01*
X0182958Y0126072D01*
X0182962Y0126009D01*
X0182962Y0125947D01*
X0182958Y0125884D01*
X0182950Y0125823D01*
X0182938Y0125761D01*
X0182922Y0125701D01*
X0182903Y0125641D01*
X0182879Y0125583D01*
X0182853Y0125527D01*
X0182822Y0125473D01*
X0182788Y0125420D01*
X0182751Y0125370D01*
X0182711Y0125322D01*
X0182668Y0125277D01*
X0182622Y0125234D01*
X0182574Y0125195D01*
X0182523Y0125159D01*
X0182470Y0125126D01*
X0182415Y0125096D01*
X0182358Y0125070D01*
X0182300Y0125048D01*
X0182240Y0125030D01*
X0182180Y0125015D01*
X0182118Y0125004D01*
X0182056Y0124997D01*
X0181994Y0124994D01*
X0181931Y0124995D01*
X0181869Y0125000D01*
X0181807Y0125009D01*
X0181746Y0125022D01*
X0181686Y0125038D01*
X0181627Y0125059D01*
X0181569Y0125083D01*
X0181513Y0125111D01*
X0181459Y0125142D01*
X0181407Y0125176D01*
X0181358Y0125214D01*
X0181310Y0125255D01*
X0181266Y0125299D01*
X0181224Y0125345D01*
X0181186Y0125395D01*
X0181150Y0125446D01*
X0181118Y0125500D01*
X0181090Y0125555D01*
X0181064Y0125612D01*
X0181043Y0125671D01*
X0181026Y0125731D01*
X0181012Y0125792D01*
X0181002Y0125853D01*
X0180996Y0125916D01*
X0180994Y0125978D01*
D18*
X0278136Y0119974D02*
X0278138Y0120030D01*
X0278144Y0120085D01*
X0278154Y0120139D01*
X0278167Y0120193D01*
X0278185Y0120246D01*
X0278206Y0120297D01*
X0278230Y0120347D01*
X0278258Y0120395D01*
X0278290Y0120441D01*
X0278324Y0120485D01*
X0278362Y0120526D01*
X0278402Y0120564D01*
X0278445Y0120599D01*
X0278490Y0120631D01*
X0278538Y0120660D01*
X0278587Y0120686D01*
X0278638Y0120708D01*
X0278690Y0120726D01*
X0278744Y0120740D01*
X0278799Y0120751D01*
X0278854Y0120758D01*
X0278909Y0120761D01*
X0278965Y0120760D01*
X0279020Y0120755D01*
X0279075Y0120746D01*
X0279129Y0120734D01*
X0279182Y0120717D01*
X0279234Y0120697D01*
X0279284Y0120673D01*
X0279332Y0120646D01*
X0279379Y0120616D01*
X0279423Y0120582D01*
X0279465Y0120545D01*
X0279503Y0120505D01*
X0279540Y0120463D01*
X0279573Y0120418D01*
X0279602Y0120372D01*
X0279629Y0120323D01*
X0279651Y0120272D01*
X0279671Y0120220D01*
X0279686Y0120166D01*
X0279698Y0120112D01*
X0279706Y0120057D01*
X0279710Y0120002D01*
X0279710Y0119946D01*
X0279706Y0119891D01*
X0279698Y0119836D01*
X0279686Y0119782D01*
X0279671Y0119728D01*
X0279651Y0119676D01*
X0279629Y0119625D01*
X0279602Y0119576D01*
X0279573Y0119530D01*
X0279540Y0119485D01*
X0279503Y0119443D01*
X0279465Y0119403D01*
X0279423Y0119366D01*
X0279379Y0119332D01*
X0279332Y0119302D01*
X0279284Y0119275D01*
X0279234Y0119251D01*
X0279182Y0119231D01*
X0279129Y0119214D01*
X0279075Y0119202D01*
X0279020Y0119193D01*
X0278965Y0119188D01*
X0278909Y0119187D01*
X0278854Y0119190D01*
X0278799Y0119197D01*
X0278744Y0119208D01*
X0278690Y0119222D01*
X0278638Y0119240D01*
X0278587Y0119262D01*
X0278538Y0119288D01*
X0278490Y0119317D01*
X0278445Y0119349D01*
X0278402Y0119384D01*
X0278362Y0119422D01*
X0278324Y0119463D01*
X0278290Y0119507D01*
X0278258Y0119553D01*
X0278230Y0119601D01*
X0278206Y0119651D01*
X0278185Y0119702D01*
X0278167Y0119755D01*
X0278154Y0119809D01*
X0278144Y0119863D01*
X0278138Y0119918D01*
X0278136Y0119974D01*
D19*
X0281482Y0250694D02*
X0281484Y0250733D01*
X0281490Y0250772D01*
X0281500Y0250810D01*
X0281513Y0250847D01*
X0281530Y0250882D01*
X0281550Y0250916D01*
X0281574Y0250947D01*
X0281601Y0250976D01*
X0281630Y0251002D01*
X0281662Y0251025D01*
X0281696Y0251045D01*
X0281732Y0251061D01*
X0281769Y0251073D01*
X0281808Y0251082D01*
X0281847Y0251087D01*
X0281886Y0251088D01*
X0281925Y0251085D01*
X0281964Y0251078D01*
X0282001Y0251067D01*
X0282038Y0251053D01*
X0282073Y0251035D01*
X0282106Y0251014D01*
X0282137Y0250989D01*
X0282165Y0250962D01*
X0282190Y0250932D01*
X0282212Y0250899D01*
X0282231Y0250865D01*
X0282246Y0250829D01*
X0282258Y0250791D01*
X0282266Y0250753D01*
X0282270Y0250714D01*
X0282270Y0250674D01*
X0282266Y0250635D01*
X0282258Y0250597D01*
X0282246Y0250559D01*
X0282231Y0250523D01*
X0282212Y0250489D01*
X0282190Y0250456D01*
X0282165Y0250426D01*
X0282137Y0250399D01*
X0282106Y0250374D01*
X0282073Y0250353D01*
X0282038Y0250335D01*
X0282001Y0250321D01*
X0281964Y0250310D01*
X0281925Y0250303D01*
X0281886Y0250300D01*
X0281847Y0250301D01*
X0281808Y0250306D01*
X0281769Y0250315D01*
X0281732Y0250327D01*
X0281696Y0250343D01*
X0281662Y0250363D01*
X0281630Y0250386D01*
X0281601Y0250412D01*
X0281574Y0250441D01*
X0281550Y0250472D01*
X0281530Y0250506D01*
X0281513Y0250541D01*
X0281500Y0250578D01*
X0281490Y0250616D01*
X0281484Y0250655D01*
X0281482Y0250694D01*
D20*
X0294123Y0261189D02*
X0294590Y0260722D01*
X0295057Y0260722D01*
X0295524Y0261189D01*
X0295524Y0263524D01*
X0295057Y0263524D02*
X0295991Y0263524D01*
X0297069Y0263057D02*
X0297536Y0263524D01*
X0298470Y0263524D01*
X0298937Y0263057D01*
X0298937Y0262590D01*
X0297069Y0260722D01*
X0298937Y0260722D01*
M02*
