G75*
%MOIN*%
%OFA0B0*%
%FSLAX25Y25*%
%IPPOS*%
%LPD*%
%AMOC8*
5,1,8,0,0,1.08239X$1,22.5*
%
%ADD10C,0.01200*%
%ADD11C,0.00787*%
%ADD12C,0.00300*%
%ADD13C,0.00000*%
D10*
X0141600Y0046600D02*
X0401600Y0046600D01*
X0401600Y0276600D01*
X0141600Y0276600D01*
X0141600Y0046600D01*
D11*
X0401600Y0046600D02*
X0429159Y0046617D01*
X0417348Y0047004D02*
X0415763Y0062357D01*
X0415404Y0062357D02*
X0417348Y0047004D01*
X0418913Y0062359D01*
X0419272Y0062359D02*
X0415404Y0062357D01*
X0416551Y0062358D02*
X0417348Y0047004D01*
X0418125Y0062359D01*
X0419272Y0062359D02*
X0417348Y0047004D01*
X0417191Y0294248D01*
X0415626Y0278892D01*
X0415267Y0278892D02*
X0417191Y0294248D01*
X0418775Y0278894D01*
X0419134Y0278895D02*
X0415267Y0278892D01*
X0416413Y0278893D02*
X0417191Y0294248D01*
X0417988Y0278894D01*
X0419134Y0278895D02*
X0417191Y0294248D01*
X0429002Y0294649D02*
X0401443Y0294631D01*
D12*
X0419486Y0172712D02*
X0419002Y0172228D01*
X0419002Y0171260D01*
X0419486Y0170777D01*
X0419002Y0169765D02*
X0419486Y0168798D01*
X0420454Y0167830D01*
X0420454Y0169281D01*
X0420937Y0169765D01*
X0421421Y0169765D01*
X0421905Y0169281D01*
X0421905Y0168314D01*
X0421421Y0167830D01*
X0420454Y0167830D01*
X0421421Y0170777D02*
X0421905Y0171260D01*
X0421905Y0172228D01*
X0421421Y0172712D01*
X0420937Y0172712D01*
X0420454Y0172228D01*
X0420454Y0171744D01*
X0420454Y0172228D02*
X0419970Y0172712D01*
X0419486Y0172712D01*
D13*
X0348844Y0266600D02*
X0348846Y0266705D01*
X0348852Y0266810D01*
X0348862Y0266914D01*
X0348876Y0267018D01*
X0348894Y0267122D01*
X0348916Y0267224D01*
X0348941Y0267326D01*
X0348971Y0267427D01*
X0349004Y0267526D01*
X0349041Y0267624D01*
X0349082Y0267721D01*
X0349127Y0267816D01*
X0349175Y0267909D01*
X0349226Y0268001D01*
X0349282Y0268090D01*
X0349340Y0268177D01*
X0349402Y0268262D01*
X0349466Y0268345D01*
X0349534Y0268425D01*
X0349605Y0268502D01*
X0349679Y0268576D01*
X0349756Y0268648D01*
X0349835Y0268717D01*
X0349917Y0268782D01*
X0350001Y0268845D01*
X0350088Y0268904D01*
X0350177Y0268960D01*
X0350268Y0269013D01*
X0350361Y0269062D01*
X0350455Y0269107D01*
X0350551Y0269149D01*
X0350649Y0269187D01*
X0350748Y0269221D01*
X0350849Y0269252D01*
X0350950Y0269278D01*
X0351053Y0269301D01*
X0351156Y0269320D01*
X0351260Y0269335D01*
X0351364Y0269346D01*
X0351469Y0269353D01*
X0351574Y0269356D01*
X0351679Y0269355D01*
X0351784Y0269350D01*
X0351888Y0269341D01*
X0351992Y0269328D01*
X0352096Y0269311D01*
X0352199Y0269290D01*
X0352301Y0269265D01*
X0352402Y0269237D01*
X0352501Y0269204D01*
X0352600Y0269168D01*
X0352697Y0269128D01*
X0352792Y0269085D01*
X0352886Y0269037D01*
X0352978Y0268987D01*
X0353068Y0268933D01*
X0353156Y0268875D01*
X0353241Y0268814D01*
X0353324Y0268750D01*
X0353405Y0268683D01*
X0353483Y0268613D01*
X0353558Y0268539D01*
X0353630Y0268464D01*
X0353700Y0268385D01*
X0353766Y0268304D01*
X0353830Y0268220D01*
X0353890Y0268134D01*
X0353946Y0268046D01*
X0354000Y0267955D01*
X0354050Y0267863D01*
X0354096Y0267769D01*
X0354139Y0267673D01*
X0354178Y0267575D01*
X0354213Y0267477D01*
X0354244Y0267376D01*
X0354272Y0267275D01*
X0354296Y0267173D01*
X0354316Y0267070D01*
X0354332Y0266966D01*
X0354344Y0266862D01*
X0354352Y0266757D01*
X0354356Y0266652D01*
X0354356Y0266548D01*
X0354352Y0266443D01*
X0354344Y0266338D01*
X0354332Y0266234D01*
X0354316Y0266130D01*
X0354296Y0266027D01*
X0354272Y0265925D01*
X0354244Y0265824D01*
X0354213Y0265723D01*
X0354178Y0265625D01*
X0354139Y0265527D01*
X0354096Y0265431D01*
X0354050Y0265337D01*
X0354000Y0265245D01*
X0353946Y0265154D01*
X0353890Y0265066D01*
X0353830Y0264980D01*
X0353766Y0264896D01*
X0353700Y0264815D01*
X0353630Y0264736D01*
X0353558Y0264661D01*
X0353483Y0264587D01*
X0353405Y0264517D01*
X0353324Y0264450D01*
X0353241Y0264386D01*
X0353156Y0264325D01*
X0353068Y0264267D01*
X0352978Y0264213D01*
X0352886Y0264163D01*
X0352792Y0264115D01*
X0352697Y0264072D01*
X0352600Y0264032D01*
X0352501Y0263996D01*
X0352402Y0263963D01*
X0352301Y0263935D01*
X0352199Y0263910D01*
X0352096Y0263889D01*
X0351992Y0263872D01*
X0351888Y0263859D01*
X0351784Y0263850D01*
X0351679Y0263845D01*
X0351574Y0263844D01*
X0351469Y0263847D01*
X0351364Y0263854D01*
X0351260Y0263865D01*
X0351156Y0263880D01*
X0351053Y0263899D01*
X0350950Y0263922D01*
X0350849Y0263948D01*
X0350748Y0263979D01*
X0350649Y0264013D01*
X0350551Y0264051D01*
X0350455Y0264093D01*
X0350361Y0264138D01*
X0350268Y0264187D01*
X0350177Y0264240D01*
X0350088Y0264296D01*
X0350001Y0264355D01*
X0349917Y0264418D01*
X0349835Y0264483D01*
X0349756Y0264552D01*
X0349679Y0264624D01*
X0349605Y0264698D01*
X0349534Y0264775D01*
X0349466Y0264855D01*
X0349402Y0264938D01*
X0349340Y0265023D01*
X0349282Y0265110D01*
X0349226Y0265199D01*
X0349175Y0265291D01*
X0349127Y0265384D01*
X0349082Y0265479D01*
X0349041Y0265576D01*
X0349004Y0265674D01*
X0348971Y0265773D01*
X0348941Y0265874D01*
X0348916Y0265976D01*
X0348894Y0266078D01*
X0348876Y0266182D01*
X0348862Y0266286D01*
X0348852Y0266390D01*
X0348846Y0266495D01*
X0348844Y0266600D01*
X0288844Y0266600D02*
X0288846Y0266705D01*
X0288852Y0266810D01*
X0288862Y0266914D01*
X0288876Y0267018D01*
X0288894Y0267122D01*
X0288916Y0267224D01*
X0288941Y0267326D01*
X0288971Y0267427D01*
X0289004Y0267526D01*
X0289041Y0267624D01*
X0289082Y0267721D01*
X0289127Y0267816D01*
X0289175Y0267909D01*
X0289226Y0268001D01*
X0289282Y0268090D01*
X0289340Y0268177D01*
X0289402Y0268262D01*
X0289466Y0268345D01*
X0289534Y0268425D01*
X0289605Y0268502D01*
X0289679Y0268576D01*
X0289756Y0268648D01*
X0289835Y0268717D01*
X0289917Y0268782D01*
X0290001Y0268845D01*
X0290088Y0268904D01*
X0290177Y0268960D01*
X0290268Y0269013D01*
X0290361Y0269062D01*
X0290455Y0269107D01*
X0290551Y0269149D01*
X0290649Y0269187D01*
X0290748Y0269221D01*
X0290849Y0269252D01*
X0290950Y0269278D01*
X0291053Y0269301D01*
X0291156Y0269320D01*
X0291260Y0269335D01*
X0291364Y0269346D01*
X0291469Y0269353D01*
X0291574Y0269356D01*
X0291679Y0269355D01*
X0291784Y0269350D01*
X0291888Y0269341D01*
X0291992Y0269328D01*
X0292096Y0269311D01*
X0292199Y0269290D01*
X0292301Y0269265D01*
X0292402Y0269237D01*
X0292501Y0269204D01*
X0292600Y0269168D01*
X0292697Y0269128D01*
X0292792Y0269085D01*
X0292886Y0269037D01*
X0292978Y0268987D01*
X0293068Y0268933D01*
X0293156Y0268875D01*
X0293241Y0268814D01*
X0293324Y0268750D01*
X0293405Y0268683D01*
X0293483Y0268613D01*
X0293558Y0268539D01*
X0293630Y0268464D01*
X0293700Y0268385D01*
X0293766Y0268304D01*
X0293830Y0268220D01*
X0293890Y0268134D01*
X0293946Y0268046D01*
X0294000Y0267955D01*
X0294050Y0267863D01*
X0294096Y0267769D01*
X0294139Y0267673D01*
X0294178Y0267575D01*
X0294213Y0267477D01*
X0294244Y0267376D01*
X0294272Y0267275D01*
X0294296Y0267173D01*
X0294316Y0267070D01*
X0294332Y0266966D01*
X0294344Y0266862D01*
X0294352Y0266757D01*
X0294356Y0266652D01*
X0294356Y0266548D01*
X0294352Y0266443D01*
X0294344Y0266338D01*
X0294332Y0266234D01*
X0294316Y0266130D01*
X0294296Y0266027D01*
X0294272Y0265925D01*
X0294244Y0265824D01*
X0294213Y0265723D01*
X0294178Y0265625D01*
X0294139Y0265527D01*
X0294096Y0265431D01*
X0294050Y0265337D01*
X0294000Y0265245D01*
X0293946Y0265154D01*
X0293890Y0265066D01*
X0293830Y0264980D01*
X0293766Y0264896D01*
X0293700Y0264815D01*
X0293630Y0264736D01*
X0293558Y0264661D01*
X0293483Y0264587D01*
X0293405Y0264517D01*
X0293324Y0264450D01*
X0293241Y0264386D01*
X0293156Y0264325D01*
X0293068Y0264267D01*
X0292978Y0264213D01*
X0292886Y0264163D01*
X0292792Y0264115D01*
X0292697Y0264072D01*
X0292600Y0264032D01*
X0292501Y0263996D01*
X0292402Y0263963D01*
X0292301Y0263935D01*
X0292199Y0263910D01*
X0292096Y0263889D01*
X0291992Y0263872D01*
X0291888Y0263859D01*
X0291784Y0263850D01*
X0291679Y0263845D01*
X0291574Y0263844D01*
X0291469Y0263847D01*
X0291364Y0263854D01*
X0291260Y0263865D01*
X0291156Y0263880D01*
X0291053Y0263899D01*
X0290950Y0263922D01*
X0290849Y0263948D01*
X0290748Y0263979D01*
X0290649Y0264013D01*
X0290551Y0264051D01*
X0290455Y0264093D01*
X0290361Y0264138D01*
X0290268Y0264187D01*
X0290177Y0264240D01*
X0290088Y0264296D01*
X0290001Y0264355D01*
X0289917Y0264418D01*
X0289835Y0264483D01*
X0289756Y0264552D01*
X0289679Y0264624D01*
X0289605Y0264698D01*
X0289534Y0264775D01*
X0289466Y0264855D01*
X0289402Y0264938D01*
X0289340Y0265023D01*
X0289282Y0265110D01*
X0289226Y0265199D01*
X0289175Y0265291D01*
X0289127Y0265384D01*
X0289082Y0265479D01*
X0289041Y0265576D01*
X0289004Y0265674D01*
X0288971Y0265773D01*
X0288941Y0265874D01*
X0288916Y0265976D01*
X0288894Y0266078D01*
X0288876Y0266182D01*
X0288862Y0266286D01*
X0288852Y0266390D01*
X0288846Y0266495D01*
X0288844Y0266600D01*
M02*
