G75*
%MOIN*%
%OFA0B0*%
%FSLAX25Y25*%
%IPPOS*%
%LPD*%
%AMOC8*
5,1,8,0,0,1.08239X$1,22.5*
%
%ADD10R,0.15625X0.15625*%
%ADD11C,0.02700*%
%ADD12C,0.12661*%
%ADD13C,0.01200*%
%ADD14C,0.00800*%
%ADD15C,0.01000*%
D10*
X0337850Y0140350D03*
D11*
X0339819Y0138381D03*
X0339819Y0134444D03*
X0343756Y0134444D03*
X0343756Y0138381D03*
X0343756Y0142319D03*
X0343756Y0146256D03*
X0339819Y0146256D03*
X0335881Y0146256D03*
X0331944Y0146256D03*
X0331944Y0142319D03*
X0331944Y0138381D03*
X0331944Y0134444D03*
X0335881Y0134444D03*
X0335881Y0138381D03*
X0335881Y0142319D03*
X0339819Y0142319D03*
X0348600Y0158100D03*
X0352600Y0155100D03*
X0352600Y0161600D03*
X0343600Y0161100D03*
X0339600Y0159600D03*
X0342600Y0166100D03*
X0328100Y0159100D03*
X0319100Y0143100D03*
X0315600Y0141100D03*
X0317600Y0138100D03*
X0319600Y0135100D03*
X0301600Y0141100D03*
X0289600Y0127100D03*
X0271600Y0141100D03*
X0270100Y0145100D03*
X0259600Y0137600D03*
X0242600Y0142600D03*
X0242100Y0146600D03*
X0242100Y0157100D03*
X0241600Y0160600D03*
X0247100Y0166600D03*
X0249600Y0164100D03*
X0259600Y0171100D03*
X0263100Y0173100D03*
X0262100Y0177100D03*
X0254100Y0182100D03*
X0245600Y0186100D03*
X0241100Y0193100D03*
X0232600Y0181600D03*
X0228600Y0174600D03*
X0226100Y0171600D03*
X0222600Y0169100D03*
X0218600Y0169100D03*
X0217100Y0172100D03*
X0215100Y0169100D03*
X0212600Y0166100D03*
X0205600Y0167100D03*
X0205600Y0172100D03*
X0207100Y0175100D03*
X0202100Y0174600D03*
X0198600Y0174600D03*
X0195600Y0173100D03*
X0192100Y0173600D03*
X0188600Y0173600D03*
X0185600Y0175100D03*
X0184100Y0168600D03*
X0186600Y0166100D03*
X0184100Y0163600D03*
X0181600Y0161100D03*
X0180100Y0158100D03*
X0167100Y0161600D03*
X0154600Y0161600D03*
X0154600Y0158100D03*
X0154600Y0165100D03*
X0156600Y0176600D03*
X0165600Y0191100D03*
X0166600Y0194600D03*
X0167600Y0198100D03*
X0169600Y0201100D03*
X0171600Y0204100D03*
X0161100Y0194600D03*
X0158100Y0192600D03*
X0166600Y0219600D03*
X0172100Y0227600D03*
X0175100Y0226100D03*
X0178100Y0224600D03*
X0181100Y0223100D03*
X0184100Y0221600D03*
X0196100Y0224600D03*
X0197100Y0220100D03*
X0200600Y0222100D03*
X0196100Y0211600D03*
X0198100Y0202600D03*
X0200600Y0200100D03*
X0200600Y0196100D03*
X0208600Y0192600D03*
X0202100Y0185600D03*
X0192100Y0185600D03*
X0190600Y0190600D03*
X0187100Y0190600D03*
X0185600Y0185600D03*
X0196600Y0164100D03*
X0200600Y0143100D03*
X0198100Y0140600D03*
X0195600Y0138100D03*
X0193100Y0135600D03*
X0190600Y0133100D03*
X0183100Y0128600D03*
X0180600Y0131100D03*
X0185600Y0126100D03*
X0194100Y0124600D03*
X0189100Y0113600D03*
X0186100Y0112100D03*
X0182600Y0112100D03*
X0178100Y0112600D03*
X0192600Y0104600D03*
X0198600Y0104600D03*
X0200600Y0112600D03*
X0210100Y0113600D03*
X0213600Y0113600D03*
X0217100Y0113600D03*
X0218600Y0110600D03*
X0222600Y0110600D03*
X0228100Y0113100D03*
X0232600Y0113100D03*
X0233100Y0119600D03*
X0215600Y0124100D03*
X0228100Y0138600D03*
X0213100Y0143600D03*
X0227600Y0155100D03*
X0223100Y0163600D03*
X0219100Y0200600D03*
X0216100Y0202600D03*
X0213600Y0205100D03*
X0219100Y0208100D03*
X0212100Y0211600D03*
X0220600Y0221600D03*
X0221100Y0226600D03*
X0215600Y0227100D03*
X0212100Y0227100D03*
X0212100Y0234600D03*
X0211600Y0252600D03*
X0208600Y0254100D03*
X0204100Y0253100D03*
X0200100Y0254600D03*
X0197100Y0252600D03*
X0194100Y0254600D03*
X0191100Y0252600D03*
X0186600Y0250600D03*
X0184600Y0254600D03*
X0181100Y0252100D03*
X0178600Y0254600D03*
X0215100Y0254100D03*
X0218600Y0254100D03*
X0222100Y0254600D03*
X0246100Y0239600D03*
X0249600Y0225600D03*
X0238100Y0211600D03*
X0235100Y0210100D03*
X0232100Y0211600D03*
X0226100Y0220600D03*
X0259100Y0209100D03*
X0260600Y0206100D03*
X0265100Y0215100D03*
X0276600Y0204600D03*
X0280600Y0189600D03*
X0289100Y0169100D03*
X0302600Y0163600D03*
X0309600Y0159100D03*
X0320600Y0186600D03*
X0307600Y0190100D03*
X0331600Y0201600D03*
X0331013Y0206013D03*
X0329100Y0211100D03*
X0331100Y0215600D03*
X0326100Y0221100D03*
X0323100Y0233600D03*
X0313100Y0233600D03*
X0303100Y0233600D03*
X0293100Y0233600D03*
X0282600Y0238100D03*
X0276600Y0242100D03*
X0282100Y0251100D03*
X0292100Y0251100D03*
X0302100Y0251100D03*
X0312100Y0251100D03*
X0322100Y0251100D03*
X0332100Y0251100D03*
X0333100Y0233600D03*
X0357100Y0229100D03*
X0365600Y0211100D03*
X0365600Y0201600D03*
X0376100Y0221100D03*
X0377600Y0242600D03*
X0395600Y0230600D03*
X0352600Y0183100D03*
X0356100Y0144100D03*
X0360100Y0136600D03*
X0363100Y0133600D03*
X0358100Y0127100D03*
X0355600Y0130100D03*
X0351600Y0122600D03*
X0341600Y0116600D03*
X0331100Y0111100D03*
X0327600Y0116100D03*
X0313600Y0104600D03*
X0301600Y0100100D03*
X0263100Y0096600D03*
X0258100Y0120100D03*
X0238600Y0094100D03*
X0230600Y0096100D03*
X0229100Y0089600D03*
X0217100Y0100100D03*
X0212100Y0104100D03*
X0205600Y0096100D03*
X0201600Y0095600D03*
X0191100Y0097100D03*
X0189600Y0094100D03*
X0183600Y0096600D03*
X0170100Y0094100D03*
X0169100Y0130100D03*
X0161600Y0143100D03*
X0165100Y0145600D03*
X0153100Y0138600D03*
X0215600Y0093100D03*
X0229100Y0078600D03*
X0232600Y0078600D03*
X0342100Y0078600D03*
X0361100Y0089600D03*
X0363100Y0086100D03*
X0367100Y0086100D03*
X0367100Y0082600D03*
X0370100Y0090100D03*
X0366100Y0092600D03*
X0367600Y0095600D03*
X0372100Y0098100D03*
X0375600Y0095100D03*
X0380600Y0090600D03*
X0387100Y0091100D03*
X0385100Y0072100D03*
X0374600Y0060100D03*
X0374100Y0056100D03*
X0368100Y0058600D03*
X0357100Y0098100D03*
X0352600Y0110600D03*
X0373100Y0118100D03*
X0373600Y0140100D03*
X0306600Y0223600D03*
X0284100Y0224100D03*
D12*
X0391600Y0266600D03*
X0391600Y0056600D03*
X0151600Y0056600D03*
X0151600Y0266600D03*
D13*
X0144300Y0262441D02*
X0144300Y0060759D01*
X0145888Y0062944D01*
X0148962Y0064719D01*
X0152492Y0065090D01*
X0155868Y0063993D01*
X0158507Y0061618D01*
X0159950Y0058375D01*
X0159950Y0054825D01*
X0158507Y0051582D01*
X0155972Y0049300D01*
X0387543Y0049300D01*
X0385888Y0050256D01*
X0383801Y0053128D01*
X0383063Y0056600D01*
X0383801Y0060072D01*
X0385888Y0062944D01*
X0388962Y0064719D01*
X0392492Y0065090D01*
X0395868Y0063993D01*
X0398507Y0061618D01*
X0398900Y0060734D01*
X0398900Y0262466D01*
X0398507Y0261582D01*
X0395869Y0259207D01*
X0392492Y0258110D01*
X0388962Y0258481D01*
X0385888Y0260256D01*
X0383801Y0263128D01*
X0383063Y0266600D01*
X0383801Y0270072D01*
X0385888Y0272944D01*
X0387543Y0273900D01*
X0155972Y0273900D01*
X0158507Y0271618D01*
X0159950Y0268375D01*
X0159950Y0264825D01*
X0158507Y0261582D01*
X0155869Y0259207D01*
X0152492Y0258110D01*
X0148962Y0258481D01*
X0145888Y0260256D01*
X0144300Y0262441D01*
X0144300Y0262332D02*
X0144379Y0262332D01*
X0144300Y0261134D02*
X0145250Y0261134D01*
X0144300Y0259935D02*
X0146443Y0259935D01*
X0148519Y0258737D02*
X0144300Y0258737D01*
X0144300Y0257538D02*
X0398900Y0257538D01*
X0398900Y0258737D02*
X0394421Y0258737D01*
X0396677Y0259935D02*
X0398900Y0259935D01*
X0398900Y0261134D02*
X0398008Y0261134D01*
X0398840Y0262332D02*
X0398900Y0262332D01*
X0398900Y0256339D02*
X0223967Y0256339D01*
X0224262Y0256044D02*
X0223544Y0256762D01*
X0222607Y0257150D01*
X0221593Y0257150D01*
X0220656Y0256762D01*
X0220100Y0256206D01*
X0220044Y0256262D01*
X0219107Y0256650D01*
X0218093Y0256650D01*
X0217156Y0256262D01*
X0216850Y0255956D01*
X0216544Y0256262D01*
X0215607Y0256650D01*
X0214593Y0256650D01*
X0213656Y0256262D01*
X0212938Y0255544D01*
X0212677Y0254914D01*
X0212107Y0255150D01*
X0211093Y0255150D01*
X0210950Y0255091D01*
X0210762Y0255544D01*
X0210044Y0256262D01*
X0209107Y0256650D01*
X0208093Y0256650D01*
X0207156Y0256262D01*
X0206438Y0255544D01*
X0206050Y0254607D01*
X0206050Y0253593D01*
X0206438Y0252656D01*
X0207000Y0252094D01*
X0207000Y0250763D01*
X0202437Y0246200D01*
X0201500Y0245263D01*
X0201500Y0224487D01*
X0201107Y0224650D01*
X0200093Y0224650D01*
X0199156Y0224262D01*
X0198438Y0223544D01*
X0198050Y0222607D01*
X0198050Y0222467D01*
X0197607Y0222650D01*
X0196593Y0222650D01*
X0195656Y0222262D01*
X0194938Y0221544D01*
X0194550Y0220607D01*
X0194550Y0219593D01*
X0194938Y0218656D01*
X0195656Y0217938D01*
X0196593Y0217550D01*
X0197387Y0217550D01*
X0198500Y0216437D01*
X0198500Y0205263D01*
X0198387Y0205150D01*
X0197593Y0205150D01*
X0196656Y0204762D01*
X0195938Y0204044D01*
X0195550Y0203107D01*
X0195550Y0202093D01*
X0195938Y0201156D01*
X0196656Y0200438D01*
X0197593Y0200050D01*
X0198050Y0200050D01*
X0198050Y0199593D01*
X0198438Y0198656D01*
X0199156Y0197938D01*
X0200093Y0197550D01*
X0201107Y0197550D01*
X0201500Y0197713D01*
X0201500Y0188112D01*
X0201200Y0187987D01*
X0201200Y0191763D01*
X0200263Y0192700D01*
X0194200Y0198763D01*
X0194200Y0226437D01*
X0198200Y0230437D01*
X0198200Y0247437D01*
X0201700Y0250937D01*
X0201700Y0252594D01*
X0202262Y0253156D01*
X0202650Y0254093D01*
X0202650Y0255107D01*
X0202262Y0256044D01*
X0201544Y0256762D01*
X0200607Y0257150D01*
X0199593Y0257150D01*
X0198656Y0256762D01*
X0197938Y0256044D01*
X0197568Y0255150D01*
X0196632Y0255150D01*
X0196262Y0256044D01*
X0195544Y0256762D01*
X0194607Y0257150D01*
X0193593Y0257150D01*
X0192656Y0256762D01*
X0191938Y0256044D01*
X0191568Y0255150D01*
X0190593Y0255150D01*
X0189656Y0254762D01*
X0188938Y0254044D01*
X0188550Y0253107D01*
X0188550Y0252256D01*
X0188044Y0252762D01*
X0187107Y0253150D01*
X0186756Y0253150D01*
X0186762Y0253156D01*
X0187150Y0254093D01*
X0187150Y0255107D01*
X0186762Y0256044D01*
X0186044Y0256762D01*
X0185107Y0257150D01*
X0184093Y0257150D01*
X0183156Y0256762D01*
X0182438Y0256044D01*
X0182050Y0255107D01*
X0182050Y0254467D01*
X0181607Y0254650D01*
X0181150Y0254650D01*
X0181150Y0255107D01*
X0180762Y0256044D01*
X0180044Y0256762D01*
X0179107Y0257150D01*
X0178093Y0257150D01*
X0177156Y0256762D01*
X0176438Y0256044D01*
X0176050Y0255107D01*
X0176050Y0254313D01*
X0175437Y0253700D01*
X0169437Y0253700D01*
X0149937Y0234200D01*
X0149000Y0233263D01*
X0149000Y0161437D01*
X0152050Y0158387D01*
X0152050Y0157593D01*
X0152438Y0156656D01*
X0153156Y0155938D01*
X0154093Y0155550D01*
X0155107Y0155550D01*
X0156044Y0155938D01*
X0156762Y0156656D01*
X0157150Y0157593D01*
X0157150Y0158607D01*
X0156762Y0159544D01*
X0156456Y0159850D01*
X0156762Y0160156D01*
X0157150Y0161093D01*
X0157150Y0162107D01*
X0156762Y0163044D01*
X0156456Y0163350D01*
X0156762Y0163656D01*
X0157150Y0164593D01*
X0157150Y0165607D01*
X0156762Y0166544D01*
X0156044Y0167262D01*
X0155200Y0167612D01*
X0155200Y0230937D01*
X0171763Y0247500D01*
X0182263Y0247500D01*
X0183200Y0248437D01*
X0184286Y0249523D01*
X0184438Y0249156D01*
X0185000Y0248594D01*
X0185000Y0223987D01*
X0184607Y0224150D01*
X0183593Y0224150D01*
X0183450Y0224091D01*
X0183262Y0224544D01*
X0182544Y0225262D01*
X0181607Y0225650D01*
X0180593Y0225650D01*
X0180450Y0225591D01*
X0180262Y0226044D01*
X0179544Y0226762D01*
X0178607Y0227150D01*
X0177593Y0227150D01*
X0177450Y0227091D01*
X0177262Y0227544D01*
X0176544Y0228262D01*
X0175607Y0228650D01*
X0174593Y0228650D01*
X0174450Y0228591D01*
X0174262Y0229044D01*
X0173544Y0229762D01*
X0172607Y0230150D01*
X0171593Y0230150D01*
X0170656Y0229762D01*
X0169938Y0229044D01*
X0169550Y0228107D01*
X0169550Y0227093D01*
X0169938Y0226156D01*
X0170500Y0225594D01*
X0170500Y0223437D01*
X0175500Y0218437D01*
X0175500Y0203463D01*
X0174005Y0204958D01*
X0173762Y0205544D01*
X0173044Y0206262D01*
X0172107Y0206650D01*
X0171093Y0206650D01*
X0170156Y0206262D01*
X0169438Y0205544D01*
X0169050Y0204607D01*
X0169050Y0203632D01*
X0168156Y0203262D01*
X0167438Y0202544D01*
X0167050Y0201607D01*
X0167050Y0200632D01*
X0166156Y0200262D01*
X0165438Y0199544D01*
X0165050Y0198607D01*
X0165050Y0197593D01*
X0165359Y0196846D01*
X0165156Y0196762D01*
X0164438Y0196044D01*
X0164050Y0195107D01*
X0164050Y0194093D01*
X0164359Y0193346D01*
X0164156Y0193262D01*
X0163438Y0192544D01*
X0163050Y0191607D01*
X0163050Y0190593D01*
X0163177Y0190285D01*
X0162700Y0190763D01*
X0162700Y0192594D01*
X0163262Y0193156D01*
X0163650Y0194093D01*
X0163650Y0195107D01*
X0163262Y0196044D01*
X0162544Y0196762D01*
X0161607Y0197150D01*
X0160593Y0197150D01*
X0159656Y0196762D01*
X0158938Y0196044D01*
X0158568Y0195150D01*
X0157593Y0195150D01*
X0156656Y0194762D01*
X0155938Y0194044D01*
X0155550Y0193107D01*
X0155550Y0192093D01*
X0155938Y0191156D01*
X0156500Y0190594D01*
X0156500Y0189937D01*
X0161000Y0185437D01*
X0161000Y0145612D01*
X0160156Y0145262D01*
X0159438Y0144544D01*
X0159050Y0143607D01*
X0159050Y0142593D01*
X0159438Y0141656D01*
X0160156Y0140938D01*
X0161093Y0140550D01*
X0162107Y0140550D01*
X0163044Y0140938D01*
X0163762Y0141656D01*
X0164150Y0142593D01*
X0164150Y0143233D01*
X0164593Y0143050D01*
X0165607Y0143050D01*
X0166544Y0143438D01*
X0167262Y0144156D01*
X0167650Y0145093D01*
X0167650Y0146107D01*
X0167262Y0147044D01*
X0166544Y0147762D01*
X0165700Y0148112D01*
X0165700Y0187763D01*
X0164785Y0188677D01*
X0165093Y0188550D01*
X0165887Y0188550D01*
X0168000Y0186437D01*
X0168000Y0137937D01*
X0170500Y0135437D01*
X0171437Y0134500D01*
X0188420Y0134500D01*
X0188050Y0133607D01*
X0188050Y0132593D01*
X0188420Y0131700D01*
X0187133Y0131700D01*
X0185651Y0132812D01*
X0185263Y0133200D01*
X0185133Y0133200D01*
X0185030Y0133278D01*
X0184486Y0133200D01*
X0182106Y0133200D01*
X0182044Y0133262D01*
X0181107Y0133650D01*
X0180093Y0133650D01*
X0179156Y0133262D01*
X0178438Y0132544D01*
X0178050Y0131607D01*
X0178050Y0130593D01*
X0178438Y0129656D01*
X0179156Y0128938D01*
X0180093Y0128550D01*
X0180550Y0128550D01*
X0180550Y0128093D01*
X0180938Y0127156D01*
X0181656Y0126438D01*
X0182593Y0126050D01*
X0183050Y0126050D01*
X0183050Y0125593D01*
X0183438Y0124656D01*
X0184156Y0123938D01*
X0185093Y0123550D01*
X0186107Y0123550D01*
X0187044Y0123938D01*
X0187762Y0124656D01*
X0188112Y0125500D01*
X0193763Y0125500D01*
X0194700Y0126437D01*
X0209700Y0141437D01*
X0209700Y0150937D01*
X0214763Y0156000D01*
X0226263Y0156000D01*
X0227200Y0156937D01*
X0239700Y0169437D01*
X0239700Y0209594D01*
X0240262Y0210156D01*
X0240650Y0211093D01*
X0240650Y0212107D01*
X0240262Y0213044D01*
X0239544Y0213762D01*
X0238607Y0214150D01*
X0237593Y0214150D01*
X0236656Y0213762D01*
X0235938Y0213044D01*
X0235750Y0212591D01*
X0235607Y0212650D01*
X0234593Y0212650D01*
X0234450Y0212591D01*
X0234262Y0213044D01*
X0233544Y0213762D01*
X0232607Y0214150D01*
X0231593Y0214150D01*
X0230688Y0213775D01*
X0223150Y0221313D01*
X0223150Y0222107D01*
X0222762Y0223044D01*
X0222044Y0223762D01*
X0221349Y0224050D01*
X0221607Y0224050D01*
X0222544Y0224438D01*
X0223262Y0225156D01*
X0223650Y0226093D01*
X0223650Y0227107D01*
X0223262Y0228044D01*
X0222544Y0228762D01*
X0221607Y0229150D01*
X0220593Y0229150D01*
X0219656Y0228762D01*
X0218938Y0228044D01*
X0218550Y0227107D01*
X0218550Y0226313D01*
X0217200Y0224963D01*
X0217200Y0225094D01*
X0217762Y0225656D01*
X0218150Y0226593D01*
X0218150Y0227607D01*
X0217762Y0228544D01*
X0217044Y0229262D01*
X0216107Y0229650D01*
X0215093Y0229650D01*
X0214156Y0229262D01*
X0213850Y0228956D01*
X0213544Y0229262D01*
X0212607Y0229650D01*
X0211593Y0229650D01*
X0210700Y0229280D01*
X0210700Y0239937D01*
X0222958Y0252195D01*
X0223544Y0252438D01*
X0224262Y0253156D01*
X0224650Y0254093D01*
X0224650Y0255107D01*
X0224262Y0256044D01*
X0224636Y0255141D02*
X0398900Y0255141D01*
X0398900Y0253942D02*
X0224588Y0253942D01*
X0223850Y0252744D02*
X0280138Y0252744D01*
X0279938Y0252544D02*
X0279550Y0251607D01*
X0279550Y0250813D01*
X0278500Y0249763D01*
X0278500Y0238263D01*
X0252937Y0212700D01*
X0252000Y0211763D01*
X0252000Y0187763D01*
X0241500Y0177263D01*
X0241500Y0163150D01*
X0241093Y0163150D01*
X0240156Y0162762D01*
X0239438Y0162044D01*
X0239050Y0161107D01*
X0239050Y0160093D01*
X0239438Y0159156D01*
X0239994Y0158600D01*
X0239938Y0158544D01*
X0239550Y0157607D01*
X0239550Y0156593D01*
X0239938Y0155656D01*
X0240656Y0154938D01*
X0241593Y0154550D01*
X0242607Y0154550D01*
X0243544Y0154938D01*
X0244262Y0155656D01*
X0244650Y0156593D01*
X0244650Y0157387D01*
X0245263Y0158000D01*
X0246200Y0158937D01*
X0246200Y0164213D01*
X0246593Y0164050D01*
X0247050Y0164050D01*
X0247050Y0163593D01*
X0247438Y0162656D01*
X0248156Y0161938D01*
X0249093Y0161550D01*
X0250107Y0161550D01*
X0251044Y0161938D01*
X0251762Y0162656D01*
X0252150Y0163593D01*
X0252150Y0164607D01*
X0252068Y0164805D01*
X0257286Y0170023D01*
X0257438Y0169656D01*
X0258156Y0168938D01*
X0259093Y0168550D01*
X0260107Y0168550D01*
X0261044Y0168938D01*
X0261762Y0169656D01*
X0262150Y0170593D01*
X0262150Y0171607D01*
X0261762Y0172544D01*
X0261200Y0173106D01*
X0261200Y0174713D01*
X0261593Y0174550D01*
X0262607Y0174550D01*
X0263544Y0174938D01*
X0264262Y0175656D01*
X0264650Y0176593D01*
X0264650Y0177607D01*
X0264262Y0178544D01*
X0263544Y0179262D01*
X0262700Y0179612D01*
X0262700Y0200437D01*
X0266263Y0204000D01*
X0274088Y0204000D01*
X0274438Y0203156D01*
X0275156Y0202438D01*
X0276093Y0202050D01*
X0277107Y0202050D01*
X0278044Y0202438D01*
X0278762Y0203156D01*
X0279112Y0204000D01*
X0282737Y0204000D01*
X0276500Y0197763D01*
X0276500Y0162263D01*
X0262437Y0148200D01*
X0244106Y0148200D01*
X0243544Y0148762D01*
X0242607Y0149150D01*
X0241593Y0149150D01*
X0240656Y0148762D01*
X0239938Y0148044D01*
X0239550Y0147107D01*
X0239550Y0146093D01*
X0239938Y0145156D01*
X0240656Y0144438D01*
X0240780Y0144387D01*
X0240438Y0144044D01*
X0240050Y0143107D01*
X0240050Y0142093D01*
X0240438Y0141156D01*
X0241156Y0140438D01*
X0242093Y0140050D01*
X0243107Y0140050D01*
X0244044Y0140438D01*
X0244406Y0140800D01*
X0268346Y0140800D01*
X0269400Y0141854D01*
X0270096Y0142550D01*
X0270607Y0142550D01*
X0271544Y0142938D01*
X0272262Y0143656D01*
X0272650Y0144593D01*
X0272650Y0145607D01*
X0272262Y0146544D01*
X0271544Y0147262D01*
X0270607Y0147650D01*
X0269593Y0147650D01*
X0268656Y0147262D01*
X0267938Y0146544D01*
X0267550Y0145607D01*
X0267550Y0145096D01*
X0266854Y0144400D01*
X0244406Y0144400D01*
X0244044Y0144762D01*
X0243920Y0144813D01*
X0244106Y0145000D01*
X0263763Y0145000D01*
X0278763Y0160000D01*
X0279700Y0160937D01*
X0279700Y0196437D01*
X0285763Y0202500D01*
X0304263Y0202500D01*
X0310500Y0208737D01*
X0310500Y0161487D01*
X0310107Y0161650D01*
X0309093Y0161650D01*
X0308156Y0161262D01*
X0307438Y0160544D01*
X0307050Y0159607D01*
X0307050Y0158593D01*
X0307438Y0157656D01*
X0308156Y0156938D01*
X0308300Y0156878D01*
X0308300Y0137354D01*
X0327030Y0118624D01*
X0326156Y0118262D01*
X0325594Y0117700D01*
X0324437Y0117700D01*
X0313887Y0107150D01*
X0313093Y0107150D01*
X0312156Y0106762D01*
X0311438Y0106044D01*
X0311050Y0105107D01*
X0311050Y0104093D01*
X0311438Y0103156D01*
X0312156Y0102438D01*
X0313093Y0102050D01*
X0314107Y0102050D01*
X0315044Y0102438D01*
X0315762Y0103156D01*
X0316150Y0104093D01*
X0316150Y0104887D01*
X0325678Y0114416D01*
X0326156Y0113938D01*
X0327093Y0113550D01*
X0328107Y0113550D01*
X0329044Y0113938D01*
X0329762Y0114656D01*
X0330124Y0115530D01*
X0348454Y0097200D01*
X0265612Y0097200D01*
X0265262Y0098044D01*
X0264544Y0098762D01*
X0263607Y0099150D01*
X0262593Y0099150D01*
X0261656Y0098762D01*
X0260938Y0098044D01*
X0260550Y0097107D01*
X0260550Y0096093D01*
X0260938Y0095156D01*
X0261656Y0094438D01*
X0262593Y0094050D01*
X0263387Y0094050D01*
X0263437Y0094000D01*
X0357737Y0094000D01*
X0353937Y0090200D01*
X0239763Y0090200D01*
X0238413Y0091550D01*
X0239107Y0091550D01*
X0240044Y0091938D01*
X0240762Y0092656D01*
X0241150Y0093593D01*
X0241150Y0094607D01*
X0240762Y0095544D01*
X0240200Y0096106D01*
X0240200Y0107763D01*
X0235150Y0112813D01*
X0235150Y0113607D01*
X0234762Y0114544D01*
X0234044Y0115262D01*
X0233107Y0115650D01*
X0232093Y0115650D01*
X0231156Y0115262D01*
X0230438Y0114544D01*
X0230350Y0114331D01*
X0230262Y0114544D01*
X0229544Y0115262D01*
X0228607Y0115650D01*
X0227593Y0115650D01*
X0226656Y0115262D01*
X0225938Y0114544D01*
X0225550Y0113607D01*
X0225550Y0112593D01*
X0225938Y0111656D01*
X0226500Y0111094D01*
X0226500Y0110437D01*
X0227437Y0109500D01*
X0233000Y0103937D01*
X0233000Y0092437D01*
X0233937Y0091500D01*
X0236737Y0088700D01*
X0231487Y0088700D01*
X0231650Y0089093D01*
X0231650Y0090107D01*
X0231262Y0091044D01*
X0230544Y0091762D01*
X0229607Y0092150D01*
X0228593Y0092150D01*
X0227688Y0091775D01*
X0223700Y0095763D01*
X0223700Y0108296D01*
X0224044Y0108438D01*
X0224762Y0109156D01*
X0225150Y0110093D01*
X0225150Y0111107D01*
X0224762Y0112044D01*
X0224044Y0112762D01*
X0223107Y0113150D01*
X0222093Y0113150D01*
X0221156Y0112762D01*
X0220600Y0112206D01*
X0220044Y0112762D01*
X0219591Y0112950D01*
X0219650Y0113093D01*
X0219650Y0114107D01*
X0219262Y0115044D01*
X0218544Y0115762D01*
X0217607Y0116150D01*
X0216593Y0116150D01*
X0215656Y0115762D01*
X0215350Y0115456D01*
X0215044Y0115762D01*
X0214107Y0116150D01*
X0213093Y0116150D01*
X0212156Y0115762D01*
X0211850Y0115456D01*
X0211544Y0115762D01*
X0210607Y0116150D01*
X0209593Y0116150D01*
X0208656Y0115762D01*
X0207938Y0115044D01*
X0207550Y0114107D01*
X0207550Y0113093D01*
X0207938Y0112156D01*
X0208656Y0111438D01*
X0209593Y0111050D01*
X0210387Y0111050D01*
X0210500Y0110937D01*
X0210500Y0106106D01*
X0209938Y0105544D01*
X0209550Y0104607D01*
X0209550Y0103593D01*
X0209938Y0102656D01*
X0210656Y0101938D01*
X0211593Y0101550D01*
X0212607Y0101550D01*
X0213000Y0101713D01*
X0213000Y0093937D01*
X0213132Y0093805D01*
X0213050Y0093607D01*
X0213050Y0092593D01*
X0213438Y0091656D01*
X0214156Y0090938D01*
X0215093Y0090550D01*
X0216107Y0090550D01*
X0217044Y0090938D01*
X0217762Y0091656D01*
X0218150Y0092593D01*
X0218150Y0093607D01*
X0217762Y0094544D01*
X0217044Y0095262D01*
X0216200Y0095612D01*
X0216200Y0097713D01*
X0216593Y0097550D01*
X0217607Y0097550D01*
X0218544Y0097938D01*
X0219000Y0098394D01*
X0219000Y0093937D01*
X0219937Y0093000D01*
X0225737Y0087200D01*
X0206763Y0087200D01*
X0200785Y0093177D01*
X0201093Y0093050D01*
X0202107Y0093050D01*
X0203044Y0093438D01*
X0203762Y0094156D01*
X0204150Y0095093D01*
X0204150Y0096107D01*
X0203762Y0097044D01*
X0203200Y0097606D01*
X0203200Y0112263D01*
X0203150Y0112313D01*
X0203150Y0113107D01*
X0202762Y0114044D01*
X0202044Y0114762D01*
X0201107Y0115150D01*
X0200093Y0115150D01*
X0199156Y0114762D01*
X0198438Y0114044D01*
X0198050Y0113107D01*
X0198050Y0112093D01*
X0198438Y0111156D01*
X0199156Y0110438D01*
X0200000Y0110088D01*
X0200000Y0106780D01*
X0199107Y0107150D01*
X0198093Y0107150D01*
X0197156Y0106762D01*
X0196438Y0106044D01*
X0196050Y0105107D01*
X0196050Y0104093D01*
X0196438Y0103156D01*
X0196500Y0103094D01*
X0196500Y0102963D01*
X0195150Y0104313D01*
X0195150Y0105107D01*
X0194762Y0106044D01*
X0194044Y0106762D01*
X0193107Y0107150D01*
X0192093Y0107150D01*
X0191156Y0106762D01*
X0190438Y0106044D01*
X0190050Y0105107D01*
X0190050Y0104093D01*
X0190438Y0103156D01*
X0191156Y0102438D01*
X0192093Y0102050D01*
X0192887Y0102050D01*
X0195000Y0099937D01*
X0195000Y0092437D01*
X0195937Y0091500D01*
X0203237Y0084200D01*
X0196763Y0084200D01*
X0189413Y0091550D01*
X0190107Y0091550D01*
X0191044Y0091938D01*
X0191762Y0092656D01*
X0192150Y0093593D01*
X0192150Y0094607D01*
X0191762Y0095544D01*
X0191044Y0096262D01*
X0190107Y0096650D01*
X0189700Y0096650D01*
X0189700Y0109937D01*
X0189763Y0110000D01*
X0190700Y0110937D01*
X0190700Y0111594D01*
X0191262Y0112156D01*
X0191650Y0113093D01*
X0191650Y0114107D01*
X0191262Y0115044D01*
X0190544Y0115762D01*
X0189607Y0116150D01*
X0188593Y0116150D01*
X0187656Y0115762D01*
X0186938Y0115044D01*
X0186750Y0114591D01*
X0186607Y0114650D01*
X0185593Y0114650D01*
X0184656Y0114262D01*
X0184350Y0113956D01*
X0184044Y0114262D01*
X0183107Y0114650D01*
X0182093Y0114650D01*
X0181156Y0114262D01*
X0180460Y0113566D01*
X0180262Y0114044D01*
X0179544Y0114762D01*
X0178607Y0115150D01*
X0177593Y0115150D01*
X0176656Y0114762D01*
X0175938Y0114044D01*
X0175550Y0113107D01*
X0175550Y0112093D01*
X0175938Y0111156D01*
X0176656Y0110438D01*
X0177593Y0110050D01*
X0178387Y0110050D01*
X0179500Y0108937D01*
X0179500Y0094937D01*
X0180437Y0094000D01*
X0194937Y0079500D01*
X0226713Y0079500D01*
X0226550Y0079107D01*
X0226550Y0078093D01*
X0226938Y0077156D01*
X0227656Y0076438D01*
X0228593Y0076050D01*
X0229387Y0076050D01*
X0250937Y0054500D01*
X0372094Y0054500D01*
X0372656Y0053938D01*
X0373593Y0053550D01*
X0374607Y0053550D01*
X0375544Y0053938D01*
X0376262Y0054656D01*
X0376650Y0055593D01*
X0376650Y0056607D01*
X0376262Y0057544D01*
X0375544Y0058262D01*
X0374607Y0058650D01*
X0373593Y0058650D01*
X0372656Y0058262D01*
X0372094Y0057700D01*
X0370487Y0057700D01*
X0370650Y0058093D01*
X0370650Y0059107D01*
X0370262Y0060044D01*
X0369544Y0060762D01*
X0368607Y0061150D01*
X0367593Y0061150D01*
X0366656Y0060762D01*
X0365938Y0060044D01*
X0365588Y0059200D01*
X0252763Y0059200D01*
X0234775Y0077188D01*
X0235150Y0078093D01*
X0235150Y0079107D01*
X0234987Y0079500D01*
X0365763Y0079500D01*
X0366395Y0080132D01*
X0366593Y0080050D01*
X0367607Y0080050D01*
X0368544Y0080438D01*
X0369262Y0081156D01*
X0369650Y0082093D01*
X0369650Y0083107D01*
X0369262Y0084044D01*
X0368956Y0084350D01*
X0369262Y0084656D01*
X0369650Y0085593D01*
X0369650Y0086607D01*
X0369262Y0087544D01*
X0369018Y0087788D01*
X0369593Y0087550D01*
X0370607Y0087550D01*
X0371544Y0087938D01*
X0372262Y0088656D01*
X0372650Y0089593D01*
X0372650Y0090607D01*
X0372262Y0091544D01*
X0371544Y0092262D01*
X0370607Y0092650D01*
X0369593Y0092650D01*
X0368656Y0092262D01*
X0368650Y0092256D01*
X0368650Y0093107D01*
X0368591Y0093250D01*
X0369044Y0093438D01*
X0369762Y0094156D01*
X0369914Y0094523D01*
X0370000Y0094437D01*
X0370937Y0093500D01*
X0373594Y0093500D01*
X0374156Y0092938D01*
X0375093Y0092550D01*
X0376107Y0092550D01*
X0377044Y0092938D01*
X0377762Y0093656D01*
X0378124Y0094530D01*
X0379677Y0092978D01*
X0379156Y0092762D01*
X0378438Y0092044D01*
X0378050Y0091107D01*
X0378050Y0090093D01*
X0378438Y0089156D01*
X0379156Y0088438D01*
X0380093Y0088050D01*
X0381107Y0088050D01*
X0382044Y0088438D01*
X0382300Y0088694D01*
X0382300Y0071354D01*
X0382895Y0070759D01*
X0382938Y0070656D01*
X0383656Y0069938D01*
X0384593Y0069550D01*
X0385607Y0069550D01*
X0386544Y0069938D01*
X0387262Y0070656D01*
X0387650Y0071593D01*
X0387650Y0072607D01*
X0387262Y0073544D01*
X0386544Y0074262D01*
X0385900Y0074529D01*
X0385900Y0088837D01*
X0386593Y0088550D01*
X0387607Y0088550D01*
X0388544Y0088938D01*
X0389262Y0089656D01*
X0389650Y0090593D01*
X0389650Y0091607D01*
X0389262Y0092544D01*
X0388544Y0093262D01*
X0387607Y0093650D01*
X0387096Y0093650D01*
X0369346Y0111400D01*
X0361346Y0111400D01*
X0356346Y0116400D01*
X0371194Y0116400D01*
X0371656Y0115938D01*
X0372593Y0115550D01*
X0373607Y0115550D01*
X0374544Y0115938D01*
X0375262Y0116656D01*
X0375650Y0117593D01*
X0375650Y0118607D01*
X0375262Y0119544D01*
X0374544Y0120262D01*
X0373607Y0120650D01*
X0372593Y0120650D01*
X0371656Y0120262D01*
X0371194Y0119800D01*
X0356804Y0119800D01*
X0354150Y0122454D01*
X0354150Y0123107D01*
X0353762Y0124044D01*
X0353044Y0124762D01*
X0352107Y0125150D01*
X0351093Y0125150D01*
X0350156Y0124762D01*
X0349438Y0124044D01*
X0349400Y0123952D01*
X0349400Y0127854D01*
X0359846Y0138300D01*
X0360900Y0139354D01*
X0360900Y0155846D01*
X0359846Y0156900D01*
X0355150Y0161596D01*
X0355150Y0162107D01*
X0354762Y0163044D01*
X0354044Y0163762D01*
X0353107Y0164150D01*
X0352093Y0164150D01*
X0351156Y0163762D01*
X0350438Y0163044D01*
X0350200Y0162469D01*
X0350200Y0164763D01*
X0344700Y0170263D01*
X0343763Y0171200D01*
X0320763Y0171200D01*
X0319700Y0172263D01*
X0319700Y0184213D01*
X0320093Y0184050D01*
X0321107Y0184050D01*
X0322044Y0184438D01*
X0322762Y0185156D01*
X0323150Y0186093D01*
X0323150Y0187107D01*
X0322762Y0188044D01*
X0322044Y0188762D01*
X0321200Y0189112D01*
X0321200Y0200937D01*
X0328813Y0208550D01*
X0329607Y0208550D01*
X0330544Y0208938D01*
X0331262Y0209656D01*
X0331650Y0210593D01*
X0331650Y0211607D01*
X0331262Y0212544D01*
X0330544Y0213262D01*
X0329607Y0213650D01*
X0328593Y0213650D01*
X0327656Y0213262D01*
X0326938Y0212544D01*
X0326550Y0211607D01*
X0326550Y0210813D01*
X0319700Y0203963D01*
X0319700Y0205937D01*
X0333763Y0220000D01*
X0334700Y0220937D01*
X0334700Y0231594D01*
X0335262Y0232156D01*
X0335650Y0233093D01*
X0335650Y0234107D01*
X0335262Y0235044D01*
X0334544Y0235762D01*
X0333607Y0236150D01*
X0332593Y0236150D01*
X0332200Y0235987D01*
X0332200Y0248550D01*
X0332607Y0248550D01*
X0333544Y0248938D01*
X0334262Y0249656D01*
X0334650Y0250593D01*
X0334650Y0251607D01*
X0334262Y0252544D01*
X0333544Y0253262D01*
X0332607Y0253650D01*
X0331593Y0253650D01*
X0330656Y0253262D01*
X0329938Y0252544D01*
X0329550Y0251607D01*
X0329550Y0250813D01*
X0329000Y0250263D01*
X0329000Y0221763D01*
X0324700Y0217463D01*
X0324700Y0231594D01*
X0325262Y0232156D01*
X0325650Y0233093D01*
X0325650Y0234107D01*
X0325262Y0235044D01*
X0324544Y0235762D01*
X0323607Y0236150D01*
X0322593Y0236150D01*
X0322200Y0235987D01*
X0322200Y0248550D01*
X0322607Y0248550D01*
X0323544Y0248938D01*
X0324262Y0249656D01*
X0324650Y0250593D01*
X0324650Y0251607D01*
X0324262Y0252544D01*
X0323544Y0253262D01*
X0322607Y0253650D01*
X0321593Y0253650D01*
X0320656Y0253262D01*
X0319938Y0252544D01*
X0319550Y0251607D01*
X0319550Y0250813D01*
X0319000Y0250263D01*
X0319000Y0215763D01*
X0313700Y0210463D01*
X0313700Y0231088D01*
X0314544Y0231438D01*
X0315262Y0232156D01*
X0315650Y0233093D01*
X0315650Y0234107D01*
X0315262Y0235044D01*
X0314544Y0235762D01*
X0313607Y0236150D01*
X0312593Y0236150D01*
X0312200Y0235987D01*
X0312200Y0248550D01*
X0312607Y0248550D01*
X0313544Y0248938D01*
X0314262Y0249656D01*
X0314650Y0250593D01*
X0314650Y0251607D01*
X0314262Y0252544D01*
X0313544Y0253262D01*
X0312607Y0253650D01*
X0311593Y0253650D01*
X0310656Y0253262D01*
X0309938Y0252544D01*
X0309550Y0251607D01*
X0309550Y0250813D01*
X0309000Y0250263D01*
X0309000Y0211763D01*
X0302937Y0205700D01*
X0295963Y0205700D01*
X0304700Y0214437D01*
X0304700Y0231594D01*
X0305262Y0232156D01*
X0305650Y0233093D01*
X0305650Y0234107D01*
X0305262Y0235044D01*
X0304544Y0235762D01*
X0303607Y0236150D01*
X0302593Y0236150D01*
X0302200Y0235987D01*
X0302200Y0248550D01*
X0302607Y0248550D01*
X0303544Y0248938D01*
X0304262Y0249656D01*
X0304650Y0250593D01*
X0304650Y0251607D01*
X0304262Y0252544D01*
X0303544Y0253262D01*
X0302607Y0253650D01*
X0301593Y0253650D01*
X0300656Y0253262D01*
X0299938Y0252544D01*
X0299550Y0251607D01*
X0299550Y0250813D01*
X0299000Y0250263D01*
X0299000Y0215263D01*
X0292437Y0208700D01*
X0283963Y0208700D01*
X0293763Y0218500D01*
X0294700Y0219437D01*
X0294700Y0231594D01*
X0295262Y0232156D01*
X0295650Y0233093D01*
X0295650Y0234107D01*
X0295262Y0235044D01*
X0294544Y0235762D01*
X0293607Y0236150D01*
X0292593Y0236150D01*
X0292200Y0235987D01*
X0292200Y0248550D01*
X0292607Y0248550D01*
X0293544Y0248938D01*
X0294262Y0249656D01*
X0294650Y0250593D01*
X0294650Y0251607D01*
X0294262Y0252544D01*
X0293544Y0253262D01*
X0292607Y0253650D01*
X0291593Y0253650D01*
X0290656Y0253262D01*
X0289938Y0252544D01*
X0289550Y0251607D01*
X0289550Y0250813D01*
X0289000Y0250263D01*
X0289000Y0220263D01*
X0280437Y0211700D01*
X0270763Y0211700D01*
X0267650Y0214813D01*
X0267650Y0215607D01*
X0267262Y0216544D01*
X0266544Y0217262D01*
X0265607Y0217650D01*
X0264593Y0217650D01*
X0264285Y0217523D01*
X0282313Y0235550D01*
X0283107Y0235550D01*
X0284044Y0235938D01*
X0284762Y0236656D01*
X0285150Y0237593D01*
X0285150Y0238607D01*
X0284762Y0239544D01*
X0284044Y0240262D01*
X0283107Y0240650D01*
X0282093Y0240650D01*
X0281700Y0240487D01*
X0281700Y0248437D01*
X0281813Y0248550D01*
X0282607Y0248550D01*
X0283544Y0248938D01*
X0284262Y0249656D01*
X0284650Y0250593D01*
X0284650Y0251607D01*
X0284262Y0252544D01*
X0283544Y0253262D01*
X0282607Y0253650D01*
X0281593Y0253650D01*
X0280656Y0253262D01*
X0279938Y0252544D01*
X0279550Y0251545D02*
X0222308Y0251545D01*
X0221110Y0250347D02*
X0279084Y0250347D01*
X0278500Y0249148D02*
X0219911Y0249148D01*
X0218713Y0247950D02*
X0278500Y0247950D01*
X0278500Y0246751D02*
X0217514Y0246751D01*
X0216316Y0245553D02*
X0278500Y0245553D01*
X0278500Y0244354D02*
X0215117Y0244354D01*
X0213919Y0243156D02*
X0278500Y0243156D01*
X0278500Y0241957D02*
X0212720Y0241957D01*
X0211522Y0240759D02*
X0278500Y0240759D01*
X0278500Y0239560D02*
X0210700Y0239560D01*
X0210700Y0238362D02*
X0278500Y0238362D01*
X0277401Y0237163D02*
X0210700Y0237163D01*
X0210700Y0235965D02*
X0276202Y0235965D01*
X0275004Y0234766D02*
X0210700Y0234766D01*
X0210700Y0233568D02*
X0273805Y0233568D01*
X0272607Y0232369D02*
X0210700Y0232369D01*
X0210700Y0231171D02*
X0271408Y0231171D01*
X0270210Y0229972D02*
X0210700Y0229972D01*
X0217533Y0228774D02*
X0219684Y0228774D01*
X0218744Y0227575D02*
X0218150Y0227575D01*
X0218060Y0226377D02*
X0218550Y0226377D01*
X0217415Y0225178D02*
X0217284Y0225178D01*
X0221518Y0223980D02*
X0264217Y0223980D01*
X0265415Y0225178D02*
X0223271Y0225178D01*
X0223650Y0226377D02*
X0266614Y0226377D01*
X0267812Y0227575D02*
X0223456Y0227575D01*
X0222516Y0228774D02*
X0269011Y0228774D01*
X0271941Y0225178D02*
X0289000Y0225178D01*
X0289000Y0223980D02*
X0270742Y0223980D01*
X0269544Y0222781D02*
X0289000Y0222781D01*
X0289000Y0221583D02*
X0268345Y0221583D01*
X0267147Y0220384D02*
X0289000Y0220384D01*
X0287923Y0219186D02*
X0265948Y0219186D01*
X0264750Y0217987D02*
X0286724Y0217987D01*
X0285526Y0216789D02*
X0267018Y0216789D01*
X0267650Y0215590D02*
X0284327Y0215590D01*
X0283129Y0214392D02*
X0268071Y0214392D01*
X0269270Y0213193D02*
X0281930Y0213193D01*
X0280732Y0211995D02*
X0270468Y0211995D01*
X0274252Y0203605D02*
X0265868Y0203605D01*
X0264669Y0202406D02*
X0275232Y0202406D01*
X0277968Y0202406D02*
X0281144Y0202406D01*
X0279945Y0201208D02*
X0263471Y0201208D01*
X0262700Y0200009D02*
X0278747Y0200009D01*
X0277548Y0198811D02*
X0262700Y0198811D01*
X0262700Y0197612D02*
X0276500Y0197612D01*
X0276500Y0196414D02*
X0262700Y0196414D01*
X0262700Y0195215D02*
X0276500Y0195215D01*
X0276500Y0194017D02*
X0262700Y0194017D01*
X0262700Y0192818D02*
X0276500Y0192818D01*
X0276500Y0191620D02*
X0262700Y0191620D01*
X0262700Y0190421D02*
X0276500Y0190421D01*
X0276500Y0189223D02*
X0262700Y0189223D01*
X0262700Y0188024D02*
X0276500Y0188024D01*
X0276500Y0186826D02*
X0262700Y0186826D01*
X0262700Y0185627D02*
X0276500Y0185627D01*
X0276500Y0184429D02*
X0262700Y0184429D01*
X0262700Y0183230D02*
X0276500Y0183230D01*
X0276500Y0182032D02*
X0262700Y0182032D01*
X0262700Y0180833D02*
X0276500Y0180833D01*
X0276500Y0179635D02*
X0262700Y0179635D01*
X0264307Y0178436D02*
X0276500Y0178436D01*
X0276500Y0177238D02*
X0264650Y0177238D01*
X0264421Y0176039D02*
X0276500Y0176039D01*
X0276500Y0174841D02*
X0263309Y0174841D01*
X0261200Y0173642D02*
X0276500Y0173642D01*
X0276500Y0172444D02*
X0261804Y0172444D01*
X0262150Y0171245D02*
X0276500Y0171245D01*
X0276500Y0170047D02*
X0261924Y0170047D01*
X0260827Y0168848D02*
X0276500Y0168848D01*
X0276500Y0167650D02*
X0254912Y0167650D01*
X0253714Y0166451D02*
X0276500Y0166451D01*
X0276500Y0165253D02*
X0252515Y0165253D01*
X0252150Y0164054D02*
X0276500Y0164054D01*
X0276500Y0162856D02*
X0251845Y0162856D01*
X0250366Y0161657D02*
X0275894Y0161657D01*
X0274696Y0160459D02*
X0246200Y0160459D01*
X0246200Y0161657D02*
X0248834Y0161657D01*
X0247355Y0162856D02*
X0246200Y0162856D01*
X0246200Y0164054D02*
X0246583Y0164054D01*
X0246200Y0159260D02*
X0273497Y0159260D01*
X0272299Y0158062D02*
X0245324Y0158062D01*
X0244650Y0156863D02*
X0271100Y0156863D01*
X0269902Y0155665D02*
X0244265Y0155665D01*
X0239934Y0155665D02*
X0214427Y0155665D01*
X0213229Y0154466D02*
X0268703Y0154466D01*
X0267505Y0153268D02*
X0212030Y0153268D01*
X0210832Y0152069D02*
X0266306Y0152069D01*
X0265108Y0150870D02*
X0209700Y0150870D01*
X0209700Y0149672D02*
X0263909Y0149672D01*
X0262711Y0148473D02*
X0243833Y0148473D01*
X0240367Y0148473D02*
X0209700Y0148473D01*
X0209700Y0147275D02*
X0239619Y0147275D01*
X0239557Y0146076D02*
X0209700Y0146076D01*
X0209700Y0144878D02*
X0240216Y0144878D01*
X0240287Y0143679D02*
X0209700Y0143679D01*
X0209700Y0142481D02*
X0240050Y0142481D01*
X0240386Y0141282D02*
X0209545Y0141282D01*
X0208347Y0140084D02*
X0242011Y0140084D01*
X0243189Y0140084D02*
X0308300Y0140084D01*
X0308300Y0141282D02*
X0268828Y0141282D01*
X0270026Y0142481D02*
X0308300Y0142481D01*
X0308300Y0143679D02*
X0272272Y0143679D01*
X0272650Y0144878D02*
X0308300Y0144878D01*
X0308300Y0146076D02*
X0272456Y0146076D01*
X0271513Y0147275D02*
X0308300Y0147275D01*
X0308300Y0148473D02*
X0267236Y0148473D01*
X0266038Y0147275D02*
X0268687Y0147275D01*
X0267744Y0146076D02*
X0264839Y0146076D01*
X0267332Y0144878D02*
X0243984Y0144878D01*
X0242600Y0142600D02*
X0267600Y0142600D01*
X0270100Y0145100D01*
X0268435Y0149672D02*
X0308300Y0149672D01*
X0308300Y0150870D02*
X0269633Y0150870D01*
X0270832Y0152069D02*
X0308300Y0152069D01*
X0308300Y0153268D02*
X0272030Y0153268D01*
X0273229Y0154466D02*
X0308300Y0154466D01*
X0308300Y0155665D02*
X0274427Y0155665D01*
X0275626Y0156863D02*
X0308300Y0156863D01*
X0307270Y0158062D02*
X0276824Y0158062D01*
X0278023Y0159260D02*
X0307050Y0159260D01*
X0307403Y0160459D02*
X0279221Y0160459D01*
X0278763Y0160000D02*
X0278763Y0160000D01*
X0279700Y0161657D02*
X0310500Y0161657D01*
X0310500Y0162856D02*
X0279700Y0162856D01*
X0279700Y0164054D02*
X0310500Y0164054D01*
X0310500Y0165253D02*
X0279700Y0165253D01*
X0279700Y0166451D02*
X0310500Y0166451D01*
X0310500Y0167650D02*
X0279700Y0167650D01*
X0279700Y0168848D02*
X0310500Y0168848D01*
X0310500Y0170047D02*
X0279700Y0170047D01*
X0279700Y0171245D02*
X0310500Y0171245D01*
X0310500Y0172444D02*
X0279700Y0172444D01*
X0279700Y0173642D02*
X0310500Y0173642D01*
X0310500Y0174841D02*
X0279700Y0174841D01*
X0279700Y0176039D02*
X0310500Y0176039D01*
X0310500Y0177238D02*
X0279700Y0177238D01*
X0279700Y0178436D02*
X0310500Y0178436D01*
X0310500Y0179635D02*
X0279700Y0179635D01*
X0279700Y0180833D02*
X0310500Y0180833D01*
X0310500Y0182032D02*
X0279700Y0182032D01*
X0279700Y0183230D02*
X0310500Y0183230D01*
X0310500Y0184429D02*
X0279700Y0184429D01*
X0279700Y0185627D02*
X0310500Y0185627D01*
X0310500Y0186826D02*
X0279700Y0186826D01*
X0279700Y0188024D02*
X0310500Y0188024D01*
X0310500Y0189223D02*
X0279700Y0189223D01*
X0279700Y0190421D02*
X0310500Y0190421D01*
X0310500Y0191620D02*
X0279700Y0191620D01*
X0279700Y0192818D02*
X0310500Y0192818D01*
X0310500Y0194017D02*
X0279700Y0194017D01*
X0279700Y0195215D02*
X0310500Y0195215D01*
X0310500Y0196414D02*
X0279700Y0196414D01*
X0280875Y0197612D02*
X0310500Y0197612D01*
X0310500Y0198811D02*
X0282074Y0198811D01*
X0283272Y0200009D02*
X0310500Y0200009D01*
X0310500Y0201208D02*
X0284471Y0201208D01*
X0285669Y0202406D02*
X0310500Y0202406D01*
X0310500Y0203605D02*
X0305368Y0203605D01*
X0306566Y0204803D02*
X0310500Y0204803D01*
X0310500Y0206002D02*
X0307765Y0206002D01*
X0308963Y0207201D02*
X0310500Y0207201D01*
X0310500Y0208399D02*
X0310162Y0208399D01*
X0308033Y0210796D02*
X0301059Y0210796D01*
X0302257Y0211995D02*
X0309000Y0211995D01*
X0309000Y0213193D02*
X0303456Y0213193D01*
X0304654Y0214392D02*
X0309000Y0214392D01*
X0309000Y0215590D02*
X0304700Y0215590D01*
X0304700Y0216789D02*
X0309000Y0216789D01*
X0309000Y0217987D02*
X0304700Y0217987D01*
X0304700Y0219186D02*
X0309000Y0219186D01*
X0309000Y0220384D02*
X0304700Y0220384D01*
X0304700Y0221583D02*
X0309000Y0221583D01*
X0309000Y0222781D02*
X0304700Y0222781D01*
X0304700Y0223980D02*
X0309000Y0223980D01*
X0309000Y0225178D02*
X0304700Y0225178D01*
X0304700Y0226377D02*
X0309000Y0226377D01*
X0309000Y0227575D02*
X0304700Y0227575D01*
X0304700Y0228774D02*
X0309000Y0228774D01*
X0309000Y0229972D02*
X0304700Y0229972D01*
X0304700Y0231171D02*
X0309000Y0231171D01*
X0309000Y0232369D02*
X0305350Y0232369D01*
X0305650Y0233568D02*
X0309000Y0233568D01*
X0309000Y0234766D02*
X0305377Y0234766D01*
X0304054Y0235965D02*
X0309000Y0235965D01*
X0309000Y0237163D02*
X0302200Y0237163D01*
X0302200Y0238362D02*
X0309000Y0238362D01*
X0309000Y0239560D02*
X0302200Y0239560D01*
X0302200Y0240759D02*
X0309000Y0240759D01*
X0309000Y0241957D02*
X0302200Y0241957D01*
X0302200Y0243156D02*
X0309000Y0243156D01*
X0309000Y0244354D02*
X0302200Y0244354D01*
X0302200Y0245553D02*
X0309000Y0245553D01*
X0309000Y0246751D02*
X0302200Y0246751D01*
X0302200Y0247950D02*
X0309000Y0247950D01*
X0309000Y0249148D02*
X0303755Y0249148D01*
X0304548Y0250347D02*
X0309084Y0250347D01*
X0309550Y0251545D02*
X0304650Y0251545D01*
X0304062Y0252744D02*
X0310138Y0252744D01*
X0314062Y0252744D02*
X0320138Y0252744D01*
X0319550Y0251545D02*
X0314650Y0251545D01*
X0314548Y0250347D02*
X0319084Y0250347D01*
X0319000Y0249148D02*
X0313755Y0249148D01*
X0312200Y0247950D02*
X0319000Y0247950D01*
X0319000Y0246751D02*
X0312200Y0246751D01*
X0312200Y0245553D02*
X0319000Y0245553D01*
X0319000Y0244354D02*
X0312200Y0244354D01*
X0312200Y0243156D02*
X0319000Y0243156D01*
X0319000Y0241957D02*
X0312200Y0241957D01*
X0312200Y0240759D02*
X0319000Y0240759D01*
X0319000Y0239560D02*
X0312200Y0239560D01*
X0312200Y0238362D02*
X0319000Y0238362D01*
X0319000Y0237163D02*
X0312200Y0237163D01*
X0314054Y0235965D02*
X0319000Y0235965D01*
X0319000Y0234766D02*
X0315377Y0234766D01*
X0315650Y0233568D02*
X0319000Y0233568D01*
X0319000Y0232369D02*
X0315350Y0232369D01*
X0313899Y0231171D02*
X0319000Y0231171D01*
X0319000Y0229972D02*
X0313700Y0229972D01*
X0313700Y0228774D02*
X0319000Y0228774D01*
X0319000Y0227575D02*
X0313700Y0227575D01*
X0313700Y0226377D02*
X0319000Y0226377D01*
X0319000Y0225178D02*
X0313700Y0225178D01*
X0313700Y0223980D02*
X0319000Y0223980D01*
X0319000Y0222781D02*
X0313700Y0222781D01*
X0313700Y0221583D02*
X0319000Y0221583D01*
X0319000Y0220384D02*
X0313700Y0220384D01*
X0313700Y0219186D02*
X0319000Y0219186D01*
X0319000Y0217987D02*
X0313700Y0217987D01*
X0313700Y0216789D02*
X0319000Y0216789D01*
X0318827Y0215590D02*
X0313700Y0215590D01*
X0313700Y0214392D02*
X0317629Y0214392D01*
X0316430Y0213193D02*
X0313700Y0213193D01*
X0313700Y0211995D02*
X0315232Y0211995D01*
X0314033Y0210796D02*
X0313700Y0210796D01*
X0306835Y0209598D02*
X0299860Y0209598D01*
X0298662Y0208399D02*
X0305636Y0208399D01*
X0304438Y0207201D02*
X0297463Y0207201D01*
X0296265Y0206002D02*
X0303239Y0206002D01*
X0296930Y0213193D02*
X0288456Y0213193D01*
X0289654Y0214392D02*
X0298129Y0214392D01*
X0299000Y0215590D02*
X0290853Y0215590D01*
X0292051Y0216789D02*
X0299000Y0216789D01*
X0299000Y0217987D02*
X0293250Y0217987D01*
X0294448Y0219186D02*
X0299000Y0219186D01*
X0299000Y0220384D02*
X0294700Y0220384D01*
X0294700Y0221583D02*
X0299000Y0221583D01*
X0299000Y0222781D02*
X0294700Y0222781D01*
X0294700Y0223980D02*
X0299000Y0223980D01*
X0299000Y0225178D02*
X0294700Y0225178D01*
X0294700Y0226377D02*
X0299000Y0226377D01*
X0299000Y0227575D02*
X0294700Y0227575D01*
X0294700Y0228774D02*
X0299000Y0228774D01*
X0299000Y0229972D02*
X0294700Y0229972D01*
X0294700Y0231171D02*
X0299000Y0231171D01*
X0299000Y0232369D02*
X0295350Y0232369D01*
X0295650Y0233568D02*
X0299000Y0233568D01*
X0299000Y0234766D02*
X0295377Y0234766D01*
X0294054Y0235965D02*
X0299000Y0235965D01*
X0299000Y0237163D02*
X0292200Y0237163D01*
X0292200Y0238362D02*
X0299000Y0238362D01*
X0299000Y0239560D02*
X0292200Y0239560D01*
X0292200Y0240759D02*
X0299000Y0240759D01*
X0299000Y0241957D02*
X0292200Y0241957D01*
X0292200Y0243156D02*
X0299000Y0243156D01*
X0299000Y0244354D02*
X0292200Y0244354D01*
X0292200Y0245553D02*
X0299000Y0245553D01*
X0299000Y0246751D02*
X0292200Y0246751D01*
X0292200Y0247950D02*
X0299000Y0247950D01*
X0299000Y0249148D02*
X0293755Y0249148D01*
X0294548Y0250347D02*
X0299084Y0250347D01*
X0299550Y0251545D02*
X0294650Y0251545D01*
X0294062Y0252744D02*
X0300138Y0252744D01*
X0290138Y0252744D02*
X0284062Y0252744D01*
X0284650Y0251545D02*
X0289550Y0251545D01*
X0289084Y0250347D02*
X0284548Y0250347D01*
X0283755Y0249148D02*
X0289000Y0249148D01*
X0289000Y0247950D02*
X0281700Y0247950D01*
X0281700Y0246751D02*
X0289000Y0246751D01*
X0289000Y0245553D02*
X0281700Y0245553D01*
X0281700Y0244354D02*
X0289000Y0244354D01*
X0289000Y0243156D02*
X0281700Y0243156D01*
X0281700Y0241957D02*
X0289000Y0241957D01*
X0289000Y0240759D02*
X0281700Y0240759D01*
X0284746Y0239560D02*
X0289000Y0239560D01*
X0289000Y0238362D02*
X0285150Y0238362D01*
X0284972Y0237163D02*
X0289000Y0237163D01*
X0289000Y0235965D02*
X0284071Y0235965D01*
X0281529Y0234766D02*
X0289000Y0234766D01*
X0289000Y0233568D02*
X0280330Y0233568D01*
X0279132Y0232369D02*
X0289000Y0232369D01*
X0289000Y0231171D02*
X0277933Y0231171D01*
X0276735Y0229972D02*
X0289000Y0229972D01*
X0289000Y0228774D02*
X0275536Y0228774D01*
X0274338Y0227575D02*
X0289000Y0227575D01*
X0289000Y0226377D02*
X0273139Y0226377D01*
X0263018Y0222781D02*
X0222871Y0222781D01*
X0223150Y0221583D02*
X0261820Y0221583D01*
X0260621Y0220384D02*
X0224079Y0220384D01*
X0225277Y0219186D02*
X0259423Y0219186D01*
X0258224Y0217987D02*
X0226476Y0217987D01*
X0227674Y0216789D02*
X0257026Y0216789D01*
X0255827Y0215590D02*
X0228873Y0215590D01*
X0230071Y0214392D02*
X0254629Y0214392D01*
X0253430Y0213193D02*
X0240113Y0213193D01*
X0240650Y0211995D02*
X0252232Y0211995D01*
X0252937Y0212700D02*
X0252937Y0212700D01*
X0252000Y0210796D02*
X0240527Y0210796D01*
X0239704Y0209598D02*
X0252000Y0209598D01*
X0252000Y0208399D02*
X0239700Y0208399D01*
X0239700Y0207201D02*
X0252000Y0207201D01*
X0252000Y0206002D02*
X0239700Y0206002D01*
X0239700Y0204803D02*
X0252000Y0204803D01*
X0252000Y0203605D02*
X0239700Y0203605D01*
X0239700Y0202406D02*
X0252000Y0202406D01*
X0252000Y0201208D02*
X0239700Y0201208D01*
X0239700Y0200009D02*
X0252000Y0200009D01*
X0252000Y0198811D02*
X0239700Y0198811D01*
X0239700Y0197612D02*
X0252000Y0197612D01*
X0252000Y0196414D02*
X0239700Y0196414D01*
X0239700Y0195215D02*
X0252000Y0195215D01*
X0252000Y0194017D02*
X0239700Y0194017D01*
X0239700Y0192818D02*
X0252000Y0192818D01*
X0252000Y0191620D02*
X0239700Y0191620D01*
X0239700Y0190421D02*
X0252000Y0190421D01*
X0252000Y0189223D02*
X0239700Y0189223D01*
X0239700Y0188024D02*
X0252000Y0188024D01*
X0251063Y0186826D02*
X0239700Y0186826D01*
X0239700Y0185627D02*
X0249865Y0185627D01*
X0248666Y0184429D02*
X0239700Y0184429D01*
X0239700Y0183230D02*
X0247468Y0183230D01*
X0246269Y0182032D02*
X0239700Y0182032D01*
X0239700Y0180833D02*
X0245071Y0180833D01*
X0243872Y0179635D02*
X0239700Y0179635D01*
X0239700Y0178436D02*
X0242674Y0178436D01*
X0241500Y0177238D02*
X0239700Y0177238D01*
X0239700Y0176039D02*
X0241500Y0176039D01*
X0241500Y0174841D02*
X0239700Y0174841D01*
X0239700Y0173642D02*
X0241500Y0173642D01*
X0241500Y0172444D02*
X0239700Y0172444D01*
X0239700Y0171245D02*
X0241500Y0171245D01*
X0241500Y0170047D02*
X0239700Y0170047D01*
X0239111Y0168848D02*
X0241500Y0168848D01*
X0241500Y0167650D02*
X0237912Y0167650D01*
X0236714Y0166451D02*
X0241500Y0166451D01*
X0241500Y0165253D02*
X0235515Y0165253D01*
X0234317Y0164054D02*
X0241500Y0164054D01*
X0240382Y0162856D02*
X0233118Y0162856D01*
X0231920Y0161657D02*
X0239278Y0161657D01*
X0239050Y0160459D02*
X0230721Y0160459D01*
X0229523Y0159260D02*
X0239395Y0159260D01*
X0239738Y0158062D02*
X0228324Y0158062D01*
X0227126Y0156863D02*
X0239550Y0156863D01*
X0229387Y0167650D02*
X0224756Y0167650D01*
X0224762Y0167656D02*
X0225150Y0168593D01*
X0225150Y0169233D01*
X0225593Y0169050D01*
X0226607Y0169050D01*
X0227544Y0169438D01*
X0228262Y0170156D01*
X0228650Y0171093D01*
X0228650Y0172050D01*
X0229107Y0172050D01*
X0230044Y0172438D01*
X0230762Y0173156D01*
X0231150Y0174093D01*
X0231150Y0174387D01*
X0231200Y0174437D01*
X0231200Y0185650D01*
X0232687Y0185650D01*
X0233500Y0186119D01*
X0233500Y0171763D01*
X0223937Y0162200D01*
X0212437Y0162200D01*
X0211500Y0161263D01*
X0211500Y0161263D01*
X0204437Y0154200D01*
X0203500Y0153263D01*
X0203500Y0143763D01*
X0203150Y0143413D01*
X0203150Y0143607D01*
X0202762Y0144544D01*
X0202200Y0145106D01*
X0202200Y0145763D01*
X0201263Y0146700D01*
X0200263Y0147700D01*
X0177263Y0147700D01*
X0177200Y0147763D01*
X0177200Y0158737D01*
X0177550Y0158387D01*
X0177550Y0157593D01*
X0177938Y0156656D01*
X0178656Y0155938D01*
X0179593Y0155550D01*
X0180607Y0155550D01*
X0181544Y0155938D01*
X0182262Y0156656D01*
X0182650Y0157593D01*
X0182650Y0158607D01*
X0182591Y0158750D01*
X0183044Y0158938D01*
X0183762Y0159656D01*
X0184150Y0160593D01*
X0184150Y0161050D01*
X0184607Y0161050D01*
X0185544Y0161438D01*
X0186262Y0162156D01*
X0186650Y0163093D01*
X0186650Y0163550D01*
X0187107Y0163550D01*
X0188044Y0163938D01*
X0188762Y0164656D01*
X0189150Y0165593D01*
X0189150Y0166607D01*
X0188780Y0167500D01*
X0195437Y0167500D01*
X0199937Y0163000D01*
X0207986Y0163000D01*
X0208530Y0162922D01*
X0208633Y0163000D01*
X0208763Y0163000D01*
X0209151Y0163388D01*
X0210611Y0164483D01*
X0211156Y0163938D01*
X0212093Y0163550D01*
X0213107Y0163550D01*
X0214044Y0163938D01*
X0214762Y0164656D01*
X0215150Y0165593D01*
X0215150Y0166550D01*
X0215607Y0166550D01*
X0216544Y0166938D01*
X0216850Y0167244D01*
X0217156Y0166938D01*
X0218093Y0166550D01*
X0219107Y0166550D01*
X0220044Y0166938D01*
X0220600Y0167494D01*
X0221156Y0166938D01*
X0222093Y0166550D01*
X0223107Y0166550D01*
X0224044Y0166938D01*
X0224762Y0167656D01*
X0225150Y0168848D02*
X0230585Y0168848D01*
X0231784Y0170047D02*
X0228153Y0170047D01*
X0228650Y0171245D02*
X0232982Y0171245D01*
X0233500Y0172444D02*
X0230050Y0172444D01*
X0230963Y0173642D02*
X0233500Y0173642D01*
X0233500Y0174841D02*
X0231200Y0174841D01*
X0231200Y0176039D02*
X0233500Y0176039D01*
X0233500Y0177238D02*
X0231200Y0177238D01*
X0231200Y0178436D02*
X0233500Y0178436D01*
X0233500Y0179635D02*
X0231200Y0179635D01*
X0231200Y0180833D02*
X0233500Y0180833D01*
X0233500Y0182032D02*
X0231200Y0182032D01*
X0231200Y0183230D02*
X0233500Y0183230D01*
X0233500Y0184429D02*
X0231200Y0184429D01*
X0231200Y0185627D02*
X0233500Y0185627D01*
X0246200Y0175437D02*
X0255000Y0184237D01*
X0255000Y0174263D01*
X0249022Y0168284D01*
X0248544Y0168762D01*
X0247607Y0169150D01*
X0246593Y0169150D01*
X0246200Y0168987D01*
X0246200Y0175437D01*
X0246200Y0174841D02*
X0255000Y0174841D01*
X0255000Y0176039D02*
X0246802Y0176039D01*
X0248000Y0177238D02*
X0255000Y0177238D01*
X0255000Y0178436D02*
X0249199Y0178436D01*
X0250397Y0179635D02*
X0255000Y0179635D01*
X0255000Y0180833D02*
X0251596Y0180833D01*
X0252795Y0182032D02*
X0255000Y0182032D01*
X0255000Y0183230D02*
X0253993Y0183230D01*
X0254379Y0173642D02*
X0246200Y0173642D01*
X0246200Y0172444D02*
X0253181Y0172444D01*
X0251982Y0171245D02*
X0246200Y0171245D01*
X0246200Y0170047D02*
X0250784Y0170047D01*
X0249585Y0168848D02*
X0248336Y0168848D01*
X0256111Y0168848D02*
X0258373Y0168848D01*
X0228188Y0166451D02*
X0215150Y0166451D01*
X0215009Y0165253D02*
X0226990Y0165253D01*
X0225791Y0164054D02*
X0214160Y0164054D01*
X0211040Y0164054D02*
X0210039Y0164054D01*
X0211894Y0161657D02*
X0185763Y0161657D01*
X0186552Y0162856D02*
X0224593Y0162856D01*
X0210696Y0160459D02*
X0184094Y0160459D01*
X0183366Y0159260D02*
X0209497Y0159260D01*
X0208299Y0158062D02*
X0182650Y0158062D01*
X0182348Y0156863D02*
X0207100Y0156863D01*
X0205902Y0155665D02*
X0180884Y0155665D01*
X0179316Y0155665D02*
X0177200Y0155665D01*
X0177200Y0156863D02*
X0177852Y0156863D01*
X0177550Y0158062D02*
X0177200Y0158062D01*
X0177200Y0154466D02*
X0204703Y0154466D01*
X0204437Y0154200D02*
X0204437Y0154200D01*
X0203505Y0153268D02*
X0177200Y0153268D01*
X0177200Y0152069D02*
X0203500Y0152069D01*
X0203500Y0150870D02*
X0177200Y0150870D01*
X0177200Y0149672D02*
X0203500Y0149672D01*
X0203500Y0148473D02*
X0177200Y0148473D01*
X0168000Y0148473D02*
X0165700Y0148473D01*
X0165700Y0149672D02*
X0168000Y0149672D01*
X0168000Y0150870D02*
X0165700Y0150870D01*
X0165700Y0152069D02*
X0168000Y0152069D01*
X0168000Y0153268D02*
X0165700Y0153268D01*
X0165700Y0154466D02*
X0168000Y0154466D01*
X0168000Y0155665D02*
X0165700Y0155665D01*
X0165700Y0156863D02*
X0168000Y0156863D01*
X0168000Y0158062D02*
X0165700Y0158062D01*
X0165700Y0159260D02*
X0168000Y0159260D01*
X0168000Y0160459D02*
X0165700Y0160459D01*
X0165700Y0161657D02*
X0168000Y0161657D01*
X0168000Y0162856D02*
X0165700Y0162856D01*
X0165700Y0164054D02*
X0168000Y0164054D01*
X0168000Y0165253D02*
X0165700Y0165253D01*
X0165700Y0166451D02*
X0168000Y0166451D01*
X0168000Y0167650D02*
X0165700Y0167650D01*
X0165700Y0168848D02*
X0168000Y0168848D01*
X0168000Y0170047D02*
X0165700Y0170047D01*
X0165700Y0171245D02*
X0168000Y0171245D01*
X0168000Y0172444D02*
X0165700Y0172444D01*
X0165700Y0173642D02*
X0168000Y0173642D01*
X0168000Y0174841D02*
X0165700Y0174841D01*
X0165700Y0176039D02*
X0168000Y0176039D01*
X0168000Y0177238D02*
X0165700Y0177238D01*
X0165700Y0178436D02*
X0168000Y0178436D01*
X0168000Y0179635D02*
X0165700Y0179635D01*
X0165700Y0180833D02*
X0168000Y0180833D01*
X0168000Y0182032D02*
X0165700Y0182032D01*
X0165700Y0183230D02*
X0168000Y0183230D01*
X0168000Y0184429D02*
X0165700Y0184429D01*
X0165700Y0185627D02*
X0168000Y0185627D01*
X0167611Y0186826D02*
X0165700Y0186826D01*
X0165438Y0188024D02*
X0166413Y0188024D01*
X0163121Y0190421D02*
X0163041Y0190421D01*
X0163055Y0191620D02*
X0162700Y0191620D01*
X0162925Y0192818D02*
X0163712Y0192818D01*
X0163619Y0194017D02*
X0164081Y0194017D01*
X0164095Y0195215D02*
X0163605Y0195215D01*
X0162892Y0196414D02*
X0164808Y0196414D01*
X0165050Y0197612D02*
X0155200Y0197612D01*
X0155200Y0196414D02*
X0159308Y0196414D01*
X0158595Y0195215D02*
X0155200Y0195215D01*
X0155200Y0194017D02*
X0155927Y0194017D01*
X0155550Y0192818D02*
X0155200Y0192818D01*
X0155200Y0191620D02*
X0155746Y0191620D01*
X0155200Y0190421D02*
X0156500Y0190421D01*
X0157214Y0189223D02*
X0155200Y0189223D01*
X0155200Y0188024D02*
X0158413Y0188024D01*
X0159611Y0186826D02*
X0155200Y0186826D01*
X0155200Y0185627D02*
X0160810Y0185627D01*
X0161000Y0184429D02*
X0155200Y0184429D01*
X0155200Y0183230D02*
X0161000Y0183230D01*
X0161000Y0182032D02*
X0155200Y0182032D01*
X0155200Y0180833D02*
X0161000Y0180833D01*
X0161000Y0179635D02*
X0155200Y0179635D01*
X0155200Y0178436D02*
X0161000Y0178436D01*
X0161000Y0177238D02*
X0155200Y0177238D01*
X0155200Y0176039D02*
X0161000Y0176039D01*
X0161000Y0174841D02*
X0155200Y0174841D01*
X0155200Y0173642D02*
X0161000Y0173642D01*
X0161000Y0172444D02*
X0155200Y0172444D01*
X0155200Y0171245D02*
X0161000Y0171245D01*
X0161000Y0170047D02*
X0155200Y0170047D01*
X0155200Y0168848D02*
X0161000Y0168848D01*
X0161000Y0167650D02*
X0155200Y0167650D01*
X0156800Y0166451D02*
X0161000Y0166451D01*
X0161000Y0165253D02*
X0157150Y0165253D01*
X0156927Y0164054D02*
X0161000Y0164054D01*
X0161000Y0162856D02*
X0156840Y0162856D01*
X0157150Y0161657D02*
X0161000Y0161657D01*
X0161000Y0160459D02*
X0156887Y0160459D01*
X0156880Y0159260D02*
X0161000Y0159260D01*
X0161000Y0158062D02*
X0157150Y0158062D01*
X0156848Y0156863D02*
X0161000Y0156863D01*
X0161000Y0155665D02*
X0155384Y0155665D01*
X0153816Y0155665D02*
X0144300Y0155665D01*
X0144300Y0156863D02*
X0152352Y0156863D01*
X0152050Y0158062D02*
X0144300Y0158062D01*
X0144300Y0159260D02*
X0151177Y0159260D01*
X0149979Y0160459D02*
X0144300Y0160459D01*
X0144300Y0161657D02*
X0149000Y0161657D01*
X0149000Y0162856D02*
X0144300Y0162856D01*
X0144300Y0164054D02*
X0149000Y0164054D01*
X0149000Y0165253D02*
X0144300Y0165253D01*
X0144300Y0166451D02*
X0149000Y0166451D01*
X0149000Y0167650D02*
X0144300Y0167650D01*
X0144300Y0168848D02*
X0149000Y0168848D01*
X0149000Y0170047D02*
X0144300Y0170047D01*
X0144300Y0171245D02*
X0149000Y0171245D01*
X0149000Y0172444D02*
X0144300Y0172444D01*
X0144300Y0173642D02*
X0149000Y0173642D01*
X0149000Y0174841D02*
X0144300Y0174841D01*
X0144300Y0176039D02*
X0149000Y0176039D01*
X0149000Y0177238D02*
X0144300Y0177238D01*
X0144300Y0178436D02*
X0149000Y0178436D01*
X0149000Y0179635D02*
X0144300Y0179635D01*
X0144300Y0180833D02*
X0149000Y0180833D01*
X0149000Y0182032D02*
X0144300Y0182032D01*
X0144300Y0183230D02*
X0149000Y0183230D01*
X0149000Y0184429D02*
X0144300Y0184429D01*
X0144300Y0185627D02*
X0149000Y0185627D01*
X0149000Y0186826D02*
X0144300Y0186826D01*
X0144300Y0188024D02*
X0149000Y0188024D01*
X0149000Y0189223D02*
X0144300Y0189223D01*
X0144300Y0190421D02*
X0149000Y0190421D01*
X0149000Y0191620D02*
X0144300Y0191620D01*
X0144300Y0192818D02*
X0149000Y0192818D01*
X0149000Y0194017D02*
X0144300Y0194017D01*
X0144300Y0195215D02*
X0149000Y0195215D01*
X0149000Y0196414D02*
X0144300Y0196414D01*
X0144300Y0197612D02*
X0149000Y0197612D01*
X0149000Y0198811D02*
X0144300Y0198811D01*
X0144300Y0200009D02*
X0149000Y0200009D01*
X0149000Y0201208D02*
X0144300Y0201208D01*
X0144300Y0202406D02*
X0149000Y0202406D01*
X0149000Y0203605D02*
X0144300Y0203605D01*
X0144300Y0204803D02*
X0149000Y0204803D01*
X0149000Y0206002D02*
X0144300Y0206002D01*
X0144300Y0207201D02*
X0149000Y0207201D01*
X0149000Y0208399D02*
X0144300Y0208399D01*
X0144300Y0209598D02*
X0149000Y0209598D01*
X0149000Y0210796D02*
X0144300Y0210796D01*
X0144300Y0211995D02*
X0149000Y0211995D01*
X0149000Y0213193D02*
X0144300Y0213193D01*
X0144300Y0214392D02*
X0149000Y0214392D01*
X0149000Y0215590D02*
X0144300Y0215590D01*
X0144300Y0216789D02*
X0149000Y0216789D01*
X0149000Y0217987D02*
X0144300Y0217987D01*
X0144300Y0219186D02*
X0149000Y0219186D01*
X0149000Y0220384D02*
X0144300Y0220384D01*
X0144300Y0221583D02*
X0149000Y0221583D01*
X0149000Y0222781D02*
X0144300Y0222781D01*
X0144300Y0223980D02*
X0149000Y0223980D01*
X0149000Y0225178D02*
X0144300Y0225178D01*
X0144300Y0226377D02*
X0149000Y0226377D01*
X0149000Y0227575D02*
X0144300Y0227575D01*
X0144300Y0228774D02*
X0149000Y0228774D01*
X0149000Y0229972D02*
X0144300Y0229972D01*
X0144300Y0231171D02*
X0149000Y0231171D01*
X0149000Y0232369D02*
X0144300Y0232369D01*
X0144300Y0233568D02*
X0149305Y0233568D01*
X0150504Y0234766D02*
X0144300Y0234766D01*
X0144300Y0235965D02*
X0151702Y0235965D01*
X0152901Y0237163D02*
X0144300Y0237163D01*
X0144300Y0238362D02*
X0154099Y0238362D01*
X0155298Y0239560D02*
X0144300Y0239560D01*
X0144300Y0240759D02*
X0156496Y0240759D01*
X0157695Y0241957D02*
X0144300Y0241957D01*
X0144300Y0243156D02*
X0158893Y0243156D01*
X0160092Y0244354D02*
X0144300Y0244354D01*
X0144300Y0245553D02*
X0161290Y0245553D01*
X0162489Y0246751D02*
X0144300Y0246751D01*
X0144300Y0247950D02*
X0163687Y0247950D01*
X0164886Y0249148D02*
X0144300Y0249148D01*
X0144300Y0250347D02*
X0166084Y0250347D01*
X0167283Y0251545D02*
X0144300Y0251545D01*
X0144300Y0252744D02*
X0168481Y0252744D01*
X0171014Y0246751D02*
X0185000Y0246751D01*
X0185000Y0245553D02*
X0169816Y0245553D01*
X0168617Y0244354D02*
X0185000Y0244354D01*
X0185000Y0243156D02*
X0167419Y0243156D01*
X0166220Y0241957D02*
X0185000Y0241957D01*
X0185000Y0240759D02*
X0165022Y0240759D01*
X0163823Y0239560D02*
X0185000Y0239560D01*
X0185000Y0238362D02*
X0162625Y0238362D01*
X0161426Y0237163D02*
X0185000Y0237163D01*
X0185000Y0235965D02*
X0160228Y0235965D01*
X0159029Y0234766D02*
X0185000Y0234766D01*
X0185000Y0233568D02*
X0157830Y0233568D01*
X0156632Y0232369D02*
X0185000Y0232369D01*
X0185000Y0231171D02*
X0155433Y0231171D01*
X0155200Y0229972D02*
X0171164Y0229972D01*
X0169826Y0228774D02*
X0155200Y0228774D01*
X0155200Y0227575D02*
X0169550Y0227575D01*
X0169847Y0226377D02*
X0155200Y0226377D01*
X0155200Y0225178D02*
X0170500Y0225178D01*
X0170500Y0223980D02*
X0155200Y0223980D01*
X0155200Y0222781D02*
X0171156Y0222781D01*
X0172355Y0221583D02*
X0155200Y0221583D01*
X0155200Y0220384D02*
X0173553Y0220384D01*
X0174752Y0219186D02*
X0155200Y0219186D01*
X0155200Y0217987D02*
X0175500Y0217987D01*
X0175500Y0216789D02*
X0155200Y0216789D01*
X0155200Y0215590D02*
X0175500Y0215590D01*
X0175500Y0214392D02*
X0155200Y0214392D01*
X0155200Y0213193D02*
X0175500Y0213193D01*
X0175500Y0211995D02*
X0155200Y0211995D01*
X0155200Y0210796D02*
X0175500Y0210796D01*
X0175500Y0209598D02*
X0155200Y0209598D01*
X0155200Y0208399D02*
X0175500Y0208399D01*
X0175500Y0207201D02*
X0155200Y0207201D01*
X0155200Y0206002D02*
X0169896Y0206002D01*
X0169131Y0204803D02*
X0155200Y0204803D01*
X0155200Y0203605D02*
X0168984Y0203605D01*
X0167381Y0202406D02*
X0155200Y0202406D01*
X0155200Y0201208D02*
X0167050Y0201208D01*
X0165903Y0200009D02*
X0155200Y0200009D01*
X0155200Y0198811D02*
X0165134Y0198811D01*
X0174159Y0204803D02*
X0175500Y0204803D01*
X0175500Y0203605D02*
X0175358Y0203605D01*
X0175500Y0206002D02*
X0173304Y0206002D01*
X0186200Y0193437D02*
X0187600Y0194837D01*
X0193500Y0188937D01*
X0193500Y0179263D01*
X0191437Y0177200D01*
X0190500Y0176263D01*
X0190500Y0175606D01*
X0190350Y0175456D01*
X0190200Y0175606D01*
X0190200Y0189763D01*
X0189650Y0190313D01*
X0189650Y0191107D01*
X0189262Y0192044D01*
X0188544Y0192762D01*
X0187607Y0193150D01*
X0186593Y0193150D01*
X0186200Y0192987D01*
X0186200Y0193437D01*
X0186780Y0194017D02*
X0188420Y0194017D01*
X0188408Y0192818D02*
X0189619Y0192818D01*
X0189438Y0191620D02*
X0190817Y0191620D01*
X0189650Y0190421D02*
X0192016Y0190421D01*
X0193214Y0189223D02*
X0190200Y0189223D01*
X0190200Y0188024D02*
X0193500Y0188024D01*
X0193500Y0186826D02*
X0190200Y0186826D01*
X0190200Y0185627D02*
X0193500Y0185627D01*
X0193500Y0184429D02*
X0190200Y0184429D01*
X0190200Y0183230D02*
X0193500Y0183230D01*
X0193500Y0182032D02*
X0190200Y0182032D01*
X0190200Y0180833D02*
X0193500Y0180833D01*
X0193500Y0179635D02*
X0190200Y0179635D01*
X0190200Y0178436D02*
X0192674Y0178436D01*
X0191475Y0177238D02*
X0190200Y0177238D01*
X0190200Y0176039D02*
X0190500Y0176039D01*
X0191437Y0177200D02*
X0191437Y0177200D01*
X0189150Y0166451D02*
X0196486Y0166451D01*
X0197685Y0165253D02*
X0189009Y0165253D01*
X0188160Y0164054D02*
X0198883Y0164054D01*
X0200688Y0147275D02*
X0203500Y0147275D01*
X0203500Y0146076D02*
X0201886Y0146076D01*
X0202428Y0144878D02*
X0203500Y0144878D01*
X0203417Y0143679D02*
X0203120Y0143679D01*
X0207148Y0138885D02*
X0308300Y0138885D01*
X0308300Y0137687D02*
X0205950Y0137687D01*
X0204751Y0136488D02*
X0309166Y0136488D01*
X0310365Y0135290D02*
X0203553Y0135290D01*
X0202354Y0134091D02*
X0311563Y0134091D01*
X0312762Y0132893D02*
X0201156Y0132893D01*
X0199957Y0131694D02*
X0313960Y0131694D01*
X0315159Y0130496D02*
X0198759Y0130496D01*
X0197560Y0129297D02*
X0316357Y0129297D01*
X0317556Y0128099D02*
X0196362Y0128099D01*
X0195163Y0126900D02*
X0318754Y0126900D01*
X0319953Y0125702D02*
X0193964Y0125702D01*
X0187609Y0124503D02*
X0321151Y0124503D01*
X0322350Y0123305D02*
X0144300Y0123305D01*
X0144300Y0124503D02*
X0183591Y0124503D01*
X0183050Y0125702D02*
X0144300Y0125702D01*
X0144300Y0126900D02*
X0181193Y0126900D01*
X0180550Y0128099D02*
X0144300Y0128099D01*
X0144300Y0129297D02*
X0178796Y0129297D01*
X0178090Y0130496D02*
X0144300Y0130496D01*
X0144300Y0131694D02*
X0178086Y0131694D01*
X0178787Y0132893D02*
X0144300Y0132893D01*
X0144300Y0134091D02*
X0188251Y0134091D01*
X0188050Y0132893D02*
X0185570Y0132893D01*
X0170647Y0135290D02*
X0144300Y0135290D01*
X0144300Y0136488D02*
X0169449Y0136488D01*
X0168250Y0137687D02*
X0144300Y0137687D01*
X0144300Y0138885D02*
X0168000Y0138885D01*
X0168000Y0140084D02*
X0144300Y0140084D01*
X0144300Y0141282D02*
X0159811Y0141282D01*
X0159096Y0142481D02*
X0144300Y0142481D01*
X0144300Y0143679D02*
X0159080Y0143679D01*
X0159772Y0144878D02*
X0144300Y0144878D01*
X0144300Y0146076D02*
X0161000Y0146076D01*
X0161000Y0147275D02*
X0144300Y0147275D01*
X0144300Y0148473D02*
X0161000Y0148473D01*
X0161000Y0149672D02*
X0144300Y0149672D01*
X0144300Y0150870D02*
X0161000Y0150870D01*
X0161000Y0152069D02*
X0144300Y0152069D01*
X0144300Y0153268D02*
X0161000Y0153268D01*
X0161000Y0154466D02*
X0144300Y0154466D01*
X0164104Y0142481D02*
X0168000Y0142481D01*
X0168000Y0143679D02*
X0166786Y0143679D01*
X0167561Y0144878D02*
X0168000Y0144878D01*
X0168000Y0146076D02*
X0167650Y0146076D01*
X0168000Y0147275D02*
X0167031Y0147275D01*
X0168000Y0141282D02*
X0163389Y0141282D01*
X0144300Y0122106D02*
X0323548Y0122106D01*
X0324747Y0120908D02*
X0144300Y0120908D01*
X0144300Y0119709D02*
X0325945Y0119709D01*
X0326756Y0118511D02*
X0144300Y0118511D01*
X0144300Y0117312D02*
X0324049Y0117312D01*
X0322851Y0116114D02*
X0217695Y0116114D01*
X0216505Y0116114D02*
X0214195Y0116114D01*
X0213005Y0116114D02*
X0210695Y0116114D01*
X0209505Y0116114D02*
X0189695Y0116114D01*
X0188505Y0116114D02*
X0144300Y0116114D01*
X0144300Y0114915D02*
X0177026Y0114915D01*
X0175802Y0113717D02*
X0144300Y0113717D01*
X0144300Y0112518D02*
X0175550Y0112518D01*
X0175870Y0111320D02*
X0144300Y0111320D01*
X0144300Y0110121D02*
X0177421Y0110121D01*
X0179500Y0108923D02*
X0144300Y0108923D01*
X0144300Y0107724D02*
X0179500Y0107724D01*
X0179500Y0106526D02*
X0144300Y0106526D01*
X0144300Y0105327D02*
X0179500Y0105327D01*
X0179500Y0104129D02*
X0144300Y0104129D01*
X0144300Y0102930D02*
X0179500Y0102930D01*
X0179500Y0101732D02*
X0144300Y0101732D01*
X0144300Y0100533D02*
X0179500Y0100533D01*
X0179500Y0099334D02*
X0144300Y0099334D01*
X0144300Y0098136D02*
X0179500Y0098136D01*
X0179500Y0096937D02*
X0144300Y0096937D01*
X0144300Y0095739D02*
X0179500Y0095739D01*
X0179897Y0094540D02*
X0144300Y0094540D01*
X0144300Y0093342D02*
X0181095Y0093342D01*
X0182294Y0092143D02*
X0144300Y0092143D01*
X0144300Y0090945D02*
X0183492Y0090945D01*
X0184691Y0089746D02*
X0144300Y0089746D01*
X0144300Y0088548D02*
X0185889Y0088548D01*
X0187088Y0087349D02*
X0144300Y0087349D01*
X0144300Y0086151D02*
X0188286Y0086151D01*
X0189485Y0084952D02*
X0144300Y0084952D01*
X0144300Y0083754D02*
X0190683Y0083754D01*
X0191882Y0082555D02*
X0144300Y0082555D01*
X0144300Y0081357D02*
X0193080Y0081357D01*
X0194279Y0080158D02*
X0144300Y0080158D01*
X0144300Y0078960D02*
X0226550Y0078960D01*
X0226687Y0077761D02*
X0144300Y0077761D01*
X0144300Y0076563D02*
X0227531Y0076563D01*
X0230073Y0075364D02*
X0144300Y0075364D01*
X0144300Y0074166D02*
X0231271Y0074166D01*
X0232470Y0072967D02*
X0144300Y0072967D01*
X0144300Y0071769D02*
X0233669Y0071769D01*
X0234867Y0070570D02*
X0144300Y0070570D01*
X0144300Y0069372D02*
X0236066Y0069372D01*
X0237264Y0068173D02*
X0144300Y0068173D01*
X0144300Y0066975D02*
X0238463Y0066975D01*
X0239661Y0065776D02*
X0144300Y0065776D01*
X0144300Y0064578D02*
X0148717Y0064578D01*
X0146641Y0063379D02*
X0144300Y0063379D01*
X0144300Y0062181D02*
X0145333Y0062181D01*
X0144462Y0060982D02*
X0144300Y0060982D01*
X0154070Y0064578D02*
X0240860Y0064578D01*
X0242058Y0063379D02*
X0156551Y0063379D01*
X0157882Y0062181D02*
X0243257Y0062181D01*
X0244455Y0060982D02*
X0158790Y0060982D01*
X0159323Y0059784D02*
X0245654Y0059784D01*
X0246852Y0058585D02*
X0159857Y0058585D01*
X0159950Y0057387D02*
X0248051Y0057387D01*
X0249249Y0056188D02*
X0159950Y0056188D01*
X0159950Y0054990D02*
X0250448Y0054990D01*
X0252179Y0059784D02*
X0365830Y0059784D01*
X0367188Y0060982D02*
X0250981Y0060982D01*
X0249782Y0062181D02*
X0385333Y0062181D01*
X0384462Y0060982D02*
X0369012Y0060982D01*
X0370370Y0059784D02*
X0383740Y0059784D01*
X0383485Y0058585D02*
X0374764Y0058585D01*
X0373436Y0058585D02*
X0370650Y0058585D01*
X0373011Y0053791D02*
X0159490Y0053791D01*
X0158956Y0052593D02*
X0384190Y0052593D01*
X0383660Y0053791D02*
X0375189Y0053791D01*
X0376400Y0054990D02*
X0383405Y0054990D01*
X0383151Y0056188D02*
X0376650Y0056188D01*
X0376327Y0057387D02*
X0383230Y0057387D01*
X0386641Y0063379D02*
X0248584Y0063379D01*
X0247385Y0064578D02*
X0388717Y0064578D01*
X0394070Y0064578D02*
X0398900Y0064578D01*
X0398900Y0065776D02*
X0246187Y0065776D01*
X0244988Y0066975D02*
X0398900Y0066975D01*
X0398900Y0068173D02*
X0243790Y0068173D01*
X0242591Y0069372D02*
X0398900Y0069372D01*
X0398900Y0070570D02*
X0387176Y0070570D01*
X0387650Y0071769D02*
X0398900Y0071769D01*
X0398900Y0072967D02*
X0387501Y0072967D01*
X0386640Y0074166D02*
X0398900Y0074166D01*
X0398900Y0075364D02*
X0385900Y0075364D01*
X0385900Y0076563D02*
X0398900Y0076563D01*
X0398900Y0077761D02*
X0385900Y0077761D01*
X0385900Y0078960D02*
X0398900Y0078960D01*
X0398900Y0080158D02*
X0385900Y0080158D01*
X0385900Y0081357D02*
X0398900Y0081357D01*
X0398900Y0082555D02*
X0385900Y0082555D01*
X0385900Y0083754D02*
X0398900Y0083754D01*
X0398900Y0084952D02*
X0385900Y0084952D01*
X0385900Y0086151D02*
X0398900Y0086151D01*
X0398900Y0087349D02*
X0385900Y0087349D01*
X0385900Y0088548D02*
X0398900Y0088548D01*
X0398900Y0089746D02*
X0389299Y0089746D01*
X0389650Y0090945D02*
X0398900Y0090945D01*
X0398900Y0092143D02*
X0389428Y0092143D01*
X0388351Y0093342D02*
X0398900Y0093342D01*
X0398900Y0094540D02*
X0386205Y0094540D01*
X0385007Y0095739D02*
X0398900Y0095739D01*
X0398900Y0096937D02*
X0383808Y0096937D01*
X0382610Y0098136D02*
X0398900Y0098136D01*
X0398900Y0099334D02*
X0381411Y0099334D01*
X0380213Y0100533D02*
X0398900Y0100533D01*
X0398900Y0101732D02*
X0379014Y0101732D01*
X0377816Y0102930D02*
X0398900Y0102930D01*
X0398900Y0104129D02*
X0376617Y0104129D01*
X0375419Y0105327D02*
X0398900Y0105327D01*
X0398900Y0106526D02*
X0374220Y0106526D01*
X0373021Y0107724D02*
X0398900Y0107724D01*
X0398900Y0108923D02*
X0371823Y0108923D01*
X0370624Y0110121D02*
X0398900Y0110121D01*
X0398900Y0111320D02*
X0369426Y0111320D01*
X0368600Y0109600D02*
X0387100Y0091100D01*
X0384100Y0091100D02*
X0368100Y0107100D01*
X0360100Y0107100D01*
X0344600Y0122600D01*
X0344600Y0128600D01*
X0356100Y0140100D01*
X0356100Y0144100D01*
X0354300Y0142294D02*
X0354300Y0140846D01*
X0346862Y0133408D01*
X0346862Y0148660D01*
X0346160Y0149362D01*
X0329540Y0149362D01*
X0328838Y0148660D01*
X0328838Y0132040D01*
X0329540Y0131338D01*
X0344792Y0131338D01*
X0343854Y0130400D01*
X0342800Y0129346D01*
X0342800Y0121854D01*
X0358300Y0106354D01*
X0359354Y0105300D01*
X0367354Y0105300D01*
X0375030Y0097624D01*
X0374156Y0097262D01*
X0373594Y0096700D01*
X0372263Y0096700D01*
X0366763Y0102200D01*
X0350763Y0102200D01*
X0328700Y0124263D01*
X0328700Y0131763D01*
X0327763Y0132700D01*
X0320763Y0139700D01*
X0319606Y0139700D01*
X0319044Y0140262D01*
X0318150Y0140632D01*
X0318150Y0140733D01*
X0318593Y0140550D01*
X0319607Y0140550D01*
X0320544Y0140938D01*
X0321262Y0141656D01*
X0321650Y0142593D01*
X0321650Y0143607D01*
X0321262Y0144544D01*
X0320544Y0145262D01*
X0319607Y0145650D01*
X0318615Y0145650D01*
X0316700Y0147326D01*
X0316700Y0168737D01*
X0323437Y0162000D01*
X0340437Y0162000D01*
X0341050Y0161387D01*
X0341050Y0160593D01*
X0341438Y0159656D01*
X0342156Y0158938D01*
X0343093Y0158550D01*
X0344107Y0158550D01*
X0345044Y0158938D01*
X0345762Y0159656D01*
X0346150Y0160593D01*
X0346150Y0161607D01*
X0345762Y0162544D01*
X0345044Y0163262D01*
X0344107Y0163650D01*
X0343313Y0163650D01*
X0342700Y0164263D01*
X0341763Y0165200D01*
X0324763Y0165200D01*
X0321963Y0168000D01*
X0342437Y0168000D01*
X0347000Y0163437D01*
X0347000Y0160106D01*
X0346438Y0159544D01*
X0346050Y0158607D01*
X0346050Y0157593D01*
X0346438Y0156656D01*
X0347156Y0155938D01*
X0348093Y0155550D01*
X0349107Y0155550D01*
X0350044Y0155938D01*
X0350762Y0156656D01*
X0351150Y0157593D01*
X0351150Y0158607D01*
X0350762Y0159544D01*
X0350200Y0160106D01*
X0350200Y0160731D01*
X0350438Y0160156D01*
X0351156Y0159438D01*
X0352093Y0159050D01*
X0352604Y0159050D01*
X0357300Y0154354D01*
X0357300Y0146363D01*
X0356607Y0146650D01*
X0355593Y0146650D01*
X0354656Y0146262D01*
X0353938Y0145544D01*
X0353550Y0144607D01*
X0353550Y0143593D01*
X0353938Y0142656D01*
X0354300Y0142294D01*
X0354113Y0142481D02*
X0346862Y0142481D01*
X0346862Y0143679D02*
X0353550Y0143679D01*
X0353662Y0144878D02*
X0346862Y0144878D01*
X0346862Y0146076D02*
X0354470Y0146076D01*
X0357300Y0147275D02*
X0346862Y0147275D01*
X0346862Y0148473D02*
X0357300Y0148473D01*
X0357300Y0149672D02*
X0316700Y0149672D01*
X0316700Y0150870D02*
X0357300Y0150870D01*
X0357300Y0152069D02*
X0316700Y0152069D01*
X0316700Y0153268D02*
X0357300Y0153268D01*
X0357188Y0154466D02*
X0316700Y0154466D01*
X0316700Y0155665D02*
X0347816Y0155665D01*
X0349384Y0155665D02*
X0355990Y0155665D01*
X0354791Y0156863D02*
X0350848Y0156863D01*
X0351150Y0158062D02*
X0353593Y0158062D01*
X0351586Y0159260D02*
X0350880Y0159260D01*
X0350313Y0160459D02*
X0350200Y0160459D01*
X0350200Y0162856D02*
X0350360Y0162856D01*
X0350200Y0164054D02*
X0351861Y0164054D01*
X0353339Y0164054D02*
X0398900Y0164054D01*
X0398900Y0162856D02*
X0354840Y0162856D01*
X0355150Y0161657D02*
X0398900Y0161657D01*
X0398900Y0160459D02*
X0356287Y0160459D01*
X0357486Y0159260D02*
X0398900Y0159260D01*
X0398900Y0158062D02*
X0358684Y0158062D01*
X0359883Y0156863D02*
X0398900Y0156863D01*
X0398900Y0155665D02*
X0360900Y0155665D01*
X0360900Y0154466D02*
X0398900Y0154466D01*
X0398900Y0153268D02*
X0360900Y0153268D01*
X0360900Y0152069D02*
X0398900Y0152069D01*
X0398900Y0150870D02*
X0360900Y0150870D01*
X0360900Y0149672D02*
X0398900Y0149672D01*
X0398900Y0148473D02*
X0360900Y0148473D01*
X0360900Y0147275D02*
X0398900Y0147275D01*
X0398900Y0146076D02*
X0360900Y0146076D01*
X0360900Y0144878D02*
X0398900Y0144878D01*
X0398900Y0143679D02*
X0360900Y0143679D01*
X0360900Y0142481D02*
X0398900Y0142481D01*
X0398900Y0141282D02*
X0360900Y0141282D01*
X0360900Y0140084D02*
X0398900Y0140084D01*
X0398900Y0138885D02*
X0360431Y0138885D01*
X0359232Y0137687D02*
X0398900Y0137687D01*
X0398900Y0136488D02*
X0358034Y0136488D01*
X0356835Y0135290D02*
X0361184Y0135290D01*
X0360938Y0135044D02*
X0360550Y0134107D01*
X0360550Y0133454D01*
X0358896Y0131800D01*
X0357506Y0131800D01*
X0357044Y0132262D01*
X0356107Y0132650D01*
X0355093Y0132650D01*
X0354156Y0132262D01*
X0353438Y0131544D01*
X0353050Y0130607D01*
X0353050Y0129593D01*
X0353438Y0128656D01*
X0354156Y0127938D01*
X0355093Y0127550D01*
X0356107Y0127550D01*
X0357044Y0127938D01*
X0357506Y0128400D01*
X0360304Y0128400D01*
X0362954Y0131050D01*
X0363607Y0131050D01*
X0364544Y0131438D01*
X0365262Y0132156D01*
X0365650Y0133093D01*
X0365650Y0134107D01*
X0365262Y0135044D01*
X0364544Y0135762D01*
X0363607Y0136150D01*
X0362593Y0136150D01*
X0361656Y0135762D01*
X0360938Y0135044D01*
X0360550Y0134091D02*
X0355637Y0134091D01*
X0354438Y0132893D02*
X0359989Y0132893D01*
X0362400Y0130496D02*
X0398900Y0130496D01*
X0398900Y0131694D02*
X0364801Y0131694D01*
X0365567Y0132893D02*
X0398900Y0132893D01*
X0398900Y0134091D02*
X0365650Y0134091D01*
X0365016Y0135290D02*
X0398900Y0135290D01*
X0398900Y0129297D02*
X0361201Y0129297D01*
X0357205Y0128099D02*
X0398900Y0128099D01*
X0398900Y0126900D02*
X0349400Y0126900D01*
X0349400Y0125702D02*
X0398900Y0125702D01*
X0398900Y0124503D02*
X0353303Y0124503D01*
X0354068Y0123305D02*
X0398900Y0123305D01*
X0398900Y0122106D02*
X0354498Y0122106D01*
X0355696Y0120908D02*
X0398900Y0120908D01*
X0398900Y0119709D02*
X0375097Y0119709D01*
X0375650Y0118511D02*
X0398900Y0118511D01*
X0398900Y0117312D02*
X0375534Y0117312D01*
X0374720Y0116114D02*
X0398900Y0116114D01*
X0398900Y0114915D02*
X0357830Y0114915D01*
X0356632Y0116114D02*
X0371480Y0116114D01*
X0368600Y0109600D02*
X0360600Y0109600D01*
X0347600Y0122600D01*
X0347600Y0128600D01*
X0359100Y0140100D01*
X0359100Y0155100D01*
X0352600Y0161600D01*
X0349710Y0165253D02*
X0398900Y0165253D01*
X0398900Y0166451D02*
X0348512Y0166451D01*
X0347313Y0167650D02*
X0398900Y0167650D01*
X0398900Y0168848D02*
X0346115Y0168848D01*
X0344916Y0170047D02*
X0398900Y0170047D01*
X0398900Y0171245D02*
X0320718Y0171245D01*
X0319700Y0172444D02*
X0398900Y0172444D01*
X0398900Y0173642D02*
X0319700Y0173642D01*
X0319700Y0174841D02*
X0398900Y0174841D01*
X0398900Y0176039D02*
X0319700Y0176039D01*
X0319700Y0177238D02*
X0398900Y0177238D01*
X0398900Y0178436D02*
X0319700Y0178436D01*
X0319700Y0179635D02*
X0398900Y0179635D01*
X0398900Y0180833D02*
X0319700Y0180833D01*
X0319700Y0182032D02*
X0398900Y0182032D01*
X0398900Y0183230D02*
X0319700Y0183230D01*
X0322022Y0184429D02*
X0398900Y0184429D01*
X0398900Y0185627D02*
X0322957Y0185627D01*
X0323150Y0186826D02*
X0398900Y0186826D01*
X0398900Y0188024D02*
X0322770Y0188024D01*
X0321200Y0189223D02*
X0398900Y0189223D01*
X0398900Y0190421D02*
X0321200Y0190421D01*
X0321200Y0191620D02*
X0398900Y0191620D01*
X0398900Y0192818D02*
X0321200Y0192818D01*
X0321200Y0194017D02*
X0398900Y0194017D01*
X0398900Y0195215D02*
X0321200Y0195215D01*
X0321200Y0196414D02*
X0398900Y0196414D01*
X0398900Y0197612D02*
X0321200Y0197612D01*
X0321200Y0198811D02*
X0398900Y0198811D01*
X0398900Y0200009D02*
X0321200Y0200009D01*
X0321471Y0201208D02*
X0398900Y0201208D01*
X0398900Y0202406D02*
X0322669Y0202406D01*
X0323868Y0203605D02*
X0330164Y0203605D01*
X0330506Y0203463D02*
X0329569Y0203852D01*
X0328852Y0204569D01*
X0328463Y0205506D01*
X0328463Y0206521D01*
X0328852Y0207458D01*
X0329569Y0208175D01*
X0330506Y0208563D01*
X0331018Y0208563D01*
X0335354Y0212900D01*
X0363794Y0212900D01*
X0364156Y0213262D01*
X0365093Y0213650D01*
X0366107Y0213650D01*
X0367044Y0213262D01*
X0367762Y0212544D01*
X0368150Y0211607D01*
X0368150Y0210593D01*
X0367762Y0209656D01*
X0367044Y0208938D01*
X0366107Y0208550D01*
X0365093Y0208550D01*
X0364156Y0208938D01*
X0363794Y0209300D01*
X0336846Y0209300D01*
X0333563Y0206018D01*
X0333563Y0205506D01*
X0333175Y0204569D01*
X0332458Y0203852D01*
X0331521Y0203463D01*
X0330506Y0203463D01*
X0331862Y0203605D02*
X0398900Y0203605D01*
X0398900Y0204803D02*
X0333272Y0204803D01*
X0333563Y0206002D02*
X0398900Y0206002D01*
X0398900Y0207201D02*
X0334746Y0207201D01*
X0335945Y0208399D02*
X0398900Y0208399D01*
X0398900Y0209598D02*
X0367704Y0209598D01*
X0368150Y0210796D02*
X0398900Y0210796D01*
X0398900Y0211995D02*
X0367990Y0211995D01*
X0367113Y0213193D02*
X0398900Y0213193D01*
X0398900Y0214392D02*
X0328154Y0214392D01*
X0327587Y0213193D02*
X0326956Y0213193D01*
X0326710Y0211995D02*
X0325757Y0211995D01*
X0326533Y0210796D02*
X0324559Y0210796D01*
X0325335Y0209598D02*
X0323360Y0209598D01*
X0324136Y0208399D02*
X0322162Y0208399D01*
X0322938Y0207201D02*
X0320963Y0207201D01*
X0321739Y0206002D02*
X0319765Y0206002D01*
X0319700Y0204803D02*
X0320541Y0204803D01*
X0325066Y0204803D02*
X0328754Y0204803D01*
X0328463Y0206002D02*
X0326265Y0206002D01*
X0327463Y0207201D02*
X0328745Y0207201D01*
X0328662Y0208399D02*
X0330109Y0208399D01*
X0331204Y0209598D02*
X0332052Y0209598D01*
X0331650Y0210796D02*
X0333250Y0210796D01*
X0334449Y0211995D02*
X0331490Y0211995D01*
X0330613Y0213193D02*
X0364087Y0213193D01*
X0365600Y0211100D02*
X0336100Y0211100D01*
X0331013Y0206013D01*
X0329353Y0215590D02*
X0398900Y0215590D01*
X0398900Y0216789D02*
X0330551Y0216789D01*
X0331750Y0217987D02*
X0398900Y0217987D01*
X0398900Y0219186D02*
X0377792Y0219186D01*
X0377544Y0218938D02*
X0378262Y0219656D01*
X0378650Y0220593D01*
X0378650Y0221607D01*
X0378262Y0222544D01*
X0377544Y0223262D01*
X0376607Y0223650D01*
X0375813Y0223650D01*
X0368763Y0230700D01*
X0359106Y0230700D01*
X0358544Y0231262D01*
X0357607Y0231650D01*
X0356593Y0231650D01*
X0355656Y0231262D01*
X0354938Y0230544D01*
X0354550Y0229607D01*
X0354550Y0228593D01*
X0354938Y0227656D01*
X0355656Y0226938D01*
X0356593Y0226550D01*
X0357607Y0226550D01*
X0358544Y0226938D01*
X0359106Y0227500D01*
X0367437Y0227500D01*
X0373550Y0221387D01*
X0373550Y0220593D01*
X0373938Y0219656D01*
X0374656Y0218938D01*
X0375593Y0218550D01*
X0376607Y0218550D01*
X0377544Y0218938D01*
X0378564Y0220384D02*
X0398900Y0220384D01*
X0398900Y0221583D02*
X0378650Y0221583D01*
X0378025Y0222781D02*
X0398900Y0222781D01*
X0398900Y0223980D02*
X0375483Y0223980D01*
X0374285Y0225178D02*
X0398900Y0225178D01*
X0398900Y0226377D02*
X0373086Y0226377D01*
X0371888Y0227575D02*
X0398900Y0227575D01*
X0398900Y0228774D02*
X0370689Y0228774D01*
X0369490Y0229972D02*
X0398900Y0229972D01*
X0398900Y0231171D02*
X0358635Y0231171D01*
X0355565Y0231171D02*
X0334700Y0231171D01*
X0334700Y0229972D02*
X0354701Y0229972D01*
X0354550Y0228774D02*
X0334700Y0228774D01*
X0334700Y0227575D02*
X0355019Y0227575D01*
X0368561Y0226377D02*
X0334700Y0226377D01*
X0334700Y0225178D02*
X0369759Y0225178D01*
X0370958Y0223980D02*
X0334700Y0223980D01*
X0334700Y0222781D02*
X0372156Y0222781D01*
X0373355Y0221583D02*
X0334700Y0221583D01*
X0334147Y0220384D02*
X0373636Y0220384D01*
X0374408Y0219186D02*
X0332948Y0219186D01*
X0328820Y0221583D02*
X0324700Y0221583D01*
X0324700Y0222781D02*
X0329000Y0222781D01*
X0329000Y0223980D02*
X0324700Y0223980D01*
X0324700Y0225178D02*
X0329000Y0225178D01*
X0329000Y0226377D02*
X0324700Y0226377D01*
X0324700Y0227575D02*
X0329000Y0227575D01*
X0329000Y0228774D02*
X0324700Y0228774D01*
X0324700Y0229972D02*
X0329000Y0229972D01*
X0329000Y0231171D02*
X0324700Y0231171D01*
X0325350Y0232369D02*
X0329000Y0232369D01*
X0329000Y0233568D02*
X0325650Y0233568D01*
X0325377Y0234766D02*
X0329000Y0234766D01*
X0329000Y0235965D02*
X0324054Y0235965D01*
X0322200Y0237163D02*
X0329000Y0237163D01*
X0329000Y0238362D02*
X0322200Y0238362D01*
X0322200Y0239560D02*
X0329000Y0239560D01*
X0329000Y0240759D02*
X0322200Y0240759D01*
X0322200Y0241957D02*
X0329000Y0241957D01*
X0329000Y0243156D02*
X0322200Y0243156D01*
X0322200Y0244354D02*
X0329000Y0244354D01*
X0329000Y0245553D02*
X0322200Y0245553D01*
X0322200Y0246751D02*
X0329000Y0246751D01*
X0329000Y0247950D02*
X0322200Y0247950D01*
X0323755Y0249148D02*
X0329000Y0249148D01*
X0329084Y0250347D02*
X0324548Y0250347D01*
X0324650Y0251545D02*
X0329550Y0251545D01*
X0330138Y0252744D02*
X0324062Y0252744D01*
X0332200Y0247950D02*
X0398900Y0247950D01*
X0398900Y0249148D02*
X0333755Y0249148D01*
X0334548Y0250347D02*
X0398900Y0250347D01*
X0398900Y0251545D02*
X0334650Y0251545D01*
X0334062Y0252744D02*
X0398900Y0252744D01*
X0398900Y0246751D02*
X0332200Y0246751D01*
X0332200Y0245553D02*
X0398900Y0245553D01*
X0398900Y0244354D02*
X0332200Y0244354D01*
X0332200Y0243156D02*
X0398900Y0243156D01*
X0398900Y0241957D02*
X0332200Y0241957D01*
X0332200Y0240759D02*
X0398900Y0240759D01*
X0398900Y0239560D02*
X0332200Y0239560D01*
X0332200Y0238362D02*
X0398900Y0238362D01*
X0398900Y0237163D02*
X0332200Y0237163D01*
X0334054Y0235965D02*
X0398900Y0235965D01*
X0398900Y0234766D02*
X0335377Y0234766D01*
X0335650Y0233568D02*
X0398900Y0233568D01*
X0398900Y0232369D02*
X0335350Y0232369D01*
X0327621Y0220384D02*
X0324700Y0220384D01*
X0324700Y0219186D02*
X0326423Y0219186D01*
X0325224Y0217987D02*
X0324700Y0217987D01*
X0295732Y0211995D02*
X0287257Y0211995D01*
X0286059Y0210796D02*
X0294533Y0210796D01*
X0293335Y0209598D02*
X0284860Y0209598D01*
X0282342Y0203605D02*
X0278948Y0203605D01*
X0316700Y0167650D02*
X0317788Y0167650D01*
X0316700Y0166451D02*
X0318986Y0166451D01*
X0320185Y0165253D02*
X0316700Y0165253D01*
X0316700Y0164054D02*
X0321383Y0164054D01*
X0322582Y0162856D02*
X0316700Y0162856D01*
X0316700Y0161657D02*
X0340780Y0161657D01*
X0341106Y0160459D02*
X0316700Y0160459D01*
X0316700Y0159260D02*
X0341834Y0159260D01*
X0345366Y0159260D02*
X0346320Y0159260D01*
X0346094Y0160459D02*
X0347000Y0160459D01*
X0347000Y0161657D02*
X0346129Y0161657D01*
X0345451Y0162856D02*
X0347000Y0162856D01*
X0346383Y0164054D02*
X0342909Y0164054D01*
X0345185Y0165253D02*
X0324710Y0165253D01*
X0323512Y0166451D02*
X0343986Y0166451D01*
X0342788Y0167650D02*
X0322313Y0167650D01*
X0316700Y0158062D02*
X0346050Y0158062D01*
X0346352Y0156863D02*
X0316700Y0156863D01*
X0310100Y0158600D02*
X0310100Y0138100D01*
X0350600Y0097600D01*
X0356600Y0097600D01*
X0357100Y0098100D01*
X0357079Y0093342D02*
X0241046Y0093342D01*
X0241150Y0094540D02*
X0261553Y0094540D01*
X0260697Y0095739D02*
X0240567Y0095739D01*
X0240200Y0096937D02*
X0260550Y0096937D01*
X0261030Y0098136D02*
X0240200Y0098136D01*
X0240200Y0099334D02*
X0346320Y0099334D01*
X0347518Y0098136D02*
X0265170Y0098136D01*
X0240200Y0100533D02*
X0345121Y0100533D01*
X0343923Y0101732D02*
X0240200Y0101732D01*
X0240200Y0102930D02*
X0311664Y0102930D01*
X0311050Y0104129D02*
X0240200Y0104129D01*
X0240200Y0105327D02*
X0311141Y0105327D01*
X0311919Y0106526D02*
X0240200Y0106526D01*
X0240200Y0107724D02*
X0314461Y0107724D01*
X0315660Y0108923D02*
X0239040Y0108923D01*
X0237842Y0110121D02*
X0316858Y0110121D01*
X0318057Y0111320D02*
X0236643Y0111320D01*
X0235445Y0112518D02*
X0319255Y0112518D01*
X0320454Y0113717D02*
X0235105Y0113717D01*
X0234391Y0114915D02*
X0321652Y0114915D01*
X0323781Y0112518D02*
X0333136Y0112518D01*
X0331938Y0113717D02*
X0328510Y0113717D01*
X0329869Y0114915D02*
X0330739Y0114915D01*
X0326690Y0113717D02*
X0324979Y0113717D01*
X0322582Y0111320D02*
X0334335Y0111320D01*
X0335533Y0110121D02*
X0321384Y0110121D01*
X0320185Y0108923D02*
X0336732Y0108923D01*
X0337930Y0107724D02*
X0318987Y0107724D01*
X0317788Y0106526D02*
X0339129Y0106526D01*
X0340327Y0105327D02*
X0316590Y0105327D01*
X0316150Y0104129D02*
X0341526Y0104129D01*
X0342724Y0102930D02*
X0315536Y0102930D01*
X0333254Y0119709D02*
X0344945Y0119709D01*
X0343747Y0120908D02*
X0332055Y0120908D01*
X0330857Y0122106D02*
X0342800Y0122106D01*
X0342800Y0123305D02*
X0329658Y0123305D01*
X0328700Y0124503D02*
X0342800Y0124503D01*
X0342800Y0125702D02*
X0328700Y0125702D01*
X0328700Y0126900D02*
X0342800Y0126900D01*
X0342800Y0128099D02*
X0328700Y0128099D01*
X0328700Y0129297D02*
X0342800Y0129297D01*
X0343950Y0130496D02*
X0328700Y0130496D01*
X0328700Y0131694D02*
X0329184Y0131694D01*
X0328838Y0132893D02*
X0327570Y0132893D01*
X0326371Y0134091D02*
X0328838Y0134091D01*
X0328838Y0135290D02*
X0325173Y0135290D01*
X0323974Y0136488D02*
X0328838Y0136488D01*
X0328838Y0137687D02*
X0322776Y0137687D01*
X0321577Y0138885D02*
X0328838Y0138885D01*
X0328838Y0140084D02*
X0319222Y0140084D01*
X0320889Y0141282D02*
X0328838Y0141282D01*
X0328838Y0142481D02*
X0321604Y0142481D01*
X0321620Y0143679D02*
X0328838Y0143679D01*
X0328838Y0144878D02*
X0320928Y0144878D01*
X0318128Y0146076D02*
X0328838Y0146076D01*
X0328838Y0147275D02*
X0316758Y0147275D01*
X0316700Y0148473D02*
X0328838Y0148473D01*
X0346862Y0141282D02*
X0354300Y0141282D01*
X0353538Y0140084D02*
X0346862Y0140084D01*
X0346862Y0138885D02*
X0352340Y0138885D01*
X0351141Y0137687D02*
X0346862Y0137687D01*
X0346862Y0136488D02*
X0349943Y0136488D01*
X0348744Y0135290D02*
X0346862Y0135290D01*
X0346862Y0134091D02*
X0347546Y0134091D01*
X0352041Y0130496D02*
X0353050Y0130496D01*
X0353172Y0129297D02*
X0350843Y0129297D01*
X0349644Y0128099D02*
X0353995Y0128099D01*
X0353588Y0131694D02*
X0353240Y0131694D01*
X0349897Y0124503D02*
X0349400Y0124503D01*
X0346144Y0118511D02*
X0334452Y0118511D01*
X0335651Y0117312D02*
X0347342Y0117312D01*
X0348541Y0116114D02*
X0336849Y0116114D01*
X0338048Y0114915D02*
X0349739Y0114915D01*
X0350938Y0113717D02*
X0339246Y0113717D01*
X0340445Y0112518D02*
X0352136Y0112518D01*
X0353335Y0111320D02*
X0341643Y0111320D01*
X0342842Y0110121D02*
X0354533Y0110121D01*
X0355732Y0108923D02*
X0344040Y0108923D01*
X0345239Y0107724D02*
X0356930Y0107724D01*
X0358129Y0106526D02*
X0346437Y0106526D01*
X0347636Y0105327D02*
X0359327Y0105327D01*
X0360227Y0112518D02*
X0398900Y0112518D01*
X0398900Y0113717D02*
X0359029Y0113717D01*
X0368526Y0104129D02*
X0348834Y0104129D01*
X0350033Y0102930D02*
X0369724Y0102930D01*
X0370923Y0101732D02*
X0367231Y0101732D01*
X0368430Y0100533D02*
X0372121Y0100533D01*
X0373320Y0099334D02*
X0369628Y0099334D01*
X0370827Y0098136D02*
X0374518Y0098136D01*
X0373831Y0096937D02*
X0372025Y0096937D01*
X0373752Y0093342D02*
X0368812Y0093342D01*
X0371663Y0092143D02*
X0378537Y0092143D01*
X0378050Y0090945D02*
X0372510Y0090945D01*
X0372650Y0089746D02*
X0378193Y0089746D01*
X0379046Y0088548D02*
X0372154Y0088548D01*
X0369343Y0087349D02*
X0382300Y0087349D01*
X0382300Y0086151D02*
X0369650Y0086151D01*
X0369385Y0084952D02*
X0382300Y0084952D01*
X0382300Y0083754D02*
X0369382Y0083754D01*
X0369650Y0082555D02*
X0382300Y0082555D01*
X0382300Y0081357D02*
X0369345Y0081357D01*
X0367869Y0080158D02*
X0382300Y0080158D01*
X0382300Y0078960D02*
X0235150Y0078960D01*
X0235013Y0077761D02*
X0382300Y0077761D01*
X0382300Y0076563D02*
X0235400Y0076563D01*
X0236598Y0075364D02*
X0382300Y0075364D01*
X0382300Y0074166D02*
X0237797Y0074166D01*
X0238995Y0072967D02*
X0382300Y0072967D01*
X0382300Y0071769D02*
X0240194Y0071769D01*
X0241392Y0070570D02*
X0383024Y0070570D01*
X0384100Y0072100D02*
X0385100Y0072100D01*
X0384100Y0072100D02*
X0384100Y0091100D01*
X0382300Y0088548D02*
X0382154Y0088548D01*
X0379312Y0093342D02*
X0377448Y0093342D01*
X0355881Y0092143D02*
X0240250Y0092143D01*
X0239018Y0090945D02*
X0354682Y0090945D01*
X0385061Y0051394D02*
X0158298Y0051394D01*
X0156967Y0050196D02*
X0385992Y0050196D01*
X0398790Y0060982D02*
X0398900Y0060982D01*
X0398900Y0062181D02*
X0397882Y0062181D01*
X0398900Y0063379D02*
X0396551Y0063379D01*
X0310100Y0158600D02*
X0309600Y0159100D01*
X0236087Y0213193D02*
X0234113Y0213193D01*
X0220000Y0211937D02*
X0220000Y0210487D01*
X0219607Y0210650D01*
X0218593Y0210650D01*
X0217656Y0210262D01*
X0217094Y0209700D01*
X0210937Y0209700D01*
X0210700Y0209463D01*
X0210700Y0221237D01*
X0220000Y0211937D01*
X0219943Y0211995D02*
X0210700Y0211995D01*
X0210700Y0213193D02*
X0218744Y0213193D01*
X0217546Y0214392D02*
X0210700Y0214392D01*
X0210700Y0215590D02*
X0216347Y0215590D01*
X0215149Y0216789D02*
X0210700Y0216789D01*
X0210700Y0217987D02*
X0213950Y0217987D01*
X0212752Y0219186D02*
X0210700Y0219186D01*
X0210700Y0220384D02*
X0211553Y0220384D01*
X0210700Y0210796D02*
X0220000Y0210796D01*
X0210835Y0209598D02*
X0210700Y0209598D01*
X0198500Y0209598D02*
X0194200Y0209598D01*
X0194200Y0210796D02*
X0198500Y0210796D01*
X0198500Y0211995D02*
X0194200Y0211995D01*
X0194200Y0213193D02*
X0198500Y0213193D01*
X0198500Y0214392D02*
X0194200Y0214392D01*
X0194200Y0215590D02*
X0198500Y0215590D01*
X0198149Y0216789D02*
X0194200Y0216789D01*
X0194200Y0217987D02*
X0195607Y0217987D01*
X0194719Y0219186D02*
X0194200Y0219186D01*
X0194200Y0220384D02*
X0194550Y0220384D01*
X0194200Y0221583D02*
X0194976Y0221583D01*
X0194200Y0222781D02*
X0198122Y0222781D01*
X0198873Y0223980D02*
X0194200Y0223980D01*
X0194200Y0225178D02*
X0201500Y0225178D01*
X0201500Y0226377D02*
X0194200Y0226377D01*
X0195338Y0227575D02*
X0201500Y0227575D01*
X0201500Y0228774D02*
X0196536Y0228774D01*
X0197735Y0229972D02*
X0201500Y0229972D01*
X0201500Y0231171D02*
X0198200Y0231171D01*
X0198200Y0232369D02*
X0201500Y0232369D01*
X0201500Y0233568D02*
X0198200Y0233568D01*
X0198200Y0234766D02*
X0201500Y0234766D01*
X0201500Y0235965D02*
X0198200Y0235965D01*
X0198200Y0237163D02*
X0201500Y0237163D01*
X0201500Y0238362D02*
X0198200Y0238362D01*
X0198200Y0239560D02*
X0201500Y0239560D01*
X0201500Y0240759D02*
X0198200Y0240759D01*
X0198200Y0241957D02*
X0201500Y0241957D01*
X0201500Y0243156D02*
X0198200Y0243156D01*
X0198200Y0244354D02*
X0201500Y0244354D01*
X0201790Y0245553D02*
X0198200Y0245553D01*
X0198200Y0246751D02*
X0202989Y0246751D01*
X0204187Y0247950D02*
X0198713Y0247950D01*
X0199911Y0249148D02*
X0205386Y0249148D01*
X0206584Y0250347D02*
X0201110Y0250347D01*
X0201700Y0251545D02*
X0207000Y0251545D01*
X0206402Y0252744D02*
X0201850Y0252744D01*
X0202588Y0253942D02*
X0206050Y0253942D01*
X0206271Y0255141D02*
X0202636Y0255141D01*
X0201967Y0256339D02*
X0207343Y0256339D01*
X0209857Y0256339D02*
X0213843Y0256339D01*
X0212771Y0255141D02*
X0212129Y0255141D01*
X0211071Y0255141D02*
X0210929Y0255141D01*
X0216357Y0256339D02*
X0217343Y0256339D01*
X0219857Y0256339D02*
X0220233Y0256339D01*
X0198233Y0256339D02*
X0195967Y0256339D01*
X0192233Y0256339D02*
X0186467Y0256339D01*
X0187136Y0255141D02*
X0190571Y0255141D01*
X0188896Y0253942D02*
X0187088Y0253942D01*
X0188062Y0252744D02*
X0188550Y0252744D01*
X0184445Y0249148D02*
X0183911Y0249148D01*
X0185000Y0247950D02*
X0182713Y0247950D01*
X0182064Y0255141D02*
X0181136Y0255141D01*
X0180467Y0256339D02*
X0182733Y0256339D01*
X0176733Y0256339D02*
X0144300Y0256339D01*
X0144300Y0255141D02*
X0176064Y0255141D01*
X0175680Y0253942D02*
X0144300Y0253942D01*
X0154421Y0258737D02*
X0388519Y0258737D01*
X0386443Y0259935D02*
X0156677Y0259935D01*
X0158008Y0261134D02*
X0385250Y0261134D01*
X0384379Y0262332D02*
X0353985Y0262332D01*
X0354351Y0262483D02*
X0355717Y0263849D01*
X0356456Y0265634D01*
X0356456Y0267566D01*
X0355717Y0269351D01*
X0354351Y0270717D01*
X0352566Y0271456D01*
X0350634Y0271456D01*
X0348849Y0270717D01*
X0347483Y0269351D01*
X0346744Y0267566D01*
X0346744Y0265634D01*
X0347483Y0263849D01*
X0348849Y0262483D01*
X0350634Y0261744D01*
X0352566Y0261744D01*
X0354351Y0262483D01*
X0355398Y0263531D02*
X0383715Y0263531D01*
X0383461Y0264729D02*
X0356081Y0264729D01*
X0356456Y0265928D02*
X0383206Y0265928D01*
X0383175Y0267126D02*
X0356456Y0267126D01*
X0356142Y0268325D02*
X0383430Y0268325D01*
X0383684Y0269523D02*
X0355544Y0269523D01*
X0354339Y0270722D02*
X0384273Y0270722D01*
X0385144Y0271920D02*
X0158171Y0271920D01*
X0158906Y0270722D02*
X0288861Y0270722D01*
X0288849Y0270717D02*
X0287483Y0269351D01*
X0286744Y0267566D01*
X0286744Y0265634D01*
X0287483Y0263849D01*
X0288849Y0262483D01*
X0290634Y0261744D01*
X0292566Y0261744D01*
X0294351Y0262483D01*
X0295717Y0263849D01*
X0296456Y0265634D01*
X0296456Y0267566D01*
X0295717Y0269351D01*
X0294351Y0270717D01*
X0292566Y0271456D01*
X0290634Y0271456D01*
X0288849Y0270717D01*
X0287656Y0269523D02*
X0159439Y0269523D01*
X0159950Y0268325D02*
X0287058Y0268325D01*
X0286744Y0267126D02*
X0159950Y0267126D01*
X0159950Y0265928D02*
X0286744Y0265928D01*
X0287119Y0264729D02*
X0159908Y0264729D01*
X0159374Y0263531D02*
X0287802Y0263531D01*
X0289215Y0262332D02*
X0158840Y0262332D01*
X0156840Y0273119D02*
X0386190Y0273119D01*
X0348861Y0270722D02*
X0294339Y0270722D01*
X0295544Y0269523D02*
X0347656Y0269523D01*
X0347058Y0268325D02*
X0296142Y0268325D01*
X0296456Y0267126D02*
X0346744Y0267126D01*
X0346744Y0265928D02*
X0296456Y0265928D01*
X0296081Y0264729D02*
X0347119Y0264729D01*
X0347802Y0263531D02*
X0295398Y0263531D01*
X0293985Y0262332D02*
X0349215Y0262332D01*
X0198500Y0208399D02*
X0194200Y0208399D01*
X0194200Y0207201D02*
X0198500Y0207201D01*
X0198500Y0206002D02*
X0194200Y0206002D01*
X0194200Y0204803D02*
X0196756Y0204803D01*
X0195756Y0203605D02*
X0194200Y0203605D01*
X0194200Y0202406D02*
X0195550Y0202406D01*
X0195916Y0201208D02*
X0194200Y0201208D01*
X0194200Y0200009D02*
X0198050Y0200009D01*
X0198374Y0198811D02*
X0194200Y0198811D01*
X0195350Y0197612D02*
X0199942Y0197612D01*
X0201258Y0197612D02*
X0201500Y0197612D01*
X0201500Y0196414D02*
X0196549Y0196414D01*
X0197747Y0195215D02*
X0201500Y0195215D01*
X0201500Y0194017D02*
X0198946Y0194017D01*
X0200144Y0192818D02*
X0201500Y0192818D01*
X0201500Y0191620D02*
X0201200Y0191620D01*
X0201200Y0190421D02*
X0201500Y0190421D01*
X0201500Y0189223D02*
X0201200Y0189223D01*
X0201200Y0188024D02*
X0201289Y0188024D01*
X0185000Y0225178D02*
X0182628Y0225178D01*
X0185000Y0226377D02*
X0179930Y0226377D01*
X0177231Y0227575D02*
X0185000Y0227575D01*
X0185000Y0228774D02*
X0174374Y0228774D01*
X0173036Y0229972D02*
X0185000Y0229972D01*
X0186885Y0114915D02*
X0179174Y0114915D01*
X0180398Y0113717D02*
X0180610Y0113717D01*
X0189884Y0110121D02*
X0199921Y0110121D01*
X0200000Y0108923D02*
X0189700Y0108923D01*
X0189700Y0107724D02*
X0200000Y0107724D01*
X0203200Y0107724D02*
X0210500Y0107724D01*
X0210500Y0106526D02*
X0203200Y0106526D01*
X0203200Y0105327D02*
X0209848Y0105327D01*
X0209550Y0104129D02*
X0203200Y0104129D01*
X0203200Y0102930D02*
X0209825Y0102930D01*
X0211155Y0101732D02*
X0203200Y0101732D01*
X0203200Y0100533D02*
X0213000Y0100533D01*
X0213000Y0099334D02*
X0203200Y0099334D01*
X0203200Y0098136D02*
X0213000Y0098136D01*
X0213000Y0096937D02*
X0203806Y0096937D01*
X0204150Y0095739D02*
X0213000Y0095739D01*
X0213000Y0094540D02*
X0203921Y0094540D01*
X0202812Y0093342D02*
X0213050Y0093342D01*
X0213236Y0092143D02*
X0201819Y0092143D01*
X0203018Y0090945D02*
X0214149Y0090945D01*
X0217051Y0090945D02*
X0221992Y0090945D01*
X0220794Y0092143D02*
X0217964Y0092143D01*
X0218150Y0093342D02*
X0219595Y0093342D01*
X0219000Y0094540D02*
X0217763Y0094540D01*
X0219000Y0095739D02*
X0216200Y0095739D01*
X0216200Y0096937D02*
X0219000Y0096937D01*
X0219000Y0098136D02*
X0218742Y0098136D01*
X0223700Y0098136D02*
X0233000Y0098136D01*
X0233000Y0099334D02*
X0223700Y0099334D01*
X0223700Y0100533D02*
X0233000Y0100533D01*
X0233000Y0101732D02*
X0223700Y0101732D01*
X0223700Y0102930D02*
X0233000Y0102930D01*
X0232809Y0104129D02*
X0223700Y0104129D01*
X0223700Y0105327D02*
X0231610Y0105327D01*
X0230412Y0106526D02*
X0223700Y0106526D01*
X0223700Y0107724D02*
X0229213Y0107724D01*
X0228015Y0108923D02*
X0224529Y0108923D01*
X0225150Y0110121D02*
X0226816Y0110121D01*
X0226274Y0111320D02*
X0225062Y0111320D01*
X0225581Y0112518D02*
X0224288Y0112518D01*
X0225595Y0113717D02*
X0219650Y0113717D01*
X0219315Y0114915D02*
X0226309Y0114915D01*
X0229891Y0114915D02*
X0230809Y0114915D01*
X0220912Y0112518D02*
X0220288Y0112518D01*
X0210500Y0110121D02*
X0203200Y0110121D01*
X0203200Y0108923D02*
X0210500Y0108923D01*
X0208942Y0111320D02*
X0203200Y0111320D01*
X0203150Y0112518D02*
X0207788Y0112518D01*
X0207550Y0113717D02*
X0202898Y0113717D01*
X0201674Y0114915D02*
X0207885Y0114915D01*
X0199526Y0114915D02*
X0191315Y0114915D01*
X0191650Y0113717D02*
X0198302Y0113717D01*
X0198050Y0112518D02*
X0191412Y0112518D01*
X0190700Y0111320D02*
X0198370Y0111320D01*
X0196919Y0106526D02*
X0194281Y0106526D01*
X0195059Y0105327D02*
X0196141Y0105327D01*
X0196050Y0104129D02*
X0195334Y0104129D01*
X0193206Y0101732D02*
X0189700Y0101732D01*
X0189700Y0102930D02*
X0190664Y0102930D01*
X0190050Y0104129D02*
X0189700Y0104129D01*
X0189700Y0105327D02*
X0190141Y0105327D01*
X0189700Y0106526D02*
X0190919Y0106526D01*
X0189700Y0100533D02*
X0194404Y0100533D01*
X0195000Y0099334D02*
X0189700Y0099334D01*
X0189700Y0098136D02*
X0195000Y0098136D01*
X0195000Y0096937D02*
X0189700Y0096937D01*
X0191567Y0095739D02*
X0195000Y0095739D01*
X0195000Y0094540D02*
X0192150Y0094540D01*
X0192046Y0093342D02*
X0195000Y0093342D01*
X0195294Y0092143D02*
X0191250Y0092143D01*
X0190018Y0090945D02*
X0196492Y0090945D01*
X0197691Y0089746D02*
X0191216Y0089746D01*
X0192415Y0088548D02*
X0198889Y0088548D01*
X0200088Y0087349D02*
X0193613Y0087349D01*
X0194812Y0086151D02*
X0201286Y0086151D01*
X0202485Y0084952D02*
X0196010Y0084952D01*
X0204216Y0089746D02*
X0223191Y0089746D01*
X0224389Y0088548D02*
X0205415Y0088548D01*
X0206613Y0087349D02*
X0225588Y0087349D01*
X0227319Y0092143D02*
X0228577Y0092143D01*
X0229623Y0092143D02*
X0233294Y0092143D01*
X0233000Y0093342D02*
X0226121Y0093342D01*
X0224922Y0094540D02*
X0233000Y0094540D01*
X0233000Y0095739D02*
X0223724Y0095739D01*
X0223700Y0096937D02*
X0233000Y0096937D01*
X0234492Y0090945D02*
X0231303Y0090945D01*
X0231650Y0089746D02*
X0235691Y0089746D01*
D14*
X0234600Y0093100D02*
X0234600Y0104600D01*
X0228100Y0111100D01*
X0228100Y0113100D01*
X0232600Y0113100D02*
X0238600Y0107100D01*
X0238600Y0094100D01*
X0234600Y0093100D02*
X0239100Y0088600D01*
X0354600Y0088600D01*
X0360100Y0094100D01*
X0364600Y0094100D01*
X0366100Y0092600D01*
X0365100Y0090100D02*
X0362600Y0092600D01*
X0360600Y0092600D01*
X0355100Y0087100D01*
X0228100Y0087100D01*
X0220600Y0094600D01*
X0220600Y0108600D01*
X0218600Y0110600D01*
X0217100Y0113100D02*
X0217100Y0113600D01*
X0217100Y0113100D02*
X0216100Y0112100D01*
X0216100Y0101100D01*
X0217100Y0100100D01*
X0214600Y0094600D02*
X0214600Y0112600D01*
X0213600Y0113600D01*
X0212100Y0111600D02*
X0210100Y0113600D01*
X0212100Y0111600D02*
X0212100Y0104100D01*
X0214600Y0094600D02*
X0215600Y0093600D01*
X0215600Y0093100D01*
X0222100Y0095100D02*
X0222100Y0110100D01*
X0222600Y0110600D01*
X0222100Y0095100D02*
X0227600Y0089600D01*
X0229100Y0089600D01*
X0229100Y0078600D02*
X0251600Y0056100D01*
X0374100Y0056100D01*
X0368100Y0058600D02*
X0367600Y0058600D01*
X0366600Y0057600D01*
X0252100Y0057600D01*
X0232600Y0077100D01*
X0232600Y0078600D01*
X0206100Y0085600D02*
X0198100Y0093600D01*
X0198100Y0104100D01*
X0198600Y0104600D01*
X0196600Y0100600D02*
X0192600Y0104600D01*
X0196600Y0100600D02*
X0196600Y0093100D01*
X0205600Y0084100D01*
X0360100Y0084100D01*
X0362100Y0086100D01*
X0363100Y0086100D01*
X0361100Y0088100D02*
X0358600Y0085600D01*
X0206100Y0085600D01*
X0196100Y0082600D02*
X0186100Y0092600D01*
X0186100Y0112100D01*
X0188100Y0110600D02*
X0189100Y0111600D01*
X0189100Y0113600D01*
X0188100Y0110600D02*
X0188100Y0095600D01*
X0189600Y0094100D01*
X0183600Y0096600D02*
X0183600Y0111100D01*
X0182600Y0112100D01*
X0181100Y0109600D02*
X0178100Y0112600D01*
X0181100Y0109600D02*
X0181100Y0095600D01*
X0195600Y0081100D01*
X0365100Y0081100D01*
X0366600Y0082600D01*
X0367100Y0082600D01*
X0367100Y0086100D02*
X0363600Y0082600D01*
X0196100Y0082600D01*
X0201600Y0095600D02*
X0201600Y0111600D01*
X0200600Y0112600D01*
X0193100Y0127100D02*
X0186600Y0127100D01*
X0185600Y0126100D01*
X0183100Y0128600D02*
X0192600Y0128600D01*
X0206600Y0142600D01*
X0206600Y0152100D01*
X0213600Y0159100D01*
X0225100Y0159100D01*
X0236600Y0170600D01*
X0236600Y0208600D01*
X0235100Y0210100D01*
X0232100Y0209100D02*
X0235100Y0206100D01*
X0235100Y0171100D01*
X0224600Y0160600D01*
X0213100Y0160600D01*
X0205100Y0152600D01*
X0205100Y0143100D01*
X0192100Y0130100D01*
X0186600Y0130100D01*
X0184600Y0131600D01*
X0181100Y0131600D01*
X0180600Y0131100D01*
X0174100Y0138600D02*
X0192100Y0138600D01*
X0193100Y0137600D01*
X0193100Y0135600D01*
X0190600Y0135100D02*
X0189600Y0136100D01*
X0172100Y0136100D01*
X0169600Y0138600D01*
X0169600Y0187100D01*
X0165600Y0191100D01*
X0166600Y0194600D02*
X0171100Y0189600D01*
X0171100Y0141600D01*
X0174100Y0138600D01*
X0174600Y0141100D02*
X0172600Y0143100D01*
X0172600Y0193100D01*
X0167600Y0198100D01*
X0169600Y0201100D02*
X0170100Y0201100D01*
X0174100Y0197100D01*
X0174100Y0145100D01*
X0175600Y0143600D01*
X0197100Y0143600D01*
X0198100Y0142600D01*
X0198100Y0140600D01*
X0195600Y0140100D02*
X0195600Y0138100D01*
X0195600Y0140100D02*
X0194600Y0141100D01*
X0174600Y0141100D01*
X0176600Y0146100D02*
X0175600Y0147100D01*
X0175600Y0201100D01*
X0172600Y0204100D01*
X0171600Y0204100D01*
X0161100Y0194600D02*
X0161100Y0190100D01*
X0164100Y0187100D01*
X0164100Y0146600D01*
X0165100Y0145600D01*
X0162600Y0144100D02*
X0161600Y0143100D01*
X0162600Y0144100D02*
X0162600Y0186100D01*
X0158100Y0190600D01*
X0158100Y0192600D01*
X0184600Y0194100D02*
X0184600Y0186600D01*
X0185600Y0185600D01*
X0188600Y0189100D02*
X0187100Y0190600D01*
X0188600Y0189100D02*
X0188600Y0173600D01*
X0185600Y0172600D02*
X0185600Y0175100D01*
X0185600Y0172600D02*
X0189100Y0169100D01*
X0196100Y0169100D01*
X0200600Y0164600D01*
X0208100Y0164600D01*
X0210100Y0166100D01*
X0210100Y0172600D01*
X0213600Y0176100D01*
X0213600Y0199100D01*
X0210600Y0202100D01*
X0210600Y0207100D01*
X0211600Y0208100D01*
X0219100Y0208100D01*
X0221600Y0212600D02*
X0221600Y0172100D01*
X0218600Y0169100D01*
X0217100Y0172100D02*
X0217600Y0173100D01*
X0220100Y0176100D01*
X0220100Y0199600D01*
X0219100Y0200600D01*
X0216600Y0201600D02*
X0216600Y0175100D01*
X0214600Y0173100D01*
X0214600Y0169600D01*
X0215100Y0169100D01*
X0212600Y0166100D02*
X0211600Y0167100D01*
X0211600Y0172100D01*
X0215100Y0175600D01*
X0215100Y0199600D01*
X0213600Y0201100D01*
X0213600Y0205100D01*
X0216100Y0202600D02*
X0216600Y0201600D01*
X0212100Y0198600D02*
X0212100Y0176600D01*
X0208600Y0173100D01*
X0208600Y0170100D01*
X0205600Y0167100D01*
X0205600Y0172100D02*
X0204600Y0172600D01*
X0204600Y0244100D01*
X0211600Y0251100D01*
X0211600Y0252600D01*
X0208600Y0254100D02*
X0208600Y0250100D01*
X0203100Y0244600D01*
X0203100Y0186100D01*
X0202100Y0185600D01*
X0199600Y0191100D02*
X0199600Y0177100D01*
X0202100Y0174600D01*
X0198600Y0174600D02*
X0198100Y0175100D01*
X0198100Y0190600D01*
X0191100Y0197600D01*
X0191100Y0227600D01*
X0195100Y0231600D01*
X0195100Y0250600D01*
X0197100Y0252600D01*
X0200100Y0251600D02*
X0196600Y0248100D01*
X0196600Y0231100D01*
X0192600Y0227100D01*
X0192600Y0198100D01*
X0199600Y0191100D01*
X0196600Y0190100D02*
X0196600Y0177600D01*
X0195600Y0176600D01*
X0195600Y0173100D01*
X0192100Y0173600D02*
X0192100Y0175600D01*
X0195100Y0178600D01*
X0195100Y0189600D01*
X0188100Y0196600D01*
X0188100Y0228600D01*
X0192100Y0232600D01*
X0192100Y0252100D01*
X0191600Y0252600D01*
X0191100Y0252600D01*
X0193600Y0254100D02*
X0193600Y0232100D01*
X0189600Y0228100D01*
X0189600Y0197100D01*
X0196600Y0190100D01*
X0200600Y0200100D02*
X0201600Y0201100D01*
X0201600Y0221100D01*
X0200600Y0222100D01*
X0197100Y0220100D02*
X0200100Y0217100D01*
X0200100Y0204600D01*
X0198100Y0202600D01*
X0209100Y0201600D02*
X0212100Y0198600D01*
X0209100Y0201600D02*
X0209100Y0240600D01*
X0222100Y0253600D01*
X0222100Y0254600D01*
X0218600Y0254100D02*
X0207600Y0243100D01*
X0207600Y0193600D01*
X0208600Y0192600D01*
X0226100Y0192390D02*
X0226100Y0191545D01*
X0226102Y0191478D01*
X0226108Y0191411D01*
X0226117Y0191345D01*
X0226131Y0191280D01*
X0226148Y0191215D01*
X0226169Y0191152D01*
X0226194Y0191090D01*
X0226222Y0191029D01*
X0226254Y0190970D01*
X0226289Y0190913D01*
X0226328Y0190858D01*
X0226369Y0190806D01*
X0226414Y0190756D01*
X0226461Y0190709D01*
X0226511Y0190664D01*
X0226563Y0190623D01*
X0226618Y0190584D01*
X0226675Y0190549D01*
X0226734Y0190517D01*
X0226795Y0190489D01*
X0226857Y0190464D01*
X0226920Y0190443D01*
X0226985Y0190426D01*
X0227050Y0190412D01*
X0227116Y0190403D01*
X0227183Y0190397D01*
X0227250Y0190395D01*
X0231950Y0190395D01*
X0232017Y0190393D01*
X0232084Y0190387D01*
X0232150Y0190378D01*
X0232215Y0190364D01*
X0232280Y0190347D01*
X0232343Y0190326D01*
X0232405Y0190301D01*
X0232466Y0190273D01*
X0232525Y0190241D01*
X0232582Y0190206D01*
X0232637Y0190167D01*
X0232689Y0190126D01*
X0232739Y0190081D01*
X0232786Y0190034D01*
X0232831Y0189984D01*
X0232872Y0189932D01*
X0232911Y0189877D01*
X0232946Y0189820D01*
X0232978Y0189761D01*
X0233006Y0189700D01*
X0233031Y0189638D01*
X0233052Y0189575D01*
X0233069Y0189510D01*
X0233083Y0189445D01*
X0233092Y0189379D01*
X0233098Y0189312D01*
X0233100Y0189245D01*
X0233100Y0188400D01*
X0233098Y0188333D01*
X0233092Y0188266D01*
X0233083Y0188200D01*
X0233069Y0188135D01*
X0233052Y0188070D01*
X0233031Y0188007D01*
X0233006Y0187945D01*
X0232978Y0187884D01*
X0232946Y0187825D01*
X0232911Y0187768D01*
X0232872Y0187713D01*
X0232831Y0187661D01*
X0232786Y0187611D01*
X0232739Y0187564D01*
X0232689Y0187519D01*
X0232637Y0187478D01*
X0232582Y0187439D01*
X0232525Y0187404D01*
X0232466Y0187372D01*
X0232405Y0187344D01*
X0232343Y0187319D01*
X0232280Y0187298D01*
X0232215Y0187281D01*
X0232150Y0187267D01*
X0232084Y0187258D01*
X0232017Y0187252D01*
X0231950Y0187250D01*
X0230750Y0187250D01*
X0230683Y0187248D01*
X0230616Y0187242D01*
X0230550Y0187233D01*
X0230485Y0187219D01*
X0230420Y0187202D01*
X0230357Y0187181D01*
X0230295Y0187156D01*
X0230234Y0187128D01*
X0230175Y0187096D01*
X0230118Y0187061D01*
X0230063Y0187022D01*
X0230011Y0186981D01*
X0229961Y0186936D01*
X0229914Y0186889D01*
X0229869Y0186839D01*
X0229828Y0186787D01*
X0229789Y0186732D01*
X0229754Y0186675D01*
X0229722Y0186616D01*
X0229694Y0186555D01*
X0229669Y0186493D01*
X0229648Y0186430D01*
X0229631Y0186365D01*
X0229617Y0186300D01*
X0229608Y0186234D01*
X0229602Y0186167D01*
X0229600Y0186100D01*
X0229600Y0175100D01*
X0229100Y0174600D01*
X0228600Y0174600D01*
X0226100Y0171600D02*
X0224600Y0173100D01*
X0224600Y0213600D01*
X0218100Y0220100D01*
X0218100Y0223600D01*
X0221100Y0226600D01*
X0220600Y0221600D02*
X0229600Y0212600D01*
X0229600Y0204125D01*
X0229602Y0204058D01*
X0229608Y0203991D01*
X0229617Y0203925D01*
X0229631Y0203860D01*
X0229648Y0203795D01*
X0229669Y0203732D01*
X0229694Y0203670D01*
X0229722Y0203609D01*
X0229754Y0203550D01*
X0229789Y0203493D01*
X0229828Y0203438D01*
X0229869Y0203386D01*
X0229914Y0203336D01*
X0229961Y0203289D01*
X0230011Y0203244D01*
X0230063Y0203203D01*
X0230118Y0203164D01*
X0230175Y0203129D01*
X0230234Y0203097D01*
X0230295Y0203069D01*
X0230357Y0203044D01*
X0230420Y0203023D01*
X0230485Y0203006D01*
X0230550Y0202992D01*
X0230616Y0202983D01*
X0230683Y0202977D01*
X0230750Y0202975D01*
X0231950Y0202975D01*
X0232017Y0202973D01*
X0232084Y0202967D01*
X0232150Y0202958D01*
X0232215Y0202944D01*
X0232280Y0202927D01*
X0232343Y0202906D01*
X0232405Y0202881D01*
X0232466Y0202853D01*
X0232525Y0202821D01*
X0232582Y0202786D01*
X0232637Y0202747D01*
X0232689Y0202706D01*
X0232739Y0202661D01*
X0232786Y0202614D01*
X0232831Y0202564D01*
X0232872Y0202512D01*
X0232911Y0202457D01*
X0232946Y0202400D01*
X0232978Y0202341D01*
X0233006Y0202280D01*
X0233031Y0202218D01*
X0233052Y0202155D01*
X0233069Y0202090D01*
X0233083Y0202025D01*
X0233092Y0201959D01*
X0233098Y0201892D01*
X0233100Y0201825D01*
X0233100Y0200980D01*
X0233098Y0200913D01*
X0233092Y0200846D01*
X0233083Y0200780D01*
X0233069Y0200715D01*
X0233052Y0200650D01*
X0233031Y0200587D01*
X0233006Y0200525D01*
X0232978Y0200464D01*
X0232946Y0200405D01*
X0232911Y0200348D01*
X0232872Y0200293D01*
X0232831Y0200241D01*
X0232786Y0200191D01*
X0232739Y0200144D01*
X0232689Y0200099D01*
X0232637Y0200058D01*
X0232582Y0200019D01*
X0232525Y0199984D01*
X0232466Y0199952D01*
X0232405Y0199924D01*
X0232343Y0199899D01*
X0232280Y0199878D01*
X0232215Y0199861D01*
X0232150Y0199847D01*
X0232084Y0199838D01*
X0232017Y0199832D01*
X0231950Y0199830D01*
X0227250Y0199830D01*
X0227183Y0199828D01*
X0227116Y0199822D01*
X0227050Y0199813D01*
X0226985Y0199799D01*
X0226920Y0199782D01*
X0226857Y0199761D01*
X0226795Y0199736D01*
X0226734Y0199708D01*
X0226675Y0199676D01*
X0226618Y0199641D01*
X0226563Y0199602D01*
X0226511Y0199561D01*
X0226461Y0199516D01*
X0226414Y0199469D01*
X0226369Y0199419D01*
X0226328Y0199367D01*
X0226289Y0199312D01*
X0226254Y0199255D01*
X0226222Y0199196D01*
X0226194Y0199135D01*
X0226169Y0199073D01*
X0226148Y0199010D01*
X0226131Y0198945D01*
X0226117Y0198880D01*
X0226108Y0198814D01*
X0226102Y0198747D01*
X0226100Y0198680D01*
X0226100Y0197835D01*
X0226102Y0197768D01*
X0226108Y0197701D01*
X0226117Y0197635D01*
X0226131Y0197570D01*
X0226148Y0197505D01*
X0226169Y0197442D01*
X0226194Y0197380D01*
X0226222Y0197319D01*
X0226254Y0197260D01*
X0226289Y0197203D01*
X0226328Y0197148D01*
X0226369Y0197096D01*
X0226414Y0197046D01*
X0226461Y0196999D01*
X0226511Y0196954D01*
X0226563Y0196913D01*
X0226618Y0196874D01*
X0226675Y0196839D01*
X0226734Y0196807D01*
X0226795Y0196779D01*
X0226857Y0196754D01*
X0226920Y0196733D01*
X0226985Y0196716D01*
X0227050Y0196702D01*
X0227116Y0196693D01*
X0227183Y0196687D01*
X0227250Y0196685D01*
X0231950Y0196685D01*
X0232017Y0196683D01*
X0232084Y0196677D01*
X0232150Y0196668D01*
X0232215Y0196654D01*
X0232280Y0196637D01*
X0232343Y0196616D01*
X0232405Y0196591D01*
X0232466Y0196563D01*
X0232525Y0196531D01*
X0232582Y0196496D01*
X0232637Y0196457D01*
X0232689Y0196416D01*
X0232739Y0196371D01*
X0232786Y0196324D01*
X0232831Y0196274D01*
X0232872Y0196222D01*
X0232911Y0196167D01*
X0232946Y0196110D01*
X0232978Y0196051D01*
X0233006Y0195990D01*
X0233031Y0195928D01*
X0233052Y0195865D01*
X0233069Y0195800D01*
X0233083Y0195735D01*
X0233092Y0195669D01*
X0233098Y0195602D01*
X0233100Y0195535D01*
X0233100Y0194690D01*
X0233098Y0194623D01*
X0233092Y0194556D01*
X0233083Y0194490D01*
X0233069Y0194425D01*
X0233052Y0194360D01*
X0233031Y0194297D01*
X0233006Y0194235D01*
X0232978Y0194174D01*
X0232946Y0194115D01*
X0232911Y0194058D01*
X0232872Y0194003D01*
X0232831Y0193951D01*
X0232786Y0193901D01*
X0232739Y0193854D01*
X0232689Y0193809D01*
X0232637Y0193768D01*
X0232582Y0193729D01*
X0232525Y0193694D01*
X0232466Y0193662D01*
X0232405Y0193634D01*
X0232343Y0193609D01*
X0232280Y0193588D01*
X0232215Y0193571D01*
X0232150Y0193557D01*
X0232084Y0193548D01*
X0232017Y0193542D01*
X0231950Y0193540D01*
X0227250Y0193540D01*
X0227183Y0193538D01*
X0227116Y0193532D01*
X0227050Y0193523D01*
X0226985Y0193509D01*
X0226920Y0193492D01*
X0226857Y0193471D01*
X0226795Y0193446D01*
X0226734Y0193418D01*
X0226675Y0193386D01*
X0226618Y0193351D01*
X0226563Y0193312D01*
X0226511Y0193271D01*
X0226461Y0193226D01*
X0226414Y0193179D01*
X0226369Y0193129D01*
X0226328Y0193077D01*
X0226289Y0193022D01*
X0226254Y0192965D01*
X0226222Y0192906D01*
X0226194Y0192845D01*
X0226169Y0192783D01*
X0226148Y0192720D01*
X0226131Y0192655D01*
X0226117Y0192590D01*
X0226108Y0192524D01*
X0226102Y0192457D01*
X0226100Y0192390D01*
X0232100Y0209100D02*
X0232100Y0211600D01*
X0238100Y0211600D02*
X0238100Y0170100D01*
X0225600Y0157600D01*
X0214100Y0157600D01*
X0208100Y0151600D01*
X0208100Y0142100D01*
X0193100Y0127100D01*
X0190600Y0133100D02*
X0190600Y0135100D01*
X0200194Y0143194D02*
X0200600Y0143100D01*
X0200600Y0145100D01*
X0199600Y0146100D01*
X0176600Y0146100D01*
X0180100Y0158100D02*
X0177100Y0161100D01*
X0177100Y0219100D01*
X0172100Y0224100D01*
X0172100Y0227600D01*
X0175100Y0226100D02*
X0175100Y0223100D01*
X0178600Y0219600D01*
X0178600Y0162600D01*
X0180100Y0161100D01*
X0181600Y0161100D01*
X0182100Y0163600D02*
X0184100Y0163600D01*
X0182100Y0163600D02*
X0180100Y0165600D01*
X0180100Y0220100D01*
X0178100Y0222100D01*
X0178100Y0224600D01*
X0181100Y0223100D02*
X0181100Y0221100D01*
X0181600Y0220600D01*
X0181600Y0167600D01*
X0183100Y0166100D01*
X0186600Y0166100D01*
X0184100Y0168600D02*
X0183100Y0169600D01*
X0183100Y0220600D01*
X0184100Y0221600D01*
X0206100Y0243600D02*
X0215100Y0252600D01*
X0215100Y0254100D01*
X0206100Y0243600D02*
X0206100Y0176100D01*
X0207100Y0175100D01*
X0222600Y0169100D02*
X0223100Y0169600D01*
X0223100Y0213100D01*
X0215600Y0220600D01*
X0215600Y0227100D01*
X0212100Y0227100D02*
X0212100Y0222100D01*
X0221600Y0212600D01*
X0253600Y0211100D02*
X0253600Y0187100D01*
X0243100Y0176600D01*
X0243100Y0162100D01*
X0241600Y0160600D01*
X0244600Y0159600D02*
X0242100Y0157100D01*
X0244600Y0159600D02*
X0244600Y0176100D01*
X0255100Y0186600D01*
X0255100Y0210600D01*
X0282600Y0238100D01*
X0280100Y0237600D02*
X0280100Y0249100D01*
X0282100Y0251100D01*
X0290600Y0249600D02*
X0292100Y0251100D01*
X0290600Y0249600D02*
X0290600Y0219600D01*
X0281100Y0210100D01*
X0270100Y0210100D01*
X0265100Y0215100D01*
X0261600Y0215100D01*
X0256600Y0210100D01*
X0256600Y0173600D01*
X0249600Y0166600D01*
X0247100Y0166600D01*
X0249600Y0164600D02*
X0258100Y0173100D01*
X0258100Y0208100D01*
X0259100Y0209100D01*
X0259600Y0209100D01*
X0260100Y0208600D01*
X0281600Y0208600D01*
X0293100Y0220100D01*
X0293100Y0233600D01*
X0303100Y0233600D02*
X0303100Y0215100D01*
X0293600Y0205600D01*
X0278100Y0205600D01*
X0277100Y0204600D01*
X0276600Y0204600D01*
X0275100Y0205600D01*
X0265600Y0205600D01*
X0261100Y0201100D01*
X0261100Y0178100D01*
X0262100Y0177100D01*
X0259600Y0171100D02*
X0259600Y0205100D01*
X0260600Y0206100D01*
X0261600Y0207100D01*
X0293100Y0207100D01*
X0300600Y0214600D01*
X0300600Y0249600D01*
X0302100Y0251100D01*
X0310600Y0249600D02*
X0312100Y0251100D01*
X0310600Y0249600D02*
X0310600Y0211100D01*
X0303600Y0204100D01*
X0285100Y0204100D01*
X0278100Y0197100D01*
X0278100Y0161600D01*
X0263100Y0146600D01*
X0242100Y0146600D01*
X0249600Y0164100D02*
X0249600Y0164600D01*
X0253600Y0211100D02*
X0280100Y0237600D01*
X0312100Y0231600D02*
X0313100Y0233600D01*
X0312100Y0231600D02*
X0312100Y0139100D01*
X0316100Y0135100D01*
X0319600Y0135100D01*
X0320100Y0138100D02*
X0327100Y0131100D01*
X0327100Y0123600D01*
X0350100Y0100600D01*
X0366100Y0100600D01*
X0371600Y0095100D01*
X0375600Y0095100D01*
X0380600Y0090600D02*
X0381100Y0091100D01*
X0384100Y0091100D01*
X0370100Y0090100D02*
X0365100Y0090100D01*
X0361100Y0089600D02*
X0361100Y0088100D01*
X0367600Y0095600D02*
X0264100Y0095600D01*
X0263100Y0096600D01*
X0313600Y0104600D02*
X0325100Y0116100D01*
X0327600Y0116100D01*
X0320100Y0138100D02*
X0317600Y0138100D01*
X0315600Y0141100D02*
X0313600Y0143100D01*
X0313600Y0208100D01*
X0320600Y0215100D01*
X0320600Y0249600D01*
X0322100Y0251100D01*
X0330600Y0249600D02*
X0332100Y0251100D01*
X0330600Y0249600D02*
X0330600Y0221100D01*
X0316600Y0207100D01*
X0316600Y0171100D01*
X0324100Y0163600D01*
X0341100Y0163600D01*
X0343600Y0161100D01*
X0348600Y0158100D02*
X0348600Y0164100D01*
X0343100Y0169600D01*
X0320100Y0169600D01*
X0318100Y0171600D01*
X0318100Y0206600D01*
X0333100Y0221600D01*
X0333100Y0233600D01*
X0323100Y0233600D02*
X0323100Y0215600D01*
X0315100Y0207600D01*
X0315100Y0146600D01*
X0319100Y0143100D01*
X0320600Y0186600D02*
X0319600Y0187600D01*
X0319600Y0201600D01*
X0329100Y0211100D01*
X0357100Y0229100D02*
X0368100Y0229100D01*
X0376100Y0221100D01*
X0200100Y0251600D02*
X0200100Y0254600D01*
X0194100Y0254600D02*
X0193600Y0254100D01*
X0186600Y0250600D02*
X0186600Y0196100D01*
X0184600Y0194100D01*
X0154600Y0165100D02*
X0153600Y0166100D01*
X0153600Y0231600D01*
X0171100Y0249100D01*
X0181600Y0249100D01*
X0184600Y0252100D01*
X0184600Y0254600D01*
X0181100Y0252100D02*
X0181100Y0251600D01*
X0180100Y0250600D01*
X0170600Y0250600D01*
X0152100Y0232100D01*
X0152100Y0164100D01*
X0154600Y0161600D01*
X0154600Y0158100D02*
X0150600Y0162100D01*
X0150600Y0232600D01*
X0170100Y0252100D01*
X0176100Y0252100D01*
X0178600Y0254600D01*
D15*
X0351600Y0122600D02*
X0356100Y0118100D01*
X0373100Y0118100D01*
X0359600Y0130100D02*
X0363100Y0133600D01*
X0359600Y0130100D02*
X0355600Y0130100D01*
M02*
