G75*
%MOIN*%
%OFA0B0*%
%FSLAX25Y25*%
%IPPOS*%
%LPD*%
%AMOC8*
5,1,8,0,0,1.08239X$1,22.5*
%
%ADD10R,0.04852X0.04734*%
%ADD11R,0.04734X0.04852*%
%ADD12R,0.05718X0.06899*%
%ADD13R,0.06899X0.05718*%
%ADD14R,0.06899X0.03750*%
%ADD15R,0.06112X0.04537*%
%ADD16R,0.04931X0.04537*%
%ADD17R,0.04537X0.04931*%
%ADD18C,0.01102*%
%ADD19R,0.16142X0.16142*%
%ADD20R,0.01102X0.02795*%
%ADD21R,0.02795X0.01102*%
%ADD22R,0.02765X0.05324*%
%ADD23R,0.08277X0.06506*%
%ADD24R,0.06112X0.10049*%
%ADD25R,0.06506X0.08277*%
%ADD26C,0.13261*%
%ADD27R,0.01722X0.06506*%
%ADD28R,0.06506X0.01722*%
%ADD29R,0.02175X0.04143*%
%ADD30R,0.02962X0.09261*%
%ADD31R,0.07687X0.08474*%
%ADD32R,0.05324X0.03356*%
%ADD33R,0.01387X0.07687*%
%ADD34R,0.03750X0.04537*%
%ADD35R,0.03750X0.08868*%
%ADD36R,0.03750X0.10443*%
%ADD37C,0.06112*%
%ADD38C,0.03300*%
D10*
X0188100Y0101155D03*
X0188100Y0108045D03*
X0202600Y0108045D03*
X0208100Y0108045D03*
X0208100Y0101155D03*
X0202600Y0101155D03*
X0226600Y0100655D03*
X0226600Y0107545D03*
X0271600Y0129655D03*
X0271600Y0136545D03*
X0326600Y0106545D03*
X0326600Y0099655D03*
X0335600Y0111655D03*
X0335600Y0118545D03*
X0348100Y0118545D03*
X0348100Y0111655D03*
X0218600Y0189155D03*
X0212600Y0189155D03*
X0212600Y0196045D03*
X0218600Y0196045D03*
X0196100Y0196045D03*
X0196100Y0189155D03*
X0246100Y0244655D03*
X0246100Y0251545D03*
D11*
X0207045Y0208600D03*
X0200155Y0208600D03*
X0164545Y0171600D03*
X0157655Y0171600D03*
X0157655Y0150100D03*
X0164545Y0150100D03*
X0165045Y0138600D03*
X0158155Y0138600D03*
X0158155Y0128600D03*
X0165045Y0128600D03*
X0247155Y0136100D03*
X0247155Y0142600D03*
X0254045Y0142600D03*
X0254045Y0136100D03*
X0254045Y0149600D03*
X0247155Y0149600D03*
X0247155Y0177600D03*
X0254045Y0177600D03*
X0269155Y0189600D03*
X0276045Y0189600D03*
X0316655Y0119100D03*
X0323545Y0119100D03*
X0356155Y0122600D03*
X0363045Y0122600D03*
X0362155Y0102600D03*
X0369045Y0102600D03*
D12*
X0365663Y0145600D03*
X0373537Y0145600D03*
X0373537Y0153600D03*
X0365663Y0153600D03*
X0365663Y0161600D03*
X0373537Y0161600D03*
X0313037Y0154100D03*
X0313037Y0146600D03*
X0305163Y0146600D03*
X0305163Y0154100D03*
X0304663Y0135538D03*
X0312537Y0135538D03*
X0299537Y0105350D03*
X0291663Y0105350D03*
D13*
X0295850Y0134663D03*
X0295850Y0142537D03*
X0328600Y0165663D03*
X0328600Y0173537D03*
X0337100Y0173537D03*
X0337100Y0165663D03*
X0348600Y0166163D03*
X0348600Y0174037D03*
X0356600Y0174037D03*
X0356600Y0166163D03*
X0387100Y0131537D03*
X0387100Y0123663D03*
D14*
X0378793Y0137600D03*
X0365407Y0137600D03*
X0304793Y0113850D03*
X0291407Y0113850D03*
D15*
X0311269Y0109600D03*
X0319931Y0105860D03*
X0319931Y0113340D03*
X0358769Y0116340D03*
X0358769Y0108860D03*
X0367431Y0112600D03*
D16*
X0378600Y0111754D03*
X0378600Y0118446D03*
X0351350Y0106446D03*
X0345600Y0106446D03*
X0345600Y0099754D03*
X0351350Y0099754D03*
X0337600Y0099754D03*
X0332100Y0099754D03*
X0332100Y0106446D03*
X0337600Y0106446D03*
X0362600Y0180754D03*
X0368100Y0180754D03*
X0368100Y0187446D03*
X0362600Y0187446D03*
X0276100Y0222254D03*
X0276100Y0228946D03*
X0269600Y0235254D03*
X0269600Y0241946D03*
X0258600Y0241946D03*
X0258600Y0235254D03*
X0242100Y0118946D03*
X0242100Y0112254D03*
D17*
X0258254Y0157600D03*
X0258254Y0163600D03*
X0264946Y0163600D03*
X0264946Y0157600D03*
X0306754Y0163600D03*
X0313446Y0163600D03*
X0331504Y0184350D03*
X0338196Y0184350D03*
X0315946Y0099600D03*
X0309254Y0099600D03*
X0375754Y0102600D03*
X0382446Y0102600D03*
D18*
X0351807Y0129523D02*
X0350409Y0129523D01*
X0350409Y0131492D02*
X0351807Y0131492D01*
X0351807Y0133460D02*
X0350409Y0133460D01*
X0350409Y0135429D02*
X0351807Y0135429D01*
X0351807Y0137397D02*
X0350409Y0137397D01*
X0350409Y0139366D02*
X0351807Y0139366D01*
X0351807Y0141334D02*
X0350409Y0141334D01*
X0350409Y0143303D02*
X0351807Y0143303D01*
X0351807Y0145271D02*
X0350409Y0145271D01*
X0350409Y0147240D02*
X0351807Y0147240D01*
X0351807Y0149208D02*
X0350409Y0149208D01*
X0350409Y0151177D02*
X0351807Y0151177D01*
X0348677Y0152909D02*
X0348677Y0154307D01*
X0346708Y0154307D02*
X0346708Y0152909D01*
X0344740Y0152909D02*
X0344740Y0154307D01*
X0342771Y0154307D02*
X0342771Y0152909D01*
X0340803Y0152909D02*
X0340803Y0154307D01*
X0338834Y0154307D02*
X0338834Y0152909D01*
X0336866Y0152909D02*
X0336866Y0154307D01*
X0334897Y0154307D02*
X0334897Y0152909D01*
X0332929Y0152909D02*
X0332929Y0154307D01*
X0330960Y0154307D02*
X0330960Y0152909D01*
X0328992Y0152909D02*
X0328992Y0154307D01*
X0327023Y0154307D02*
X0327023Y0152909D01*
X0325291Y0151177D02*
X0323893Y0151177D01*
X0323893Y0149208D02*
X0325291Y0149208D01*
X0325291Y0147240D02*
X0323893Y0147240D01*
X0323893Y0145271D02*
X0325291Y0145271D01*
X0325291Y0143303D02*
X0323893Y0143303D01*
X0323893Y0141334D02*
X0325291Y0141334D01*
X0325291Y0139366D02*
X0323893Y0139366D01*
X0323893Y0137397D02*
X0325291Y0137397D01*
X0325291Y0135429D02*
X0323893Y0135429D01*
X0323893Y0133460D02*
X0325291Y0133460D01*
X0325291Y0131492D02*
X0323893Y0131492D01*
X0323893Y0129523D02*
X0325291Y0129523D01*
X0327023Y0127791D02*
X0327023Y0126393D01*
X0328992Y0126393D02*
X0328992Y0127791D01*
X0330960Y0127791D02*
X0330960Y0126393D01*
X0332929Y0126393D02*
X0332929Y0127791D01*
X0334897Y0127791D02*
X0334897Y0126393D01*
X0336866Y0126393D02*
X0336866Y0127791D01*
X0338834Y0127791D02*
X0338834Y0126393D01*
X0340803Y0126393D02*
X0340803Y0127791D01*
X0342771Y0127791D02*
X0342771Y0126393D01*
X0344740Y0126393D02*
X0344740Y0127791D01*
X0346708Y0127791D02*
X0346708Y0126393D01*
X0348677Y0126393D02*
X0348677Y0127791D01*
D19*
X0337850Y0140350D03*
D20*
X0338834Y0126393D03*
X0336866Y0126393D03*
X0334897Y0126393D03*
X0332929Y0126393D03*
X0330960Y0126393D03*
X0328992Y0126393D03*
X0327023Y0126393D03*
X0340803Y0126393D03*
X0342771Y0126393D03*
X0344740Y0126393D03*
X0346708Y0126393D03*
X0348677Y0126393D03*
X0348677Y0154307D03*
X0346708Y0154307D03*
X0344740Y0154307D03*
X0342771Y0154307D03*
X0340803Y0154307D03*
X0338834Y0154307D03*
X0336866Y0154307D03*
X0334897Y0154307D03*
X0332929Y0154307D03*
X0330960Y0154307D03*
X0328992Y0154307D03*
X0327023Y0154307D03*
D21*
X0323893Y0151177D03*
X0323893Y0149208D03*
X0323893Y0147240D03*
X0323893Y0145271D03*
X0323893Y0143303D03*
X0323893Y0141334D03*
X0323893Y0139366D03*
X0323893Y0137397D03*
X0323893Y0135429D03*
X0323893Y0133460D03*
X0323893Y0131492D03*
X0323893Y0129523D03*
X0351807Y0129523D03*
X0351807Y0131492D03*
X0351807Y0133460D03*
X0351807Y0135429D03*
X0351807Y0137397D03*
X0351807Y0139366D03*
X0351807Y0141334D03*
X0351807Y0143303D03*
X0351807Y0145271D03*
X0351807Y0147240D03*
X0351807Y0149208D03*
X0351807Y0151177D03*
D22*
X0354340Y0210481D03*
X0346860Y0210481D03*
X0346860Y0220719D03*
X0350600Y0220719D03*
X0354340Y0220719D03*
X0380860Y0220719D03*
X0384600Y0220719D03*
X0388340Y0220719D03*
X0388340Y0210481D03*
X0380860Y0210481D03*
D23*
X0378687Y0230600D03*
X0389513Y0230600D03*
D24*
X0388824Y0202600D03*
X0379376Y0202600D03*
X0354824Y0202600D03*
X0345376Y0202600D03*
X0370376Y0127600D03*
X0379824Y0127600D03*
X0304324Y0123850D03*
X0294876Y0123850D03*
D25*
X0336600Y0200187D03*
X0336600Y0211013D03*
X0367600Y0231687D03*
X0367600Y0242513D03*
X0370600Y0211013D03*
X0370600Y0200187D03*
D26*
X0151600Y0056600D03*
X0151600Y0266600D03*
X0391600Y0266600D03*
X0391600Y0056600D03*
D27*
X0229222Y0118891D03*
X0227254Y0118891D03*
X0225285Y0118891D03*
X0223317Y0118891D03*
X0221348Y0118891D03*
X0219380Y0118891D03*
X0217411Y0118891D03*
X0215443Y0118891D03*
X0213474Y0118891D03*
X0211506Y0118891D03*
X0209537Y0118891D03*
X0207569Y0118891D03*
X0205600Y0118891D03*
X0203631Y0118891D03*
X0201663Y0118891D03*
X0199694Y0118891D03*
X0197726Y0118891D03*
X0195757Y0118891D03*
X0193789Y0118891D03*
X0191820Y0118891D03*
X0189852Y0118891D03*
X0187883Y0118891D03*
X0185915Y0118891D03*
X0183946Y0118891D03*
X0181978Y0118891D03*
X0181978Y0180309D03*
X0183946Y0180309D03*
X0185915Y0180309D03*
X0187883Y0180309D03*
X0189852Y0180309D03*
X0191820Y0180309D03*
X0193789Y0180309D03*
X0195757Y0180309D03*
X0197726Y0180309D03*
X0199694Y0180309D03*
X0201663Y0180309D03*
X0203631Y0180309D03*
X0205600Y0180309D03*
X0207569Y0180309D03*
X0209537Y0180309D03*
X0211506Y0180309D03*
X0213474Y0180309D03*
X0215443Y0180309D03*
X0217411Y0180309D03*
X0219380Y0180309D03*
X0221348Y0180309D03*
X0223317Y0180309D03*
X0225285Y0180309D03*
X0227254Y0180309D03*
X0229222Y0180309D03*
D28*
X0236309Y0173222D03*
X0236309Y0171254D03*
X0236309Y0169285D03*
X0236309Y0167317D03*
X0236309Y0165348D03*
X0236309Y0163380D03*
X0236309Y0161411D03*
X0236309Y0159443D03*
X0236309Y0157474D03*
X0236309Y0155506D03*
X0236309Y0153537D03*
X0236309Y0151569D03*
X0236309Y0149600D03*
X0236309Y0147631D03*
X0236309Y0145663D03*
X0236309Y0143694D03*
X0236309Y0141726D03*
X0236309Y0139757D03*
X0236309Y0137789D03*
X0236309Y0135820D03*
X0236309Y0133852D03*
X0236309Y0131883D03*
X0236309Y0129915D03*
X0236309Y0127946D03*
X0236309Y0125978D03*
X0174891Y0125978D03*
X0174891Y0127946D03*
X0174891Y0129915D03*
X0174891Y0131883D03*
X0174891Y0133852D03*
X0174891Y0135820D03*
X0174891Y0137789D03*
X0174891Y0139757D03*
X0174891Y0141726D03*
X0174891Y0143694D03*
X0174891Y0145663D03*
X0174891Y0147631D03*
X0174891Y0149600D03*
X0174891Y0151569D03*
X0174891Y0153537D03*
X0174891Y0155506D03*
X0174891Y0157474D03*
X0174891Y0159443D03*
X0174891Y0161411D03*
X0174891Y0163380D03*
X0174891Y0165348D03*
X0174891Y0167317D03*
X0174891Y0169285D03*
X0174891Y0171254D03*
X0174891Y0173222D03*
D29*
X0174679Y0215553D03*
X0177828Y0215553D03*
X0180978Y0215553D03*
X0184128Y0215553D03*
X0187277Y0215553D03*
X0190427Y0215553D03*
X0193576Y0215553D03*
X0196726Y0215553D03*
X0199876Y0215553D03*
X0203025Y0215553D03*
X0206175Y0215553D03*
X0209324Y0215553D03*
X0212474Y0215553D03*
X0215624Y0215553D03*
X0218773Y0215553D03*
X0221923Y0215553D03*
X0225072Y0215553D03*
X0228222Y0215553D03*
X0231372Y0215553D03*
X0234521Y0215553D03*
X0237671Y0215553D03*
X0237671Y0259647D03*
X0234521Y0259647D03*
X0231372Y0259647D03*
X0228222Y0259647D03*
X0225072Y0259647D03*
X0221923Y0259647D03*
X0218773Y0259647D03*
X0215624Y0259647D03*
X0212474Y0259647D03*
X0209324Y0259647D03*
X0206175Y0259647D03*
X0203025Y0259647D03*
X0199876Y0259647D03*
X0196726Y0259647D03*
X0193576Y0259647D03*
X0190427Y0259647D03*
X0187277Y0259647D03*
X0184128Y0259647D03*
X0180978Y0259647D03*
X0177828Y0259647D03*
X0174679Y0259647D03*
X0171529Y0259647D03*
X0171529Y0215553D03*
D30*
X0254100Y0225651D03*
X0259100Y0225651D03*
X0264100Y0225651D03*
X0269100Y0225651D03*
X0269100Y0199549D03*
X0264100Y0199549D03*
X0259100Y0199549D03*
X0254100Y0199549D03*
D31*
X0251600Y0120368D03*
X0251600Y0103832D03*
X0271600Y0103832D03*
X0271600Y0120368D03*
D32*
X0173883Y0181600D03*
X0159317Y0181600D03*
D33*
X0350427Y0075482D03*
X0352002Y0075482D03*
X0353576Y0075482D03*
X0355151Y0075482D03*
X0356726Y0075482D03*
X0358301Y0075482D03*
X0359876Y0075482D03*
X0361450Y0075482D03*
X0363025Y0075482D03*
X0364600Y0075482D03*
X0366175Y0075482D03*
X0367750Y0075482D03*
X0369324Y0075482D03*
X0370899Y0075482D03*
X0372474Y0075482D03*
X0374049Y0075482D03*
X0375624Y0075482D03*
X0375624Y0066033D03*
X0374049Y0066033D03*
X0372474Y0066033D03*
X0370899Y0066033D03*
X0369324Y0066033D03*
X0367750Y0066033D03*
X0366175Y0066033D03*
X0364600Y0066033D03*
X0363025Y0066033D03*
X0361450Y0066033D03*
X0359876Y0066033D03*
X0358301Y0066033D03*
X0356726Y0066033D03*
X0355151Y0066033D03*
X0353576Y0066033D03*
X0352002Y0066033D03*
X0350427Y0066033D03*
D34*
X0346687Y0064458D03*
X0346687Y0077057D03*
X0379364Y0077057D03*
X0379364Y0064458D03*
D35*
X0356600Y0238490D03*
X0346600Y0238490D03*
X0336600Y0238490D03*
X0326600Y0238490D03*
X0316600Y0238490D03*
X0306600Y0238490D03*
X0296600Y0238490D03*
X0286600Y0238490D03*
D36*
X0286600Y0250813D03*
X0296600Y0250813D03*
X0306600Y0250813D03*
X0316600Y0250813D03*
X0326600Y0250813D03*
X0336600Y0250813D03*
X0346600Y0250813D03*
X0356600Y0250813D03*
D37*
X0351600Y0266600D03*
X0291600Y0266600D03*
D38*
X0292100Y0251100D03*
X0282100Y0251100D03*
X0276600Y0242100D03*
X0282600Y0238100D03*
X0293100Y0233600D03*
X0303100Y0233600D03*
X0313100Y0233600D03*
X0323100Y0233600D03*
X0333100Y0233600D03*
X0326100Y0221100D03*
X0331100Y0215600D03*
X0329100Y0211100D03*
X0331013Y0206013D03*
X0331600Y0201600D03*
X0320600Y0186600D03*
X0307600Y0190100D03*
X0289100Y0169100D03*
X0302600Y0163600D03*
X0309600Y0159100D03*
X0319100Y0143100D03*
X0315600Y0141100D03*
X0317600Y0138100D03*
X0319600Y0135100D03*
X0301600Y0141100D03*
X0289600Y0127100D03*
X0271600Y0141100D03*
X0270100Y0145100D03*
X0259600Y0137600D03*
X0242600Y0142600D03*
X0242100Y0146600D03*
X0242100Y0157100D03*
X0241600Y0160600D03*
X0247100Y0166600D03*
X0249600Y0164100D03*
X0259600Y0171100D03*
X0263100Y0173100D03*
X0262100Y0177100D03*
X0254100Y0182100D03*
X0245600Y0186100D03*
X0241100Y0193100D03*
X0232600Y0181600D03*
X0228600Y0174600D03*
X0226100Y0171600D03*
X0222600Y0169100D03*
X0218600Y0169100D03*
X0217100Y0172100D03*
X0215100Y0169100D03*
X0212600Y0166100D03*
X0205600Y0167100D03*
X0205600Y0172100D03*
X0207100Y0175100D03*
X0202100Y0174600D03*
X0198600Y0174600D03*
X0195600Y0173100D03*
X0192100Y0173600D03*
X0188600Y0173600D03*
X0185600Y0175100D03*
X0184100Y0168600D03*
X0186600Y0166100D03*
X0184100Y0163600D03*
X0181600Y0161100D03*
X0180100Y0158100D03*
X0167100Y0161600D03*
X0154600Y0161600D03*
X0154600Y0158100D03*
X0154600Y0165100D03*
X0156600Y0176600D03*
X0165600Y0191100D03*
X0166600Y0194600D03*
X0167600Y0198100D03*
X0169600Y0201100D03*
X0171600Y0204100D03*
X0161100Y0194600D03*
X0158100Y0192600D03*
X0166600Y0219600D03*
X0172100Y0227600D03*
X0175100Y0226100D03*
X0178100Y0224600D03*
X0181100Y0223100D03*
X0184100Y0221600D03*
X0196100Y0224600D03*
X0197100Y0220100D03*
X0200600Y0222100D03*
X0196100Y0211600D03*
X0198100Y0202600D03*
X0200600Y0200100D03*
X0200600Y0196100D03*
X0208600Y0192600D03*
X0202100Y0185600D03*
X0192100Y0185600D03*
X0190600Y0190600D03*
X0187100Y0190600D03*
X0185600Y0185600D03*
X0196600Y0164100D03*
X0200600Y0143100D03*
X0198100Y0140600D03*
X0195600Y0138100D03*
X0193100Y0135600D03*
X0190600Y0133100D03*
X0183100Y0128600D03*
X0180600Y0131100D03*
X0185600Y0126100D03*
X0194100Y0124600D03*
X0189100Y0113600D03*
X0186100Y0112100D03*
X0182600Y0112100D03*
X0178100Y0112600D03*
X0192600Y0104600D03*
X0198600Y0104600D03*
X0200600Y0112600D03*
X0210100Y0113600D03*
X0213600Y0113600D03*
X0217100Y0113600D03*
X0218600Y0110600D03*
X0222600Y0110600D03*
X0228100Y0113100D03*
X0232600Y0113100D03*
X0233100Y0119600D03*
X0215600Y0124100D03*
X0228100Y0138600D03*
X0213100Y0143600D03*
X0227600Y0155100D03*
X0223100Y0163600D03*
X0219100Y0200600D03*
X0216100Y0202600D03*
X0213600Y0205100D03*
X0219100Y0208100D03*
X0212100Y0211600D03*
X0220600Y0221600D03*
X0221100Y0226600D03*
X0215600Y0227100D03*
X0212100Y0227100D03*
X0212100Y0234600D03*
X0211600Y0252600D03*
X0208600Y0254100D03*
X0204100Y0253100D03*
X0200100Y0254600D03*
X0197100Y0252600D03*
X0194100Y0254600D03*
X0191100Y0252600D03*
X0186600Y0250600D03*
X0184600Y0254600D03*
X0181100Y0252100D03*
X0178600Y0254600D03*
X0215100Y0254100D03*
X0218600Y0254100D03*
X0222100Y0254600D03*
X0246100Y0239600D03*
X0249600Y0225600D03*
X0238100Y0211600D03*
X0235100Y0210100D03*
X0232100Y0211600D03*
X0226100Y0220600D03*
X0259100Y0209100D03*
X0260600Y0206100D03*
X0265100Y0215100D03*
X0276600Y0204600D03*
X0280600Y0189600D03*
X0284100Y0224100D03*
X0306600Y0223600D03*
X0302100Y0251100D03*
X0312100Y0251100D03*
X0322100Y0251100D03*
X0332100Y0251100D03*
X0357100Y0229100D03*
X0365600Y0211100D03*
X0365600Y0201600D03*
X0376100Y0221100D03*
X0377600Y0242600D03*
X0395600Y0230600D03*
X0352600Y0183100D03*
X0342600Y0166100D03*
X0343600Y0161100D03*
X0339600Y0159600D03*
X0348600Y0158100D03*
X0352600Y0155100D03*
X0352600Y0161600D03*
X0356100Y0144100D03*
X0360100Y0136600D03*
X0363100Y0133600D03*
X0358100Y0127100D03*
X0355600Y0130100D03*
X0351600Y0122600D03*
X0341600Y0116600D03*
X0331100Y0111100D03*
X0327600Y0116100D03*
X0313600Y0104600D03*
X0301600Y0100100D03*
X0263100Y0096600D03*
X0258100Y0120100D03*
X0238600Y0094100D03*
X0230600Y0096100D03*
X0229100Y0089600D03*
X0217100Y0100100D03*
X0212100Y0104100D03*
X0205600Y0096100D03*
X0201600Y0095600D03*
X0191100Y0097100D03*
X0189600Y0094100D03*
X0183600Y0096600D03*
X0170100Y0094100D03*
X0169100Y0130100D03*
X0161600Y0143100D03*
X0165100Y0145600D03*
X0153100Y0138600D03*
X0215600Y0093100D03*
X0229100Y0078600D03*
X0232600Y0078600D03*
X0328100Y0159100D03*
X0373600Y0140100D03*
X0373100Y0118100D03*
X0352600Y0110600D03*
X0357100Y0098100D03*
X0361100Y0089600D03*
X0363100Y0086100D03*
X0367100Y0086100D03*
X0367100Y0082600D03*
X0370100Y0090100D03*
X0366100Y0092600D03*
X0367600Y0095600D03*
X0372100Y0098100D03*
X0375600Y0095100D03*
X0380600Y0090600D03*
X0387100Y0091100D03*
X0385100Y0072100D03*
X0374600Y0060100D03*
X0374100Y0056100D03*
X0368100Y0058600D03*
X0342100Y0078600D03*
M02*
